{
.appVersion = "1352";
DisplayStrings = (
abcdefghijklmnopqrstuvwxyz
);
copyright = "Copyright 2014-2021 The Neonderthaw Project Authors (https://github.com/googlefonts/neonderthaw)";
customParameters = (
{
name = panose;
value = (
2,
0,
5,
7,
0,
0,
0,
2,
0,
2
);
},
{
name = licenseURL;
value = "https://scripts.sil.org/OFL";
},
{
name = license;
value = "This Font Software is licensed under the SIL Open Font License, Version 1.1. This license is available with a FAQ at: https://scripts.sil.org/OFL";
},
{
name = vendorID;
value = GOOG;
},
{
name = "Disable Subroutines";
value = 1;
},
{
name = glyphOrder;
value = (
.notdef,
CR,
NULL,
space,
nbspace
);
},
{
name = fsType;
value = (
);
},
{
name = "Use Typo Metrics";
value = 1;
}
);
date = "2021-11-10 00:30:08 +0000";
designer = "Robert E. Leuschke";
designerURL = www.typesetit.com;
disablesNiceNames = 1;
familyName = Neonderthaw;
featurePrefixes = (
{
automatic = 1;
code = "languagesystem DFLT dflt;\012\012languagesystem latn dflt;\012languagesystem latn AZE;\012languagesystem latn CRT;\012languagesystem latn KAZ;\012languagesystem latn TAT;\012languagesystem latn TRK;\012languagesystem latn ROM;\012languagesystem latn MOL;\012languagesystem latn CAT;\012";
name = Languagesystems;
}
);
features = (
{
automatic = 1;
code = "feature locl;\012feature sups;\012feature frac;\012feature ordn;\012";
name = aalt;
},
{
automatic = 1;

glyphs = (
{
glyphname = .notdef;
lastChange = "2021-11-10 00:36:21 +0000";
layers = (
{
layerId = "6B4F01CB-8044-4D82-912B-2C5A8D883AAC";
paths = (
{
closed = 1;
nodes = (
"48 5 LINE",
"457 5 LINE",
"465 13 LINE",
"465 607 LINE",
"457 616 LINE",
"48 616 LINE",
"40 606 LINE",
"40 14 LINE"
);
},
{
closed = 1;
nodes = (
"57 600 LINE",
"449 600 LINE",
"449 21 LINE",
"57 21 LINE"
);
},
{
closed = 1;
nodes = (
"91 53 LINE",
"416 53 LINE",
"416 566 LINE",
"91 566 LINE"
);
},
{
closed = 1;
nodes = (
"141 151 LINE",
"228 312 LINE",
"141 470 LINE",
"159 504 LINE",
"247 345 LINE",
"336 504 LINE",
"354 470 LINE",
"266 310 LINE",
"354 151 LINE",
"336 117 LINE",
"247 276 LINE",
"159 117 LINE"
);
}
);
width = 505;
}
);
note = .notdef;
},
{
glyphname = A;
lastChange = "2021-11-10 00:36:21 +0000";
layers = (
{
layerId = "6B4F01CB-8044-4D82-912B-2C5A8D883AAC";
paths = (
{
closed = 1;
nodes = (
"1112 606 OFFCURVE",
"1100 622 OFFCURVE",
"1090 614 CURVE SMOOTH",
"1029 566 OFFCURVE",
"754 353 OFFCURVE",
"694 301 CURVE SMOOTH",
"565 188 OFFCURVE",
"359 39 OFFCURVE",
"201 39 CURVE SMOOTH",
"-107 39 OFFCURVE",
"46 353 OFFCURVE",
"380 353 CURVE SMOOTH",
"449 353 OFFCURVE",
"506 333 OFFCURVE",
"556 288 CURVE SMOOTH",
"565 279 OFFCURVE",
"586 254 OFFCURVE",
"600 254 CURVE SMOOTH",
"620 254 OFFCURVE",
"628 274 OFFCURVE",
"630 283 CURVE SMOOTH",
"653 393 OFFCURVE",
"441 419 OFFCURVE",
"374 419 CURVE SMOOTH",
"191 419 OFFCURVE",
"-15 322 OFFCURVE",
"-49 162 CURVE SMOOTH",
"-80 15 OFFCURVE",
"77 -34 OFFCURVE",
"186 -34 CURVE SMOOTH",
"362 -34 OFFCURVE",
"549 85 OFFCURVE",
"664 183 CURVE",
"836 183 LINE SMOOTH",
"849 183 OFFCURVE",
"849 203 OFFCURVE",
"836 203 CURVE SMOOTH",
"660 203 LINE SMOOTH",
"659 203 OFFCURVE",
"654 201 OFFCURVE",
"654 201 CURVE",
"540 103 OFFCURVE",
"356 -14 OFFCURVE",
"186 -14 CURVE SMOOTH",
"74 -14 OFFCURVE",
"-55 35 OFFCURVE",
"-29 158 CURVE SMOOTH",
"2 304 OFFCURVE",
"195 399 OFFCURVE",
"374 399 CURVE SMOOTH",
"427 399 OFFCURVE",
"629 377 OFFCURVE",
"610 288 CURVE SMOOTH",
"608 279 OFFCURVE",
"604 274 OFFCURVE",
"601 274 CURVE",
"596 276 OFFCURVE",
"590 283 OFFCURVE",
"586 286 CURVE",
"527 345 OFFCURVE",
"469 373 OFFCURVE",
"380 373 CURVE SMOOTH",
"249 373 OFFCURVE",
"47 305 OFFCURVE",
"20 176 CURVE SMOOTH",
"-6 51 OFFCURVE",
"107 19 OFFCURVE",
"201 19 CURVE SMOOTH",
"368 19 OFFCURVE",
"579 174 OFFCURVE",
"707 286 CURVE SMOOTH",
"767 338 OFFCURVE",
"1042 550 OFFCURVE",
"1102 598 CURVE SMOOTH"
);
},
{
closed = 1;
nodes = (
"1092 62 OFFCURVE",
"1081 79 OFFCURVE",
"1070 72 CURVE SMOOTH",
"1023 41 OFFCURVE",
"971 15 OFFCURVE",
"922 15 CURVE SMOOTH",
"875 15 OFFCURVE",
"807 42 OFFCURVE",
"836 131 CURVE SMOOTH",
"840 144 OFFCURVE",
"821 150 OFFCURVE",
"817 137 CURVE SMOOTH",
"782 28 OFFCURVE",
"871 -5 OFFCURVE",
"922 -5 CURVE SMOOTH",
"977 -5 OFFCURVE",
"1033 24 OFFCURVE",
"1081 55 CURVE SMOOTH"
);
},
{
closed = 1;
nodes = (
"998 470 OFFCURVE",
"985 485 OFFCURVE",
"975 477 CURVE SMOOTH",
"907 418 OFFCURVE",
"805 333 OFFCURVE",
"759 295 CURVE SMOOTH",
"748 286 OFFCURVE",
"761 271 OFFCURVE",
"771 279 CURVE SMOOTH",
"818 318 OFFCURVE",
"920 402 OFFCURVE",
"988 461 CURVE SMOOTH"
);
},
{
closed = 1;
nodes = (
"1101 522 OFFCURVE",
"1087 536 OFFCURVE",
"1078 527 CURVE SMOOTH",
"1043 495 OFFCURVE",
"970 401 OFFCURVE",
"902 309 CURVE SMOOTH",
"879 277 OFFCURVE",
"859 264 OFFCURVE",
"833 258 CURVE SMOOTH",
"796 249 OFFCURVE",
"754 253 OFFCURVE",
"717 253 CURVE SMOOTH",
"703 253 OFFCURVE",
"703 233 OFFCURVE",
"717 233 CURVE SMOOTH",
"799 233 OFFCURVE",
"862 220 OFFCURVE",
"918 297 CURVE SMOOTH",
"986 389 OFFCURVE",
"1058 481 OFFCURVE",
"1091 513 CURVE SMOOTH"
);
},
{
closed = 1;
nodes = (
"1181 196 OFFCURVE",
"1167 211 OFFCURVE",
"1158 199 CURVE SMOOTH",
"1107 134 OFFCURVE",
"1020 90 OFFCURVE",
"964 90 CURVE SMOOTH",
"816 90 OFFCURVE",
"1141 500 OFFCURVE",
"1165 530 CURVE SMOOTH",
"1173 540 OFFCURVE",
"1157 553 OFFCURVE",
"1149 542 CURVE SMOOTH",
"1086 462 OFFCURVE",
"1004 347 OFFCURVE",
"965 280 CURVE SMOOTH",
"940 238 OFFCURVE",
"847 70 OFFCURVE",
"964 70 CURVE SMOOTH",
"1029 70 OFFCURVE",
"1122 119 OFFCURVE",
"1173 186 CURVE SMOOTH"
);
},
{
closed = 1;
nodes = (
"1253 721 OFFCURVE",
"833 721 OFFCURVE",
"791 721 CURVE SMOOTH",
"596 721 OFFCURVE",
"400 670 OFFCURVE",
"375 554 CURVE SMOOTH",
"372 538 OFFCURVE",
"376 514 OFFCURVE",
"398 514 CURVE SMOOTH",
"412 514 OFFCURVE",
"424 523 OFFCURVE",
"433 533 CURVE SMOOTH",
"531 631 OFFCURVE",
"637 642 OFFCURVE",
"766 642 CURVE SMOOTH",
"929 642 OFFCURVE",
"995 622 OFFCURVE",
"1033 610 CURVE SMOOTH",
"1045 606 OFFCURVE",
"1051 626 OFFCURVE",
"1039 630 CURVE SMOOTH",
"999 642 OFFCURVE",
"931 662 OFFCURVE",
"766 662 CURVE SMOOTH",
"652 662 OFFCURVE",
"524 654 OFFCURVE",
"426 555 CURVE SMOOTH",
"420 548 OFFCURVE",
"407 534 OFFCURVE",
"398 534 CURVE SMOOTH",
"393 534 OFFCURVE",
"394 547 OFFCURVE",
"395 550 CURVE SMOOTH",
"416 648 OFFCURVE",
"591 701 OFFCURVE",
"791 701 CURVE SMOOTH",
"830 701 OFFCURVE",
"1222 695 OFFCURVE",
"1185 601 CURVE SMOOTH",
"1180 588 OFFCURVE",
"1198 581 OFFCURVE",
"1203 593 CURVE SMOOTH"
);
}
);
width = 1166;
}
);
note = A;
unicode = 0041;
},
{
glyphname = AE;
lastChange = "2021-11-10 00:36:21 +0000";
layers = (
{
layerId = "6B4F01CB-8044-4D82-912B-2C5A8D883AAC";
paths = (
{
closed = 1;
nodes = (
"1401 609 OFFCURVE",
"1321 610 OFFCURVE",
"1247 626 CURVE SMOOTH",
"1094 659 OFFCURVE",
"680 790 OFFCURVE",
"612 590 CURVE SMOOTH",
"610 584 OFFCURVE",
"588 566 OFFCURVE",
"583 573 CURVE SMOOTH",
"582 574 OFFCURVE",
"580 578 OFFCURVE",
"583 590 CURVE SMOOTH",
"631 815 OFFCURVE",
"1006 721 OFFCURVE",
"1158 686 CURVE SMOOTH",
"1243 667 OFFCURVE",
"1373 626 OFFCURVE",
"1452 677 CURVE SMOOTH",
"1489 701 OFFCURVE",
"1503 668 OFFCURVE",
"1468 648 CURVE SMOOTH"
);
},
{
closed = 1;
nodes = (
"1112 606 OFFCURVE",
"1100 622 OFFCURVE",
"1090 614 CURVE SMOOTH",
"1029 566 OFFCURVE",
"754 353 OFFCURVE",
"694 301 CURVE SMOOTH",
"565 188 OFFCURVE",
"359 39 OFFCURVE",
"201 39 CURVE SMOOTH",
"-107 39 OFFCURVE",
"46 353 OFFCURVE",
"380 353 CURVE SMOOTH",
"449 353 OFFCURVE",
"506 333 OFFCURVE",
"556 288 CURVE SMOOTH",
"565 279 OFFCURVE",
"586 254 OFFCURVE",
"600 254 CURVE SMOOTH",
"620 254 OFFCURVE",
"628 274 OFFCURVE",
"630 283 CURVE SMOOTH",
"653 393 OFFCURVE",
"441 419 OFFCURVE",
"374 419 CURVE SMOOTH",
"191 419 OFFCURVE",
"-15 322 OFFCURVE",
"-49 162 CURVE SMOOTH",
"-80 15 OFFCURVE",
"77 -34 OFFCURVE",
"186 -34 CURVE SMOOTH",
"362 -34 OFFCURVE",
"549 85 OFFCURVE",
"664 183 CURVE",
"836 183 LINE SMOOTH",
"849 183 OFFCURVE",
"849 203 OFFCURVE",
"836 203 CURVE SMOOTH",
"660 203 LINE SMOOTH",
"659 203 OFFCURVE",
"654 201 OFFCURVE",
"654 201 CURVE",
"540 103 OFFCURVE",
"356 -14 OFFCURVE",
"186 -14 CURVE SMOOTH",
"74 -14 OFFCURVE",
"-55 35 OFFCURVE",
"-29 158 CURVE SMOOTH",
"2 304 OFFCURVE",
"195 399 OFFCURVE",
"374 399 CURVE SMOOTH",
"427 399 OFFCURVE",
"629 377 OFFCURVE",
"610 288 CURVE SMOOTH",
"608 279 OFFCURVE",
"604 274 OFFCURVE",
"601 274 CURVE",
"596 276 OFFCURVE",
"590 283 OFFCURVE",
"586 286 CURVE",
"527 345 OFFCURVE",
"469 373 OFFCURVE",
"380 373 CURVE SMOOTH",
"13 373 OFFCURVE",
"-132 19 OFFCURVE",
"201 19 CURVE SMOOTH",
"368 19 OFFCURVE",
"579 174 OFFCURVE",
"707 286 CURVE SMOOTH",
"767 338 OFFCURVE",
"1042 550 OFFCURVE",
"1102 598 CURVE SMOOTH"
);
},
{
closed = 1;
nodes = (
"998 470 OFFCURVE",
"985 485 OFFCURVE",
"975 477 CURVE SMOOTH",
"907 418 OFFCURVE",
"805 333 OFFCURVE",
"759 295 CURVE SMOOTH",
"748 286 OFFCURVE",
"761 271 OFFCURVE",
"771 279 CURVE SMOOTH",
"818 318 OFFCURVE",
"920 402 OFFCURVE",
"988 461 CURVE SMOOTH"
);
},
{
closed = 1;
nodes = (
"1447 365 OFFCURVE",
"1410 344 OFFCURVE",
"1397 340 CURVE SMOOTH",
"1302 310 OFFCURVE",
"1066 310 OFFCURVE",
"1012 311 CURVE SMOOTH",
"1010 311 OFFCURVE",
"1005 309 OFFCURVE",
"1004 308 CURVE SMOOTH",
"971 270 OFFCURVE",
"804 74 OFFCURVE",
"936 51 CURVE SMOOTH",
"999 40 OFFCURVE",
"1238 81 OFFCURVE",
"1290 102 CURVE SMOOTH",
"1303 107 OFFCURVE",
"1309 106 OFFCURVE",
"1311 105 CURVE",
"1316 91 OFFCURVE",
"1296 71 OFFCURVE",
"1284 67 CURVE SMOOTH",
"1174 27 OFFCURVE",
"1003 11 OFFCURVE",
"905 11 CURVE SMOOTH",
"780 11 OFFCURVE",
"787 70 OFFCURVE",
"829 150 CURVE SMOOTH",
"835 162 OFFCURVE",
"817 171 OFFCURVE",
"811 159 CURVE SMOOTH",
"799 136 OFFCURVE",
"789 114 OFFCURVE",
"784 96 CURVE SMOOTH",
"760 7 OFFCURVE",
"847 -9 OFFCURVE",
"905 -9 CURVE SMOOTH",
"1004 -9 OFFCURVE",
"1177 8 OFFCURVE",
"1291 49 CURVE SMOOTH",
"1341 67 OFFCURVE",
"1351 148 OFFCURVE",
"1282 120 CURVE SMOOTH",
"1235 101 OFFCURVE",
"998 60 OFFCURVE",
"939 70 CURVE SMOOTH",
"912 75 OFFCURVE",
"900 87 OFFCURVE",
"908 118 CURVE SMOOTH",
"925 179 OFFCURVE",
"969 236 OFFCURVE",
"1016 291 CURVE",
"1077 290 OFFCURVE",
"1307 291 OFFCURVE",
"1403 321 CURVE SMOOTH",
"1476 344 OFFCURVE",
"1486 426 OFFCURVE",
"1419 402 CURVE SMOOTH",
"1338 374 OFFCURVE",
"1146 379 OFFCURVE",
"1056 379 CURVE SMOOTH",
"1042 379 OFFCURVE",
"1042 359 OFFCURVE",
"1056 359 CURVE SMOOTH",
"1149 359 OFFCURVE",
"1341 354 OFFCURVE",
"1425 383 CURVE SMOOTH",
"1439 388 OFFCURVE",
"1444 386 OFFCURVE",
"1444 386 CURVE"
);
},
{
closed = 1;
nodes = (
"1281 572 OFFCURVE",
"1224 621 OFFCURVE",
"1186 598 CURVE SMOOTH",
"1147 575 OFFCURVE",
"975 398 OFFCURVE",
"935 347 CURVE SMOOTH",
"860 250 OFFCURVE",
"825 253 OFFCURVE",
"717 253 CURVE SMOOTH",
"703 253 OFFCURVE",
"703 233 OFFCURVE",
"717 233 CURVE SMOOTH",
"831 233 OFFCURVE",
"871 232 OFFCURVE",
"951 335 CURVE SMOOTH",
"991 386 OFFCURVE",
"1161 560 OFFCURVE",
"1197 581 CURVE SMOOTH",
"1213 591 OFFCURVE",
"1248 572 OFFCURVE",
"1229 556 CURVE SMOOTH",
"1182 519 OFFCURVE",
"1133 457 OFFCURVE",
"1087 413 CURVE SMOOTH",
"1077 404 OFFCURVE",
"1091 390 OFFCURVE",
"1101 399 CURVE SMOOTH",
"1136 432 OFFCURVE",
"1160 459 OFFCURVE",
"1182 482 CURVE SMOOTH",
"1203 505 OFFCURVE",
"1220 524 OFFCURVE",
"1241 540 CURVE SMOOTH"
);
},
{
closed = 1;
nodes = (
"1537 665 OFFCURVE",
"1501 732 OFFCURVE",
"1442 694 CURVE SMOOTH",
"1391 662 OFFCURVE",
"1315 672 OFFCURVE",
"1259 684 CURVE SMOOTH",
"1078 722 OFFCURVE",
"620 863 OFFCURVE",
"563 594 CURVE SMOOTH",
"560 580 OFFCURVE",
"561 569 OFFCURVE",
"567 560 CURVE SMOOTH",
"584 538 OFFCURVE",
"624 563 OFFCURVE",
"631 584 CURVE SMOOTH",
"693 764 OFFCURVE",
"1102 637 OFFCURVE",
"1243 607 CURVE SMOOTH",
"1322 590 OFFCURVE",
"1406 590 OFFCURVE",
"1478 631 CURVE SMOOTH"
);
}
);
width = 1354;
}
);
note = AE;
unicode = 00C6;
},
{
glyphname = B;
lastChange = "2021-11-10 00:36:21 +0000";
layers = (
{
layerId = "6B4F01CB-8044-4D82-912B-2C5A8D883AAC";
paths = (
{
closed = 1;
nodes = (
"1113 245 OFFCURVE",
"1066 292 OFFCURVE",
"1002 314 CURVE SMOOTH",
"939 335 OFFCURVE",
"855 335 OFFCURVE",
"800 319 CURVE",
"799 318 OFFCURVE",
"795 315 OFFCURVE",
"794 315 CURVE",
"682 165 OFFCURVE",
"478 -14 OFFCURVE",
"260 -14 CURVE SMOOTH",
"148 -14 OFFCURVE",
"19 35 OFFCURVE",
"45 158 CURVE SMOOTH",
"77 305 OFFCURVE",
"243 399 OFFCURVE",
"374 399 CURVE SMOOTH",
"426 399 OFFCURVE",
"578 374 OFFCURVE",
"584 304 CURVE",
"581 298 OFFCURVE",
"574 292 OFFCURVE",
"568 289 CURVE",
"548 329 OFFCURVE",
"446 373 OFFCURVE",
"362 373 CURVE SMOOTH",
"281 373 OFFCURVE",
"121 304 OFFCURVE",
"94 176 CURVE SMOOTH",
"67 51 OFFCURVE",
"181 19 OFFCURVE",
"275 19 CURVE SMOOTH",
"442 19 OFFCURVE",
"648 217 OFFCURVE",
"751 351 CURVE SMOOTH",
"798 413 OFFCURVE",
"893 534 OFFCURVE",
"932 594 CURVE SMOOTH",
"939 605 OFFCURVE",
"924 616 OFFCURVE",
"916 604 CURVE SMOOTH",
"878 546 OFFCURVE",
"782 425 OFFCURVE",
"735 363 CURVE SMOOTH",
"632 228 OFFCURVE",
"432 39 OFFCURVE",
"275 39 CURVE SMOOTH",
"-39 39 OFFCURVE",
"152 353 OFFCURVE",
"362 353 CURVE SMOOTH",
"451 353 OFFCURVE",
"546 304 OFFCURVE",
"552 278 CURVE SMOOTH",
"559 251 OFFCURVE",
"605 285 OFFCURVE",
"604 304 CURVE SMOOTH",
"599 390 OFFCURVE",
"438 419 OFFCURVE",
"374 419 CURVE SMOOTH",
"236 419 OFFCURVE",
"59 321 OFFCURVE",
"25 162 CURVE SMOOTH",
"-6 15 OFFCURVE",
"150 -34 OFFCURVE",
"260 -34 CURVE SMOOTH",
"486 -34 OFFCURVE",
"695 150 OFFCURVE",
"808 300 CURVE",
"860 315 OFFCURVE",
"938 315 OFFCURVE",
"996 295 CURVE SMOOTH",
"1216 219 OFFCURVE",
"893 -48 OFFCURVE",
"734 109 CURVE SMOOTH",
"725 118 OFFCURVE",
"711 104 OFFCURVE",
"720 95 CURVE SMOOTH",
"808 7 OFFCURVE",
"1016 29 OFFCURVE",
"1078 168 CURVE SMOOTH"
);
},
{
closed = 1;
nodes = (
"1203 284 OFFCURVE",
"1128 347 OFFCURVE",
"1012 361 CURVE SMOOTH",
"998 363 OFFCURVE",
"996 343 OFFCURVE",
"1009 341 CURVE SMOOTH",
"1120 327 OFFCURVE",
"1179 272 OFFCURVE",
"1151 174 CURVE SMOOTH",
"1095 -22 OFFCURVE",
"783 -29 OFFCURVE",
"671 82 CURVE SMOOTH",
"662 91 OFFCURVE",
"647 77 OFFCURVE",
"657 68 CURVE SMOOTH",
"774 -49 OFFCURVE",
"1108 -48 OFFCURVE",
"1170 168 CURVE SMOOTH"
);
},
{
closed = 1;
nodes = (
"1232 611 OFFCURVE",
"1182 664 OFFCURVE",
"1112 692 CURVE SMOOTH",
"957 753 OFFCURVE",
"490 742 OFFCURVE",
"449 554 CURVE SMOOTH",
"446 538 OFFCURVE",
"449 514 OFFCURVE",
"472 514 CURVE SMOOTH",
"486 514 OFFCURVE",
"497 523 OFFCURVE",
"507 533 CURVE SMOOTH",
"592 619 OFFCURVE",
"765 646 OFFCURVE",
"874 647 CURVE SMOOTH",
"1248 651 OFFCURVE",
"1103 396 OFFCURVE",
"916 390 CURVE SMOOTH",
"903 390 OFFCURVE",
"903 370 OFFCURVE",
"917 370 CURVE SMOOTH",
"1130 377 OFFCURVE",
"1275 671 OFFCURVE",
"874 667 CURVE SMOOTH",
"733 666 OFFCURVE",
"569 625 OFFCURVE",
"500 555 CURVE SMOOTH",
"494 548 OFFCURVE",
"481 534 OFFCURVE",
"472 534 CURVE SMOOTH",
"466 534 OFFCURVE",
"468 547 OFFCURVE",
"469 550 CURVE SMOOTH",
"492 659 OFFCURVE",
"698 708 OFFCURVE",
"890 705 CURVE SMOOTH",
"1001 703 OFFCURVE",
"1230 692 OFFCURVE",
"1193 519 CURVE SMOOTH",
"1182 466 OFFCURVE",
"1139 417 OFFCURVE",
"1094 400 CURVE SMOOTH",
"1082 396 OFFCURVE",
"1089 377 OFFCURVE",
"1101 382 CURVE SMOOTH",
"1153 401 OFFCURVE",
"1199 456 OFFCURVE",
"1212 515 CURVE SMOOTH"
);
},
{
closed = 1;
nodes = (
"1001 592 OFFCURVE",
"985 603 OFFCURVE",
"977 592 CURVE SMOOTH",
"932 523 OFFCURVE",
"873 435 OFFCURVE",
"848 394 CURVE SMOOTH",
"841 383 OFFCURVE",
"858 372 OFFCURVE",
"865 384 CURVE SMOOTH",
"890 425 OFFCURVE",
"949 513 OFFCURVE",
"994 581 CURVE SMOOTH"
);
}
);
width = 1220;
}
);
note = B;
unicode = 0042;
},
{
glyphname = C;
lastChange = "2021-11-10 00:36:21 +0000";
layers = (
{
layerId = "6B4F01CB-8044-4D82-912B-2C5A8D883AAC";
paths = (
{
closed = 1;
nodes = (
"930 716 OFFCURVE",
"822 401 OFFCURVE",
"550 401 CURVE SMOOTH",
"484 401 OFFCURVE",
"386 425 OFFCURVE",
"379 493 CURVE SMOOTH",
"378 506 OFFCURVE",
"358 504 OFFCURVE",
"359 491 CURVE SMOOTH",
"368 404 OFFCURVE",
"487 381 OFFCURVE",
"550 381 CURVE SMOOTH",
"851 381 OFFCURVE",
"956 736 OFFCURVE",
"605 736 CURVE SMOOTH",
"342 736 OFFCURVE",
"8 485 OFFCURVE",
"8 201 CURVE SMOOTH",
"8 59 OFFCURVE",
"103 -29 OFFCURVE",
"242 -29 CURVE SMOOTH",
"371 -29 OFFCURVE",
"510 32 OFFCURVE",
"569 155 CURVE SMOOTH",
"574 166 OFFCURVE",
"591 208 OFFCURVE",
"591 222 CURVE SMOOTH",
"591 243 OFFCURVE",
"582 252 OFFCURVE",
"562 252 CURVE SMOOTH",
"525 252 OFFCURVE",
"519 226 OFFCURVE",
"507 199 CURVE SMOOTH",
"474 123 OFFCURVE",
"338 49 OFFCURVE",
"258 49 CURVE SMOOTH",
"163 49 OFFCURVE",
"107 109 OFFCURVE",
"107 203 CURVE SMOOTH",
"107 417 OFFCURVE",
"391 666 OFFCURVE",
"598 666 CURVE SMOOTH",
"882 666 OFFCURVE",
"736 444 OFFCURVE",
"558 444 CURVE SMOOTH",
"514 444 OFFCURVE",
"423 477 OFFCURVE",
"415 517 CURVE SMOOTH",
"413 530 OFFCURVE",
"393 527 OFFCURVE",
"395 514 CURVE SMOOTH",
"405 456 OFFCURVE",
"515 424 OFFCURVE",
"558 424 CURVE SMOOTH",
"766 424 OFFCURVE",
"908 686 OFFCURVE",
"598 686 CURVE SMOOTH",
"382 686 OFFCURVE",
"87 430 OFFCURVE",
"87 203 CURVE SMOOTH",
"87 98 OFFCURVE",
"151 29 OFFCURVE",
"258 29 CURVE SMOOTH",
"346 29 OFFCURVE",
"461 97 OFFCURVE",
"512 166 CURVE SMOOTH",
"529 190 OFFCURVE",
"531 232 OFFCURVE",
"562 232 CURVE SMOOTH",
"565 232 OFFCURVE",
"568 232 OFFCURVE",
"570 230 CURVE",
"570 230 OFFCURVE",
"571 229 OFFCURVE",
"571 222 CURVE SMOOTH",
"571 213 OFFCURVE",
"556 175 OFFCURVE",
"551 164 CURVE SMOOTH",
"495 50 OFFCURVE",
"366 -9 OFFCURVE",
"242 -9 CURVE SMOOTH",
"113 -9 OFFCURVE",
"28 71 OFFCURVE",
"28 201 CURVE SMOOTH",
"28 470 OFFCURVE",
"350 716 OFFCURVE",
"605 716 CURVE SMOOTH"
);
}
);
width = 720;
}
);
note = C;
unicode = 0043;
},
{
glyphname = D;
lastChange = "2021-11-10 00:36:21 +0000";
layers = (
{
layerId = "6B4F01CB-8044-4D82-912B-2C5A8D883AAC";
paths = (
{
closed = 1;
nodes = (
"856 592 OFFCURVE",
"839 603 OFFCURVE",
"832 592 CURVE SMOOTH",
"787 524 OFFCURVE",
"730 434 OFFCURVE",
"703 395 CURVE SMOOTH",
"524 143 OFFCURVE",
"332 -14 OFFCURVE",
"114 -14 CURVE SMOOTH",
"88 -14 OFFCURVE",
"124 19 OFFCURVE",
"129 19 CURVE SMOOTH",
"297 19 OFFCURVE",
"497 203 OFFCURVE",
"605 351 CURVE SMOOTH",
"651 414 OFFCURVE",
"748 534 OFFCURVE",
"787 594 CURVE SMOOTH",
"794 605 OFFCURVE",
"778 616 OFFCURVE",
"770 604 CURVE SMOOTH",
"732 546 OFFCURVE",
"635 426 OFFCURVE",
"589 363 CURVE SMOOTH",
"481 215 OFFCURVE",
"286 39 OFFCURVE",
"129 39 CURVE SMOOTH",
"98 39 OFFCURVE",
"57 -34 OFFCURVE",
"114 -34 CURVE SMOOTH",
"342 -34 OFFCURVE",
"540 131 OFFCURVE",
"719 383 CURVE SMOOTH",
"747 423 OFFCURVE",
"803 512 OFFCURVE",
"848 581 CURVE SMOOTH"
);
},
{
closed = 1;
nodes = (
"1199 627 OFFCURVE",
"970 737 OFFCURVE",
"712 737 CURVE SMOOTH",
"17 737 OFFCURVE",
"-179 149 OFFCURVE",
"178 149 CURVE SMOOTH",
"267 149 OFFCURVE",
"373 199 OFFCURVE",
"454 290 CURVE SMOOTH",
"498 340 OFFCURVE",
"602 495 OFFCURVE",
"558 563 CURVE SMOOTH",
"544 584 OFFCURVE",
"492 573 OFFCURVE",
"503 543 CURVE SMOOTH",
"513 517 OFFCURVE",
"470 402 OFFCURVE",
"404 328 CURVE SMOOTH",
"346 262 OFFCURVE",
"256 222 OFFCURVE",
"187 222 CURVE SMOOTH",
"106 222 OFFCURVE",
"75 266 OFFCURVE",
"87 325 CURVE SMOOTH",
"117 467 OFFCURVE",
"326 660 OFFCURVE",
"704 660 CURVE SMOOTH",
"916 660 OFFCURVE",
"1080 567 OFFCURVE",
"1035 357 CURVE SMOOTH",
"997 178 OFFCURVE",
"734 -2 OFFCURVE",
"557 111 CURVE SMOOTH",
"546 118 OFFCURVE",
"535 102 OFFCURVE",
"546 95 CURVE SMOOTH",
"740 -29 OFFCURVE",
"1014 166 OFFCURVE",
"1054 353 CURVE SMOOTH",
"1103 583 OFFCURVE",
"919 680 OFFCURVE",
"704 680 CURVE SMOOTH",
"321 680 OFFCURVE",
"101 483 OFFCURVE",
"68 329 CURVE SMOOTH",
"52 256 OFFCURVE",
"95 202 OFFCURVE",
"187 202 CURVE SMOOTH",
"262 202 OFFCURVE",
"358 245 OFFCURVE",
"419 314 CURVE SMOOTH",
"484 388 OFFCURVE",
"537 512 OFFCURVE",
"522 551 CURVE",
"525 554 OFFCURVE",
"539 555 OFFCURVE",
"541 552 CURVE SMOOTH",
"575 499 OFFCURVE",
"488 358 OFFCURVE",
"439 303 CURVE SMOOTH",
"361 216 OFFCURVE",
"260 169 OFFCURVE",
"178 169 CURVE SMOOTH",
"-151 169 OFFCURVE",
"51 717 OFFCURVE",
"712 717 CURVE SMOOTH",
"969 717 OFFCURVE",
"1175 609 OFFCURVE",
"1121 355 CURVE SMOOTH",
"1070 113 OFFCURVE",
"709 -92 OFFCURVE",
"514 73 CURVE SMOOTH",
"504 81 OFFCURVE",
"491 66 OFFCURVE",
"501 57 CURVE SMOOTH",
"713 -122 OFFCURVE",
"1088 101 OFFCURVE",
"1141 351 CURVE SMOOTH"
);
}
);
width = 1159;
}
);
note = D;
unicode = 0044;
},
{
glyphname = E;
lastChange = "2021-11-10 00:36:21 +0000";
layers = (
{
layerId = "6B4F01CB-8044-4D82-912B-2C5A8D883AAC";
paths = (
{
closed = 1;
nodes = (
"707 365 OFFCURVE",
"669 344 OFFCURVE",
"657 340 CURVE SMOOTH",
"562 310 OFFCURVE",
"325 310 OFFCURVE",
"271 311 CURVE SMOOTH",
"270 311 OFFCURVE",
"264 309 OFFCURVE",
"263 308 CURVE SMOOTH",
"231 270 OFFCURVE",
"64 74 OFFCURVE",
"195 51 CURVE SMOOTH",
"258 40 OFFCURVE",
"498 82 OFFCURVE",
"549 102 CURVE SMOOTH",
"563 108 OFFCURVE",
"569 106 OFFCURVE",
"570 105 CURVE",
"575 91 OFFCURVE",
"556 71 OFFCURVE",
"544 67 CURVE SMOOTH",
"433 27 OFFCURVE",
"263 11 OFFCURVE",
"164 11 CURVE SMOOTH",
"102 11 OFFCURVE",
"46 27 OFFCURVE",
"63 91 CURVE SMOOTH",
"79 151 OFFCURVE",
"130 227 OFFCURVE",
"179 288 CURVE SMOOTH",
"187 298 OFFCURVE",
"172 311 OFFCURVE",
"164 300 CURVE SMOOTH",
"98 217 OFFCURVE",
"-75 -9 OFFCURVE",
"164 -9 CURVE SMOOTH",
"264 -9 OFFCURVE",
"437 8 OFFCURVE",
"551 49 CURVE SMOOTH",
"601 67 OFFCURVE",
"611 148 OFFCURVE",
"542 120 CURVE SMOOTH",
"494 101 OFFCURVE",
"257 60 OFFCURVE",
"199 70 CURVE SMOOTH",
"172 75 OFFCURVE",
"160 87 OFFCURVE",
"168 118 CURVE SMOOTH",
"184 179 OFFCURVE",
"228 236 OFFCURVE",
"276 291 CURVE",
"337 290 OFFCURVE",
"566 291 OFFCURVE",
"663 321 CURVE SMOOTH",
"736 344 OFFCURVE",
"746 426 OFFCURVE",
"678 402 CURVE SMOOTH",
"598 374 OFFCURVE",
"405 379 OFFCURVE",
"315 379 CURVE SMOOTH",
"302 379 OFFCURVE",
"302 359 OFFCURVE",
"315 359 CURVE SMOOTH",
"409 359 OFFCURVE",
"601 354 OFFCURVE",
"685 383 CURVE SMOOTH",
"699 388 OFFCURVE",
"703 386 OFFCURVE",
"704 386 CURVE"
);
},
{
closed = 1;
nodes = (
"541 572 OFFCURVE",
"484 621 OFFCURVE",
"446 598 CURVE SMOOTH",
"402 572 OFFCURVE",
"280 434 OFFCURVE",
"239 388 CURVE",
"208 393 OFFCURVE",
"177 397 OFFCURVE",
"144 397 CURVE SMOOTH",
"57 397 OFFCURVE",
"46 303 OFFCURVE",
"146 303 CURVE SMOOTH",
"159 303 OFFCURVE",
"159 323 OFFCURVE",
"146 323 CURVE SMOOTH",
"72 323 OFFCURVE",
"85 377 OFFCURVE",
"144 377 CURVE SMOOTH",
"178 377 OFFCURVE",
"210 372 OFFCURVE",
"241 368 CURVE SMOOTH",
"243 368 OFFCURVE",
"249 370 OFFCURVE",
"250 371 CURVE SMOOTH",
"289 415 OFFCURVE",
"414 556 OFFCURVE",
"456 581 CURVE SMOOTH",
"473 591 OFFCURVE",
"508 572 OFFCURVE",
"488 556 CURVE SMOOTH",
"441 519 OFFCURVE",
"392 457 OFFCURVE",
"346 413 CURVE SMOOTH",
"337 404 OFFCURVE",
"350 390 OFFCURVE",
"360 399 CURVE SMOOTH",
"395 432 OFFCURVE",
"420 459 OFFCURVE",
"441 482 CURVE SMOOTH",
"462 505 OFFCURVE",
"480 524 OFFCURVE",
"501 540 CURVE SMOOTH"
);
},
{
closed = 1;
nodes = (
"796 664 OFFCURVE",
"761 732 OFFCURVE",
"701 694 CURVE SMOOTH",
"680 680 OFFCURVE",
"642 670 OFFCURVE",
"585 673 CURVE SMOOTH",
"451 680 OFFCURVE",
"361 776 OFFCURVE",
"220 764 CURVE SMOOTH",
"45 748 OFFCURVE",
"-82 563 OFFCURVE",
"4 396 CURVE SMOOTH",
"10 384 OFFCURVE",
"28 393 OFFCURVE",
"22 405 CURVE SMOOTH",
"-57 557 OFFCURVE",
"59 729 OFFCURVE",
"222 744 CURVE SMOOTH",
"324 753 OFFCURVE",
"395 703 OFFCURVE",
"485 673 CURVE SMOOTH",
"550 651 OFFCURVE",
"652 639 OFFCURVE",
"712 677 CURVE SMOOTH",
"749 701 OFFCURVE",
"762 668 OFFCURVE",
"728 648 CURVE SMOOTH",
"689 625 OFFCURVE",
"634 612 OFFCURVE",
"567 616 CURVE SMOOTH",
"439 625 OFFCURVE",
"354 714 OFFCURVE",
"213 701 CURVE SMOOTH",
"77 689 OFFCURVE",
"0 542 OFFCURVE",
"63 403 CURVE SMOOTH",
"68 391 OFFCURVE",
"86 399 OFFCURVE",
"81 411 CURVE SMOOTH",
"22 540 OFFCURVE",
"95 670 OFFCURVE",
"215 681 CURVE SMOOTH",
"315 690 OFFCURVE",
"384 644 OFFCURVE",
"473 615 CURVE SMOOTH",
"557 587 OFFCURVE",
"659 585 OFFCURVE",
"738 631 CURVE SMOOTH"
);
}
);
width = 733;
}
);
note = E;
unicode = 0045;
},
{
glyphname = F;
lastChange = "2021-11-10 00:36:21 +0000";
layers = (
{
layerId = "6B4F01CB-8044-4D82-912B-2C5A8D883AAC";
paths = (
{
closed = 1;
nodes = (
"1049 368 OFFCURVE",
"1018 345 OFFCURVE",
"1006 340 CURVE SMOOTH",
"939 310 OFFCURVE",
"772 310 OFFCURVE",
"733 311 CURVE SMOOTH",
"723 311 OFFCURVE",
"706 278 OFFCURVE",
"664 232 CURVE SMOOTH",
"576 140 OFFCURVE",
"412 -2 OFFCURVE",
"205 -2 CURVE SMOOTH",
"126 -2 OFFCURVE",
"39 32 OFFCURVE",
"57 115 CURVE SMOOTH",
"78 215 OFFCURVE",
"212 283 OFFCURVE",
"337 283 CURVE SMOOTH",
"371 283 OFFCURVE",
"456 272 OFFCURVE",
"489 241 CURVE SMOOTH",
"518 214 OFFCURVE",
"493 173 OFFCURVE",
"459 205 CURVE SMOOTH",
"439 224 OFFCURVE",
"398 253 OFFCURVE",
"334 253 CURVE SMOOTH",
"108 253 OFFCURVE",
"18 35 OFFCURVE",
"231 35 CURVE SMOOTH",
"333 35 OFFCURVE",
"504 120 OFFCURVE",
"624 266 CURVE SMOOTH",
"632 276 OFFCURVE",
"617 289 OFFCURVE",
"608 278 CURVE SMOOTH",
"490 136 OFFCURVE",
"325 55 OFFCURVE",
"231 55 CURVE SMOOTH",
"42 55 OFFCURVE",
"142 233 OFFCURVE",
"334 233 CURVE SMOOTH",
"391 233 OFFCURVE",
"428 207 OFFCURVE",
"445 191 CURVE SMOOTH",
"498 141 OFFCURVE",
"552 210 OFFCURVE",
"503 256 CURVE SMOOTH",
"463 293 OFFCURVE",
"371 303 OFFCURVE",
"337 303 CURVE SMOOTH",
"209 303 OFFCURVE",
"61 234 OFFCURVE",
"37 119 CURVE SMOOTH",
"14 12 OFFCURVE",
"129 -22 OFFCURVE",
"205 -22 CURVE SMOOTH",
"330 -22 OFFCURVE",
"538 36 OFFCURVE",
"738 291 CURVE",
"783 290 OFFCURVE",
"945 291 OFFCURVE",
"1014 322 CURVE SMOOTH",
"1082 352 OFFCURVE",
"1078 429 OFFCURVE",
"1021 402 CURVE SMOOTH",
"949 367 OFFCURVE",
"866 375 OFFCURVE",
"789 375 CURVE SMOOTH",
"776 375 OFFCURVE",
"776 355 OFFCURVE",
"789 355 CURVE SMOOTH",
"869 355 OFFCURVE",
"955 347 OFFCURVE",
"1030 384 CURVE SMOOTH",
"1041 389 OFFCURVE",
"1044 387 OFFCURVE",
"1044 387 CURVE"
);
},
{
closed = 1;
nodes = (
"890 592 OFFCURVE",
"874 605 OFFCURVE",
"866 594 CURVE SMOOTH",
"837 557 OFFCURVE",
"756 456 OFFCURVE",
"693 376 CURVE",
"625 384 OFFCURVE",
"561 411 OFFCURVE",
"491 404 CURVE SMOOTH",
"446 400 OFFCURVE",
"455 336 OFFCURVE",
"474 322 CURVE SMOOTH",
"505 299 OFFCURVE",
"608 297 OFFCURVE",
"647 294 CURVE SMOOTH",
"661 293 OFFCURVE",
"662 313 OFFCURVE",
"649 314 CURVE SMOOTH",
"616 317 OFFCURVE",
"511 320 OFFCURVE",
"486 338 CURVE SMOOTH",
"471 349 OFFCURVE",
"478 383 OFFCURVE",
"493 384 CURVE SMOOTH",
"527 387 OFFCURVE",
"566 381 OFFCURVE",
"603 374 CURVE SMOOTH",
"611 372 OFFCURVE",
"697 349 OFFCURVE",
"706 360 CURVE SMOOTH",
"768 440 OFFCURVE",
"852 544 OFFCURVE",
"882 582 CURVE SMOOTH"
);
},
{
closed = 1;
nodes = (
"1064 624 OFFCURVE",
"1046 647 OFFCURVE",
"1021 665 CURVE SMOOTH",
"929 729 OFFCURVE",
"719 755 OFFCURVE",
"615 755 CURVE SMOOTH",
"531 755 OFFCURVE",
"352 748 OFFCURVE",
"245 687 CURVE SMOOTH",
"193 657 OFFCURVE",
"139 604 OFFCURVE",
"139 540 CURVE SMOOTH",
"139 459 OFFCURVE",
"205 469 OFFCURVE",
"205 520 CURVE SMOOTH",
"205 559 OFFCURVE",
"240 600 OFFCURVE",
"274 623 CURVE SMOOTH",
"405 710 OFFCURVE",
"760 704 OFFCURVE",
"890 621 CURVE SMOOTH",
"901 614 OFFCURVE",
"912 630 OFFCURVE",
"900 637 CURVE SMOOTH",
"765 724 OFFCURVE",
"401 731 OFFCURVE",
"262 639 CURVE SMOOTH",
"227 616 OFFCURVE",
"185 570 OFFCURVE",
"185 520 CURVE SMOOTH",
"185 492 OFFCURVE",
"159 490 OFFCURVE",
"159 540 CURVE SMOOTH",
"159 593 OFFCURVE",
"204 640 OFFCURVE",
"255 669 CURVE SMOOTH",
"357 728 OFFCURVE",
"530 735 OFFCURVE",
"615 735 CURVE SMOOTH",
"707 735 OFFCURVE",
"820 719 OFFCURVE",
"906 693 CURVE SMOOTH",
"932 685 OFFCURVE",
"1050 648 OFFCURVE",
"1038 602 CURVE SMOOTH",
"1033 584 OFFCURVE",
"1022 581 OFFCURVE",
"1009 583 CURVE SMOOTH",
"984 587 OFFCURVE",
"962 615 OFFCURVE",
"952 602 CURVE",
"952 602 OFFCURVE",
"833 450 OFFCURVE",
"804 411 CURVE SMOOTH",
"796 400 OFFCURVE",
"812 388 OFFCURVE",
"820 399 CURVE SMOOTH",
"845 433 OFFCURVE",
"937 551 OFFCURVE",
"961 582 CURVE",
"992 562 OFFCURVE",
"1043 545 OFFCURVE",
"1057 597 CURVE SMOOTH"
);
}
);
width = 990;
}
);
note = F;
unicode = 0046;
},
{
glyphname = G;
lastChange = "2021-11-10 00:36:21 +0000";
layers = (
{
layerId = "6B4F01CB-8044-4D82-912B-2C5A8D883AAC";
paths = (
{
closed = 1;
nodes = (
"832 406 OFFCURVE",
"759 434 OFFCURVE",
"718 387 CURVE SMOOTH",
"610 261 OFFCURVE",
"421 49 OFFCURVE",
"258 49 CURVE SMOOTH",
"163 49 OFFCURVE",
"107 109 OFFCURVE",
"107 203 CURVE SMOOTH",
"107 417 OFFCURVE",
"391 666 OFFCURVE",
"598 666 CURVE SMOOTH",
"882 666 OFFCURVE",
"736 444 OFFCURVE",
"558 444 CURVE SMOOTH",
"514 444 OFFCURVE",
"423 477 OFFCURVE",
"415 517 CURVE SMOOTH",
"413 530 OFFCURVE",
"393 527 OFFCURVE",
"395 514 CURVE SMOOTH",
"405 456 OFFCURVE",
"515 424 OFFCURVE",
"558 424 CURVE SMOOTH",
"766 424 OFFCURVE",
"908 686 OFFCURVE",
"598 686 CURVE SMOOTH",
"382 686 OFFCURVE",
"87 430 OFFCURVE",
"87 203 CURVE SMOOTH",
"87 98 OFFCURVE",
"151 29 OFFCURVE",
"258 29 CURVE SMOOTH",
"433 29 OFFCURVE",
"628 251 OFFCURVE",
"734 373 CURVE SMOOTH",
"747 389 OFFCURVE",
"765 392 OFFCURVE",
"774 386 CURVE SMOOTH",
"782 381 OFFCURVE",
"791 363 OFFCURVE",
"771 319 CURVE SMOOTH",
"707 180 OFFCURVE",
"528 -79 OFFCURVE",
"379 -197 CURVE SMOOTH",
"328 -238 OFFCURVE",
"252 -267 OFFCURVE",
"190 -268 CURVE SMOOTH",
"130 -269 OFFCURVE",
"87 -244 OFFCURVE",
"91 -178 CURVE SMOOTH",
"93 -138 OFFCURVE",
"118 -123 OFFCURVE",
"133 -177 CURVE SMOOTH",
"151 -240 OFFCURVE",
"205 -236 OFFCURVE",
"251 -217 CURVE SMOOTH",
"396 -156 OFFCURVE",
"584 87 OFFCURVE",
"668 212 CURVE SMOOTH",
"675 223 OFFCURVE",
"659 234 OFFCURVE",
"651 223 CURVE SMOOTH",
"601 148 OFFCURVE",
"473 -22 OFFCURVE",
"354 -125 CURVE SMOOTH",
"319 -156 OFFCURVE",
"179 -267 OFFCURVE",
"152 -171 CURVE SMOOTH",
"138 -119 OFFCURVE",
"76 -92 OFFCURVE",
"71 -176 CURVE SMOOTH",
"67 -259 OFFCURVE",
"124 -289 OFFCURVE",
"191 -288 CURVE SMOOTH",
"257 -287 OFFCURVE",
"337 -256 OFFCURVE",
"391 -213 CURVE SMOOTH",
"544 -92 OFFCURVE",
"724 169 OFFCURVE",
"789 311 CURVE SMOOTH"
);
},
{
closed = 1;
nodes = (
"930 716 OFFCURVE",
"822 401 OFFCURVE",
"550 401 CURVE SMOOTH",
"484 401 OFFCURVE",
"386 425 OFFCURVE",
"379 493 CURVE SMOOTH",
"378 506 OFFCURVE",
"358 504 OFFCURVE",
"359 491 CURVE SMOOTH",
"368 404 OFFCURVE",
"487 381 OFFCURVE",
"550 381 CURVE SMOOTH",
"851 381 OFFCURVE",
"956 736 OFFCURVE",
"605 736 CURVE SMOOTH",
"342 736 OFFCURVE",
"8 485 OFFCURVE",
"8 201 CURVE SMOOTH",
"8 59 OFFCURVE",
"103 -29 OFFCURVE",
"242 -29 CURVE SMOOTH",
"336 -29 OFFCURVE",
"436 4 OFFCURVE",
"506 69 CURVE SMOOTH",
"516 78 OFFCURVE",
"502 93 OFFCURVE",
"492 84 CURVE SMOOTH",
"427 22 OFFCURVE",
"332 -9 OFFCURVE",
"242 -9 CURVE SMOOTH",
"113 -9 OFFCURVE",
"28 71 OFFCURVE",
"28 201 CURVE SMOOTH",
"28 470 OFFCURVE",
"350 716 OFFCURVE",
"605 716 CURVE SMOOTH"
);
}
);
width = 733;
}
);
note = G;
unicode = 0047;
},
{
glyphname = H;
lastChange = "2021-11-10 00:36:21 +0000";
layers = (
{
layerId = "6B4F01CB-8044-4D82-912B-2C5A8D883AAC";
paths = (
{
closed = 1;
nodes = (
"1064 624 OFFCURVE",
"1046 647 OFFCURVE",
"1021 665 CURVE SMOOTH",
"929 729 OFFCURVE",
"719 755 OFFCURVE",
"615 755 CURVE SMOOTH",
"531 755 OFFCURVE",
"352 748 OFFCURVE",
"245 687 CURVE SMOOTH",
"193 657 OFFCURVE",
"139 604 OFFCURVE",
"139 540 CURVE SMOOTH",
"139 459 OFFCURVE",
"205 469 OFFCURVE",
"205 520 CURVE SMOOTH",
"205 559 OFFCURVE",
"240 600 OFFCURVE",
"274 623 CURVE SMOOTH",
"402 708 OFFCURVE",
"745 703 OFFCURVE",
"881 626 CURVE",
"772 460 OFFCURVE",
"479 40 OFFCURVE",
"277 22 CURVE SMOOTH",
"-31 -6 OFFCURVE",
"2 312 OFFCURVE",
"338 342 CURVE SMOOTH",
"414 349 OFFCURVE",
"471 329 OFFCURVE",
"511 309 CURVE SMOOTH",
"535 297 OFFCURVE",
"555 282 OFFCURVE",
"578 270 CURVE SMOOTH",
"602 257 OFFCURVE",
"619 276 OFFCURVE",
"615 300 CURVE SMOOTH",
"600 403 OFFCURVE",
"389 414 OFFCURVE",
"313 407 CURVE SMOOTH",
"132 391 OFFCURVE",
"-43 277 OFFCURVE",
"-19 117 CURVE SMOOTH",
"2 -27 OFFCURVE",
"171 -61 OFFCURVE",
"282 -51 CURVE SMOOTH",
"460 -36 OFFCURVE",
"676 189 OFFCURVE",
"755 294 CURVE SMOOTH",
"763 305 OFFCURVE",
"747 317 OFFCURVE",
"739 306 CURVE SMOOTH",
"660 200 OFFCURVE",
"449 -16 OFFCURVE",
"280 -31 CURVE SMOOTH",
"169 -41 OFFCURVE",
"18 -5 OFFCURVE",
"0 120 CURVE SMOOTH",
"-21 261 OFFCURVE",
"135 372 OFFCURVE",
"315 387 CURVE SMOOTH",
"379 393 OFFCURVE",
"582 384 OFFCURVE",
"595 297 CURVE SMOOTH",
"595 295 OFFCURVE",
"596 286 OFFCURVE",
"592 286 CURVE",
"585 288 OFFCURVE",
"578 293 OFFCURVE",
"572 297 CURVE SMOOTH",
"497 345 OFFCURVE",
"429 370 OFFCURVE",
"336 362 CURVE SMOOTH",
"-29 329 OFFCURVE",
"-55 -28 OFFCURVE",
"278 2 CURVE SMOOTH",
"494 21 OFFCURVE",
"789 451 OFFCURVE",
"903 623 CURVE SMOOTH",
"906 628 OFFCURVE",
"905 635 OFFCURVE",
"900 637 CURVE",
"765 724 OFFCURVE",
"401 731 OFFCURVE",
"262 639 CURVE SMOOTH",
"227 616 OFFCURVE",
"185 570 OFFCURVE",
"185 520 CURVE SMOOTH",
"185 492 OFFCURVE",
"159 490 OFFCURVE",
"159 540 CURVE SMOOTH",
"159 593 OFFCURVE",
"204 640 OFFCURVE",
"255 669 CURVE SMOOTH",
"357 728 OFFCURVE",
"530 735 OFFCURVE",
"615 735 CURVE SMOOTH",
"707 735 OFFCURVE",
"820 719 OFFCURVE",
"906 693 CURVE SMOOTH",
"932 685 OFFCURVE",
"1050 648 OFFCURVE",
"1038 602 CURVE SMOOTH",
"1033 584 OFFCURVE",
"1022 581 OFFCURVE",
"1009 583 CURVE SMOOTH",
"984 587 OFFCURVE",
"961 616 OFFCURVE",
"951 601 CURVE",
"951 601 OFFCURVE",
"862 461 OFFCURVE",
"804 379 CURVE SMOOTH",
"798 371 OFFCURVE",
"802 363 OFFCURVE",
"812 363 CURVE SMOOTH",
"995 363 LINE SMOOTH",
"1008 363 OFFCURVE",
"1008 383 OFFCURVE",
"995 383 CURVE SMOOTH",
"831 383 LINE",
"880 453 OFFCURVE",
"943 552 OFFCURVE",
"962 582 CURVE",
"993 561 OFFCURVE",
"1043 545 OFFCURVE",
"1057 597 CURVE SMOOTH"
);
},
{
closed = 1;
nodes = (
"1153 62 OFFCURVE",
"1142 79 OFFCURVE",
"1131 72 CURVE SMOOTH",
"1084 41 OFFCURVE",
"1032 15 OFFCURVE",
"983 15 CURVE SMOOTH",
"822 15 OFFCURVE",
"917 226 OFFCURVE",
"961 293 CURVE SMOOTH",
"966 301 OFFCURVE",
"963 308 OFFCURVE",
"953 308 CURVE SMOOTH",
"804 309 LINE SMOOTH",
"791 309 OFFCURVE",
"791 289 OFFCURVE",
"804 289 CURVE SMOOTH",
"935 289 LINE",
"888 207 OFFCURVE",
"805 -5 OFFCURVE",
"983 -5 CURVE SMOOTH",
"1038 -5 OFFCURVE",
"1094 24 OFFCURVE",
"1142 55 CURVE SMOOTH"
);
},
{
closed = 1;
nodes = (
"1496 833 OFFCURVE",
"1349 755 OFFCURVE",
"1323 738 CURVE SMOOTH",
"1234 678 OFFCURVE",
"1125 561 OFFCURVE",
"1016 406 CURVE SMOOTH",
"1008 395 OFFCURVE",
"1025 383 OFFCURVE",
"1032 394 CURVE SMOOTH",
"1141 549 OFFCURVE",
"1248 663 OFFCURVE",
"1335 722 CURVE SMOOTH",
"1386 757 OFFCURVE",
"1435 765 OFFCURVE",
"1459 769 CURVE SMOOTH",
"1494 774 OFFCURVE",
"1506 732 OFFCURVE",
"1465 726 CURVE SMOOTH",
"1303 703 OFFCURVE",
"1100 405 OFFCURVE",
"1026 280 CURVE SMOOTH",
"1001 238 OFFCURVE",
"908 70 OFFCURVE",
"1025 70 CURVE SMOOTH",
"1090 70 OFFCURVE",
"1178 113 OFFCURVE",
"1230 187 CURVE SMOOTH",
"1236 195 OFFCURVE",
"1222 210 OFFCURVE",
"1214 199 CURVE SMOOTH",
"1164 129 OFFCURVE",
"1081 90 OFFCURVE",
"1025 90 CURVE SMOOTH",
"937 90 OFFCURVE",
"1026 240 OFFCURVE",
"1043 270 CURVE SMOOTH",
"1119 399 OFFCURVE",
"1317 685 OFFCURVE",
"1467 706 CURVE SMOOTH",
"1499 711 OFFCURVE",
"1514 733 OFFCURVE",
"1510 755 CURVE SMOOTH"
);
}
);
width = 1222;
}
);
note = H;
unicode = 0048;
},
{
glyphname = I;
lastChange = "2021-11-10 00:36:21 +0000";
layers = (
{
layerId = "6B4F01CB-8044-4D82-912B-2C5A8D883AAC";
paths = (
{
closed = 1;
nodes = (
"1091 725 OFFCURVE",
"673 835 OFFCURVE",
"549 689 CURVE SMOOTH",
"522 657 OFFCURVE",
"495 603 OFFCURVE",
"495 539 CURVE SMOOTH",
"495 454 OFFCURVE",
"566 461 OFFCURVE",
"566 514 CURVE SMOOTH",
"566 608 OFFCURVE",
"619 669 OFFCURVE",
"714 669 CURVE SMOOTH",
"773 669 OFFCURVE",
"839 648 OFFCURVE",
"881 626 CURVE",
"772 460 OFFCURVE",
"479 40 OFFCURVE",
"277 22 CURVE SMOOTH",
"-31 -6 OFFCURVE",
"2 312 OFFCURVE",
"338 342 CURVE SMOOTH",
"414 349 OFFCURVE",
"471 329 OFFCURVE",
"511 309 CURVE SMOOTH",
"535 297 OFFCURVE",
"555 282 OFFCURVE",
"578 270 CURVE SMOOTH",
"602 257 OFFCURVE",
"618 276 OFFCURVE",
"615 300 CURVE SMOOTH",
"600 402 OFFCURVE",
"390 425 OFFCURVE",
"312 418 CURVE SMOOTH",
"130 402 OFFCURVE",
"-43 277 OFFCURVE",
"-19 117 CURVE SMOOTH",
"2 -27 OFFCURVE",
"171 -61 OFFCURVE",
"282 -51 CURVE SMOOTH",
"461 -36 OFFCURVE",
"725 166 OFFCURVE",
"944 548 CURVE SMOOTH",
"951 560 OFFCURVE",
"933 570 OFFCURVE",
"926 558 CURVE SMOOTH",
"708 178 OFFCURVE",
"449 -16 OFFCURVE",
"280 -31 CURVE SMOOTH",
"169 -41 OFFCURVE",
"18 -5 OFFCURVE",
"0 120 CURVE SMOOTH",
"-21 261 OFFCURVE",
"135 382 OFFCURVE",
"314 398 CURVE SMOOTH",
"380 404 OFFCURVE",
"582 384 OFFCURVE",
"595 297 CURVE SMOOTH",
"595 295 OFFCURVE",
"596 286 OFFCURVE",
"592 286 CURVE",
"585 288 OFFCURVE",
"578 293 OFFCURVE",
"572 297 CURVE SMOOTH",
"497 345 OFFCURVE",
"429 370 OFFCURVE",
"336 362 CURVE SMOOTH",
"-29 329 OFFCURVE",
"-55 -28 OFFCURVE",
"278 2 CURVE SMOOTH",
"494 21 OFFCURVE",
"789 451 OFFCURVE",
"903 623 CURVE SMOOTH",
"906 628 OFFCURVE",
"905 635 OFFCURVE",
"900 638 CURVE SMOOTH",
"857 663 OFFCURVE",
"782 689 OFFCURVE",
"714 689 CURVE SMOOTH",
"607 689 OFFCURVE",
"546 618 OFFCURVE",
"546 514 CURVE SMOOTH",
"546 484 OFFCURVE",
"515 485 OFFCURVE",
"515 539 CURVE SMOOTH",
"515 597 OFFCURVE",
"540 647 OFFCURVE",
"565 677 CURVE SMOOTH",
"678 809 OFFCURVE",
"1065 703 OFFCURVE",
"1038 602 CURVE SMOOTH",
"1028 564 OFFCURVE",
"984 590 OFFCURVE",
"965 604 CURVE SMOOTH",
"955 612 OFFCURVE",
"943 596 OFFCURVE",
"953 588 CURVE SMOOTH",
"984 565 OFFCURVE",
"1042 541 OFFCURVE",
"1057 597 CURVE SMOOTH"
);
}
);
width = 913;
}
);
note = I;
unicode = 0049;
},
{
glyphname = J;
lastChange = "2021-11-10 00:36:21 +0000";
layers = (
{
layerId = "6B4F01CB-8044-4D82-912B-2C5A8D883AAC";
paths = (
{
closed = 1;
nodes = (
"1091 725 OFFCURVE",
"673 835 OFFCURVE",
"549 689 CURVE SMOOTH",
"522 657 OFFCURVE",
"495 603 OFFCURVE",
"495 539 CURVE SMOOTH",
"495 454 OFFCURVE",
"566 461 OFFCURVE",
"566 514 CURVE SMOOTH",
"566 608 OFFCURVE",
"619 669 OFFCURVE",
"714 669 CURVE SMOOTH",
"773 669 OFFCURVE",
"839 648 OFFCURVE",
"881 625 CURVE",
"745 416 OFFCURVE",
"606 203 OFFCURVE",
"435 20 CURVE SMOOTH",
"10 -436 OFFCURVE",
"-250 115 OFFCURVE",
"239 158 CURVE SMOOTH",
"302 164 OFFCURVE",
"358 160 OFFCURVE",
"404 118 CURVE SMOOTH",
"444 82 OFFCURVE",
"465 140 OFFCURVE",
"458 152 CURVE SMOOTH",
"418 224 OFFCURVE",
"281 244 OFFCURVE",
"217 238 CURVE SMOOTH",
"-445 179 OFFCURVE",
"-81 -603 OFFCURVE",
"500 -52 CURVE SMOOTH",
"659 99 OFFCURVE",
"818 327 OFFCURVE",
"944 548 CURVE SMOOTH",
"951 560 OFFCURVE",
"933 570 OFFCURVE",
"926 558 CURVE SMOOTH",
"800 338 OFFCURVE",
"643 111 OFFCURVE",
"486 -38 CURVE SMOOTH",
"-66 -562 OFFCURVE",
"-408 162 OFFCURVE",
"219 218 CURVE SMOOTH",
"282 224 OFFCURVE",
"405 202 OFFCURVE",
"440 143 CURVE",
"439 142 LINE",
"438 137 OFFCURVE",
"431 126 OFFCURVE",
"426 126 CURVE",
"424 127 OFFCURVE",
"421 130 OFFCURVE",
"418 133 CURVE SMOOTH",
"366 179 OFFCURVE",
"306 183 OFFCURVE",
"237 177 CURVE SMOOTH",
"-288 130 OFFCURVE",
"-3 -479 OFFCURVE",
"449 6 CURVE SMOOTH",
"553 117 OFFCURVE",
"659 260 OFFCURVE",
"742 380 CURVE SMOOTH",
"826 501 OFFCURVE",
"887 599 OFFCURVE",
"903 623 CURVE SMOOTH",
"906 628 OFFCURVE",
"905 635 OFFCURVE",
"900 638 CURVE SMOOTH",
"857 663 OFFCURVE",
"782 689 OFFCURVE",
"714 689 CURVE SMOOTH",
"607 689 OFFCURVE",
"546 618 OFFCURVE",
"546 514 CURVE SMOOTH",
"546 484 OFFCURVE",
"515 485 OFFCURVE",
"515 539 CURVE SMOOTH",
"515 597 OFFCURVE",
"540 647 OFFCURVE",
"565 677 CURVE SMOOTH",
"678 809 OFFCURVE",
"1065 703 OFFCURVE",
"1038 602 CURVE SMOOTH",
"1028 564 OFFCURVE",
"984 590 OFFCURVE",
"965 604 CURVE SMOOTH",
"955 612 OFFCURVE",
"943 596 OFFCURVE",
"953 588 CURVE SMOOTH",
"984 565 OFFCURVE",
"1042 541 OFFCURVE",
"1057 597 CURVE SMOOTH"
);
}
);
width = 808;
}
);
note = J;
unicode = 004A;
},
{
glyphname = K;
lastChange = "2021-11-10 00:36:21 +0000";
layers = (
{
layerId = "6B4F01CB-8044-4D82-912B-2C5A8D883AAC";
paths = (
{
closed = 1;
nodes = (
"836 775 OFFCURVE",
"652 786 OFFCURVE",
"570 689 CURVE SMOOTH",
"543 657 OFFCURVE",
"516 603 OFFCURVE",
"516 539 CURVE SMOOTH",
"516 454 OFFCURVE",
"587 461 OFFCURVE",
"587 514 CURVE SMOOTH",
"587 608 OFFCURVE",
"640 669 OFFCURVE",
"735 669 CURVE SMOOTH",
"794 669 OFFCURVE",
"860 648 OFFCURVE",
"902 626 CURVE",
"793 460 OFFCURVE",
"500 40 OFFCURVE",
"298 22 CURVE SMOOTH",
"-10 -6 OFFCURVE",
"23 312 OFFCURVE",
"359 342 CURVE SMOOTH",
"435 349 OFFCURVE",
"492 329 OFFCURVE",
"532 309 CURVE SMOOTH",
"556 297 OFFCURVE",
"576 282 OFFCURVE",
"599 270 CURVE SMOOTH",
"623 257 OFFCURVE",
"639 276 OFFCURVE",
"636 300 CURVE SMOOTH",
"621 402 OFFCURVE",
"411 425 OFFCURVE",
"333 418 CURVE SMOOTH",
"151 402 OFFCURVE",
"-22 277 OFFCURVE",
"2 117 CURVE SMOOTH",
"23 -27 OFFCURVE",
"192 -61 OFFCURVE",
"303 -51 CURVE SMOOTH",
"482 -36 OFFCURVE",
"746 166 OFFCURVE",
"965 548 CURVE SMOOTH",
"972 560 OFFCURVE",
"954 570 OFFCURVE",
"947 558 CURVE SMOOTH",
"729 178 OFFCURVE",
"470 -16 OFFCURVE",
"301 -31 CURVE SMOOTH",
"190 -41 OFFCURVE",
"39 -5 OFFCURVE",
"21 120 CURVE SMOOTH",
"0 261 OFFCURVE",
"156 382 OFFCURVE",
"335 398 CURVE SMOOTH",
"401 404 OFFCURVE",
"603 384 OFFCURVE",
"616 297 CURVE SMOOTH",
"616 295 OFFCURVE",
"617 286 OFFCURVE",
"613 286 CURVE",
"606 288 OFFCURVE",
"599 293 OFFCURVE",
"593 297 CURVE SMOOTH",
"518 345 OFFCURVE",
"450 370 OFFCURVE",
"357 362 CURVE SMOOTH",
"-8 329 OFFCURVE",
"-34 -28 OFFCURVE",
"299 2 CURVE SMOOTH",
"515 21 OFFCURVE",
"810 451 OFFCURVE",
"924 623 CURVE SMOOTH",
"927 628 OFFCURVE",
"926 635 OFFCURVE",
"921 638 CURVE SMOOTH",
"878 663 OFFCURVE",
"803 689 OFFCURVE",
"735 689 CURVE SMOOTH",
"628 689 OFFCURVE",
"567 618 OFFCURVE",
"567 514 CURVE SMOOTH",
"567 484 OFFCURVE",
"536 485 OFFCURVE",
"536 539 CURVE SMOOTH",
"536 597 OFFCURVE",
"561 647 OFFCURVE",
"586 677 CURVE SMOOTH",
"658 761 OFFCURVE",
"828 757 OFFCURVE",
"1013 670 CURVE SMOOTH",
"1078 639 OFFCURVE",
"999 596 OFFCURVE",
"986 605 CURVE SMOOTH",
"974 612 OFFCURVE",
"964 595 OFFCURVE",
"975 588 CURVE SMOOTH",
"1013 564 OFFCURVE",
"1112 645 OFFCURVE",
"1021 688 CURVE SMOOTH"
);
},
{
closed = 1;
nodes = (
"1601 734 OFFCURVE",
"1528 758 OFFCURVE",
"1443 758 CURVE SMOOTH",
"1266 758 OFFCURVE",
"730 339 OFFCURVE",
"788 155 CURVE SMOOTH",
"822 46 OFFCURVE",
"915 -91 OFFCURVE",
"1087 -91 CURVE SMOOTH",
"1202 -91 OFFCURVE",
"1275 -31 OFFCURVE",
"1352 42 CURVE SMOOTH",
"1362 51 OFFCURVE",
"1348 65 OFFCURVE",
"1338 56 CURVE SMOOTH",
"1265 -12 OFFCURVE",
"1196 -71 OFFCURVE",
"1087 -71 CURVE SMOOTH",
"927 -71 OFFCURVE",
"840 56 OFFCURVE",
"807 161 CURVE SMOOTH",
"756 323 OFFCURVE",
"1268 738 OFFCURVE",
"1443 738 CURVE SMOOTH",
"1529 738 OFFCURVE",
"1587 714 OFFCURVE",
"1599 683 CURVE SMOOTH",
"1603 671 OFFCURVE",
"1598 665 OFFCURVE",
"1587 661 CURVE SMOOTH",
"1549 649 OFFCURVE",
"1517 689 OFFCURVE",
"1459 689 CURVE SMOOTH",
"1355 689 OFFCURVE",
"1162 554 OFFCURVE",
"1026 422 CURVE SMOOTH",
"939 337 OFFCURVE",
"875 255 OFFCURVE",
"875 208 CURVE SMOOTH",
"875 206 LINE SMOOTH",
"875 106 OFFCURVE",
"986 -26 OFFCURVE",
"1089 -26 CURVE SMOOTH",
"1198 -26 OFFCURVE",
"1336 104 OFFCURVE",
"1397 187 CURVE SMOOTH",
"1405 197 OFFCURVE",
"1389 211 OFFCURVE",
"1381 199 CURVE SMOOTH",
"1326 123 OFFCURVE",
"1188 -6 OFFCURVE",
"1089 -6 CURVE SMOOTH",
"1000 -6 OFFCURVE",
"907 114 OFFCURVE",
"895 207 CURVE",
"902 248 OFFCURVE",
"960 326 OFFCURVE",
"1039 404 CURVE SMOOTH",
"1170 534 OFFCURVE",
"1359 669 OFFCURVE",
"1459 669 CURVE SMOOTH",
"1484 669 OFFCURVE",
"1530 652 OFFCURVE",
"1547 643 CURVE SMOOTH",
"1576 627 OFFCURVE",
"1634 647 OFFCURVE",
"1617 691 CURVE SMOOTH"
);
}
);
width = 1389;
}
);
note = K;
unicode = 004B;
},
{
glyphname = L;
lastChange = "2021-11-10 00:36:21 +0000";
layers = (
{
layerId = "6B4F01CB-8044-4D82-912B-2C5A8D883AAC";
paths = (
{
closed = 1;
nodes = (
"1013 108 OFFCURVE",
"999 122 OFFCURVE",
"989 113 CURVE SMOOTH",
"979 103 OFFCURVE",
"967 90 OFFCURVE",
"952 75 CURVE SMOOTH",
"885 11 OFFCURVE",
"811 -19 OFFCURVE",
"715 -19 CURVE SMOOTH",
"635 -19 OFFCURVE",
"561 16 OFFCURVE",
"483 56 CURVE SMOOTH",
"471 62 OFFCURVE",
"462 45 OFFCURVE",
"473 38 CURVE",
"551 -2 OFFCURVE",
"630 -39 OFFCURVE",
"715 -39 CURVE SMOOTH",
"802 -39 OFFCURVE",
"863 -15 OFFCURVE",
"909 15 CURVE SMOOTH",
"945 38 OFFCURVE",
"972 69 OFFCURVE",
"1003 99 CURVE SMOOTH"
);
},
{
closed = 1;
nodes = (
"1017 196 OFFCURVE",
"1002 209 OFFCURVE",
"994 199 CURVE SMOOTH",
"909 90 OFFCURVE",
"848 41 OFFCURVE",
"725 41 CURVE SMOOTH",
"662 41 OFFCURVE",
"598 66 OFFCURVE",
"532 97 CURVE SMOOTH",
"520 103 OFFCURVE",
"512 85 OFFCURVE",
"524 79 CURVE SMOOTH",
"590 48 OFFCURVE",
"658 21 OFFCURVE",
"725 21 CURVE SMOOTH",
"858 21 OFFCURVE",
"924 77 OFFCURVE",
"1009 186 CURVE SMOOTH"
);
},
{
closed = 1;
nodes = (
"1040 750 OFFCURVE",
"1005 760 OFFCURVE",
"965 745 CURVE SMOOTH",
"873 710 OFFCURVE",
"750 472 OFFCURVE",
"703 386 CURVE SMOOTH",
"628 250 OFFCURVE",
"476 38 OFFCURVE",
"324 -5 CURVE SMOOTH",
"217 -36 OFFCURVE",
"57 -29 OFFCURVE",
"23 91 CURVE SMOOTH",
"5 153 OFFCURVE",
"82 223 OFFCURVE",
"232 200 CURVE SMOOTH",
"292 191 OFFCURVE",
"350 165 OFFCURVE",
"412 134 CURVE SMOOTH",
"424 128 OFFCURVE",
"433 146 OFFCURVE",
"421 152 CURVE SMOOTH",
"359 183 OFFCURVE",
"298 210 OFFCURVE",
"234 220 CURVE SMOOTH",
"87 242 OFFCURVE",
"-21 175 OFFCURVE",
"4 86 CURVE SMOOTH",
"44 -54 OFFCURVE",
"224 -55 OFFCURVE",
"330 -24 CURVE SMOOTH",
"491 22 OFFCURVE",
"646 241 OFFCURVE",
"720 376 CURVE SMOOTH",
"764 456 OFFCURVE",
"889 694 OFFCURVE",
"973 727 CURVE SMOOTH",
"1005 739 OFFCURVE",
"1029 729 OFFCURVE",
"1038 708 CURVE SMOOTH",
"1049 685 OFFCURVE",
"1045 644 OFFCURVE",
"1011 589 CURVE SMOOTH",
"984 545 OFFCURVE",
"911 498 OFFCURVE",
"878 496 CURVE SMOOTH",
"865 495 OFFCURVE",
"866 475 OFFCURVE",
"880 476 CURVE SMOOTH",
"921 478 OFFCURVE",
"999 531 OFFCURVE",
"1029 579 CURVE SMOOTH",
"1064 636 OFFCURVE",
"1070 685 OFFCURVE",
"1056 716 CURVE SMOOTH"
);
},
{
closed = 1;
nodes = (
"892 908 OFFCURVE",
"714 541 OFFCURVE",
"652 417 CURVE SMOOTH",
"599 313 OFFCURVE",
"453 90 OFFCURVE",
"301 47 CURVE SMOOTH",
"251 33 OFFCURVE",
"185 28 OFFCURVE",
"141 44 CURVE SMOOTH",
"100 59 OFFCURVE",
"81 91 OFFCURVE",
"87 111 CURVE SMOOTH",
"92 130 OFFCURVE",
"124 152 OFFCURVE",
"216 139 CURVE SMOOTH",
"269 132 OFFCURVE",
"316 115 OFFCURVE",
"364 93 CURVE SMOOTH",
"376 87 OFFCURVE",
"385 105 OFFCURVE",
"373 111 CURVE SMOOTH",
"323 134 OFFCURVE",
"274 151 OFFCURVE",
"218 159 CURVE SMOOTH",
"128 172 OFFCURVE",
"78 153 OFFCURVE",
"68 116 CURVE SMOOTH",
"58 80 OFFCURVE",
"90 42 OFFCURVE",
"135 26 CURVE SMOOTH",
"184 8 OFFCURVE",
"254 13 OFFCURVE",
"307 28 CURVE SMOOTH",
"468 74 OFFCURVE",
"618 305 OFFCURVE",
"670 408 CURVE SMOOTH",
"727 520 OFFCURVE",
"900 880 OFFCURVE",
"1065 780 CURVE SMOOTH",
"1170 717 OFFCURVE",
"1073 495 OFFCURVE",
"912 434 CURVE SMOOTH",
"900 429 OFFCURVE",
"907 411 OFFCURVE",
"920 416 CURVE SMOOTH",
"1075 476 OFFCURVE",
"1210 716 OFFCURVE",
"1075 798 CURVE SMOOTH"
);
}
);
width = 1002;
}
);
note = L;
unicode = 004C;
},
{
glyphname = M;
lastChange = "2021-11-10 00:36:21 +0000";
layers = (
{
layerId = "6B4F01CB-8044-4D82-912B-2C5A8D883AAC";
paths = (
{
closed = 1;
nodes = (
"1165 554 OFFCURVE",
"1161 573 OFFCURVE",
"1148 570 CURVE SMOOTH",
"1015 540 OFFCURVE",
"840 353 OFFCURVE",
"744 256 CURVE SMOOTH",
"635 146 OFFCURVE",
"431 -15 OFFCURVE",
"273 -15 CURVE SMOOTH",
"161 -15 OFFCURVE",
"10 35 OFFCURVE",
"10 160 CURVE SMOOTH",
"10 303 OFFCURVE",
"232 399 OFFCURVE",
"360 399 CURVE SMOOTH",
"421 399 OFFCURVE",
"622 374 OFFCURVE",
"622 286 CURVE SMOOTH",
"622 276 OFFCURVE",
"618 274 OFFCURVE",
"617 274 CURVE",
"611 277 OFFCURVE",
"605 283 OFFCURVE",
"599 287 CURVE SMOOTH",
"532 342 OFFCURVE",
"468 373 OFFCURVE",
"376 373 CURVE SMOOTH",
"279 373 OFFCURVE",
"56 306 OFFCURVE",
"56 174 CURVE SMOOTH",
"56 51 OFFCURVE",
"173 19 OFFCURVE",
"268 19 CURVE SMOOTH",
"435 19 OFFCURVE",
"614 175 OFFCURVE",
"719 287 CURVE SMOOTH",
"777 350 OFFCURVE",
"983 550 OFFCURVE",
"1057 560 CURVE SMOOTH",
"1070 562 OFFCURVE",
"1068 582 OFFCURVE",
"1054 580 CURVE SMOOTH",
"972 569 OFFCURVE",
"760 360 OFFCURVE",
"704 301 CURVE SMOOTH",
"599 188 OFFCURVE",
"425 39 OFFCURVE",
"268 39 CURVE SMOOTH",
"173 39 OFFCURVE",
"76 71 OFFCURVE",
"76 174 CURVE SMOOTH",
"76 284 OFFCURVE",
"276 353 OFFCURVE",
"376 353 CURVE SMOOTH",
"463 353 OFFCURVE",
"523 324 OFFCURVE",
"587 272 CURVE SMOOTH",
"594 266 OFFCURVE",
"607 254 OFFCURVE",
"617 254 CURVE SMOOTH",
"638 254 OFFCURVE",
"642 277 OFFCURVE",
"642 286 CURVE SMOOTH",
"642 391 OFFCURVE",
"434 419 OFFCURVE",
"360 419 CURVE SMOOTH",
"232 419 OFFCURVE",
"-10 323 OFFCURVE",
"-10 160 CURVE SMOOTH",
"-10 15 OFFCURVE",
"163 -35 OFFCURVE",
"273 -35 CURVE SMOOTH",
"440 -35 OFFCURVE",
"650 133 OFFCURVE",
"758 242 CURVE SMOOTH",
"850 335 OFFCURVE",
"1025 522 OFFCURVE",
"1152 551 CURVE SMOOTH"
);
},
{
closed = 1;
nodes = (
"1356 683 OFFCURVE",
"791 721 OFFCURVE",
"688 721 CURVE SMOOTH",
"586 721 OFFCURVE",
"307 705 OFFCURVE",
"307 552 CURVE SMOOTH",
"307 535 OFFCURVE",
"315 514 OFFCURVE",
"336 514 CURVE SMOOTH",
"350 514 OFFCURVE",
"360 524 OFFCURVE",
"368 534 CURVE SMOOTH",
"447 636 OFFCURVE",
"561 642 OFFCURVE",
"677 642 CURVE SMOOTH",
"840 642 OFFCURVE",
"1022 624 OFFCURVE",
"1179 580 CURVE SMOOTH",
"1192 576 OFFCURVE",
"1197 596 OFFCURVE",
"1184 600 CURVE SMOOTH",
"1025 645 OFFCURVE",
"841 662 OFFCURVE",
"677 662 CURVE SMOOTH",
"563 662 OFFCURVE",
"435 654 OFFCURVE",
"358 554 CURVE SMOOTH",
"353 547 OFFCURVE",
"344 534 OFFCURVE",
"336 534 CURVE SMOOTH",
"329 534 OFFCURVE",
"327 547 OFFCURVE",
"327 552 CURVE SMOOTH",
"327 687 OFFCURVE",
"599 701 OFFCURVE",
"688 701 CURVE SMOOTH",
"816 701 OFFCURVE",
"1336 654 OFFCURVE",
"1336 583 CURVE SMOOTH",
"1336 578 OFFCURVE",
"1330 572 OFFCURVE",
"1323 572 CURVE SMOOTH",
"1292 572 OFFCURVE",
"1261 577 OFFCURVE",
"1231 583 CURVE SMOOTH",
"1230 583 OFFCURVE",
"1224 583 OFFCURVE",
"1223 582 CURVE",
"1138 533 OFFCURVE",
"1067 431 OFFCURVE",
"1045 335 CURVE SMOOTH",
"1042 322 OFFCURVE",
"1061 317 OFFCURVE",
"1064 330 CURVE SMOOTH",
"1085 420 OFFCURVE",
"1152 516 OFFCURVE",
"1230 563 CURVE",
"1260 557 OFFCURVE",
"1292 552 OFFCURVE",
"1323 552 CURVE SMOOTH",
"1338 552 OFFCURVE",
"1356 564 OFFCURVE",
"1356 583 CURVE SMOOTH"
);
},
{
closed = 1;
nodes = (
"1645 596 OFFCURVE",
"1643 616 OFFCURVE",
"1630 615 CURVE SMOOTH",
"1313 589 OFFCURVE",
"960 50 OFFCURVE",
"803 50 CURVE SMOOTH",
"792 50 OFFCURVE",
"787 54 OFFCURVE",
"787 61 CURVE SMOOTH",
"787 82 OFFCURVE",
"809 94 OFFCURVE",
"824 102 CURVE SMOOTH",
"944 168 OFFCURVE",
"985 430 OFFCURVE",
"1075 472 CURVE SMOOTH",
"1087 477 OFFCURVE",
"1079 495 OFFCURVE",
"1067 490 CURVE SMOOTH",
"966 443 OFFCURVE",
"928 181 OFFCURVE",
"815 119 CURVE SMOOTH",
"792 107 OFFCURVE",
"767 91 OFFCURVE",
"767 61 CURVE SMOOTH",
"767 38 OFFCURVE",
"787 30 OFFCURVE",
"803 30 CURVE SMOOTH",
"973 30 OFFCURVE",
"1322 570 OFFCURVE",
"1631 595 CURVE SMOOTH"
);
},
{
closed = 1;
nodes = (
"1529 526 OFFCURVE",
"1517 542 OFFCURVE",
"1506 534 CURVE SMOOTH",
"1388 446 OFFCURVE",
"1137 254 OFFCURVE",
"1137 91 CURVE SMOOTH",
"1137 23 OFFCURVE",
"1208 1 OFFCURVE",
"1258 1 CURVE SMOOTH",
"1313 1 OFFCURVE",
"1365 23 OFFCURVE",
"1407 55 CURVE SMOOTH",
"1418 64 OFFCURVE",
"1406 79 OFFCURVE",
"1395 71 CURVE SMOOTH",
"1356 41 OFFCURVE",
"1307 21 OFFCURVE",
"1258 21 CURVE SMOOTH",
"1209 21 OFFCURVE",
"1157 42 OFFCURVE",
"1157 91 CURVE SMOOTH",
"1157 241 OFFCURVE",
"1395 427 OFFCURVE",
"1518 518 CURVE SMOOTH"
);
},
{
closed = 1;
nodes = (
"1959 670 OFFCURVE",
"1809 670 OFFCURVE",
"1776 670 CURVE SMOOTH",
"1628 670 OFFCURVE",
"1476 632 OFFCURVE",
"1352 549 CURVE SMOOTH",
"1294 510 OFFCURVE",
"1239 465 OFFCURVE",
"1187 419 CURVE SMOOTH",
"1138 375 OFFCURVE",
"959 190 OFFCURVE",
"918 174 CURVE SMOOTH",
"906 169 OFFCURVE",
"913 150 OFFCURVE",
"925 155 CURVE SMOOTH",
"949 164 OFFCURVE",
"1007 218 OFFCURVE",
"1063 271 CURVE SMOOTH",
"1162 366 OFFCURVE",
"1248 456 OFFCURVE",
"1363 532 CURVE SMOOTH",
"1484 613 OFFCURVE",
"1632 650 OFFCURVE",
"1776 650 CURVE SMOOTH",
"1795 650 OFFCURVE",
"1939 648 OFFCURVE",
"1939 611 CURVE SMOOTH",
"1939 595 OFFCURVE",
"1909 590 OFFCURVE",
"1898 590 CURVE SMOOTH",
"1860 590 OFFCURVE",
"1824 604 OFFCURVE",
"1785 604 CURVE SMOOTH",
"1742 604 OFFCURVE",
"1703 591 OFFCURVE",
"1667 572 CURVE SMOOTH",
"1537 505 OFFCURVE",
"1220 224 OFFCURVE",
"1220 124 CURVE SMOOTH",
"1220 84 OFFCURVE",
"1257 70 OFFCURVE",
"1286 70 CURVE SMOOTH",
"1351 70 OFFCURVE",
"1441 139 OFFCURVE",
"1477 187 CURVE SMOOTH",
"1485 197 OFFCURVE",
"1469 209 OFFCURVE",
"1461 199 CURVE SMOOTH",
"1426 153 OFFCURVE",
"1342 90 OFFCURVE",
"1286 90 CURVE SMOOTH",
"1260 90 OFFCURVE",
"1240 101 OFFCURVE",
"1240 124 CURVE SMOOTH",
"1240 210 OFFCURVE",
"1503 435 OFFCURVE",
"1578 490 CURVE SMOOTH",
"1641 536 OFFCURVE",
"1708 584 OFFCURVE",
"1785 584 CURVE SMOOTH",
"1824 584 OFFCURVE",
"1860 570 OFFCURVE",
"1898 570 CURVE SMOOTH",
"1922 570 OFFCURVE",
"1959 580 OFFCURVE",
"1959 611 CURVE SMOOTH"
);
}
);
width = 1469;
}
);
note = M;
unicode = 004D;
},
{
glyphname = N;
lastChange = "2021-11-10 00:36:21 +0000";
layers = (
{
layerId = "6B4F01CB-8044-4D82-912B-2C5A8D883AAC";
paths = (
{
closed = 1;
nodes = (
"983 543 OFFCURVE",
"969 556 OFFCURVE",
"960 545 CURVE SMOOTH",
"824 377 OFFCURVE",
"723 176 OFFCURVE",
"536 53 CURVE SMOOTH",
"380 -50 OFFCURVE",
"10 -56 OFFCURVE",
"10 160 CURVE SMOOTH",
"10 303 OFFCURVE",
"232 399 OFFCURVE",
"360 399 CURVE SMOOTH",
"421 399 OFFCURVE",
"622 374 OFFCURVE",
"622 286 CURVE SMOOTH",
"622 276 OFFCURVE",
"618 274 OFFCURVE",
"617 274 CURVE",
"610 277 OFFCURVE",
"604 282 OFFCURVE",
"599 286 CURVE SMOOTH",
"531 339 OFFCURVE",
"467 368 OFFCURVE",
"376 368 CURVE SMOOTH",
"280 368 OFFCURVE",
"56 306 OFFCURVE",
"56 174 CURVE SMOOTH",
"56 -42 OFFCURVE",
"408 17 OFFCURVE",
"516 90 CURVE SMOOTH",
"701 214 OFFCURVE",
"787 395 OFFCURVE",
"925 561 CURVE SMOOTH",
"934 571 OFFCURVE",
"919 583 OFFCURVE",
"910 573 CURVE SMOOTH",
"775 410 OFFCURVE",
"686 229 OFFCURVE",
"504 106 CURVE SMOOTH",
"388 28 OFFCURVE",
"76 -4 OFFCURVE",
"76 174 CURVE SMOOTH",
"76 284 OFFCURVE",
"276 348 OFFCURVE",
"376 348 CURVE SMOOTH",
"462 348 OFFCURVE",
"522 321 OFFCURVE",
"587 271 CURVE SMOOTH",
"594 265 OFFCURVE",
"607 254 OFFCURVE",
"617 254 CURVE SMOOTH",
"638 254 OFFCURVE",
"642 277 OFFCURVE",
"642 286 CURVE SMOOTH",
"642 391 OFFCURVE",
"434 419 OFFCURVE",
"360 419 CURVE SMOOTH",
"232 419 OFFCURVE",
"-10 323 OFFCURVE",
"-10 160 CURVE SMOOTH",
"-10 -91 OFFCURVE",
"397 -62 OFFCURVE",
"547 37 CURVE SMOOTH",
"738 162 OFFCURVE",
"835 361 OFFCURVE",
"975 533 CURVE SMOOTH"
);
},
{
closed = 1;
nodes = (
"1038 571 OFFCURVE",
"1044 640 OFFCURVE",
"976 665 CURVE SMOOTH",
"821 722 OFFCURVE",
"313 832 OFFCURVE",
"193 573 CURVE SMOOTH",
"167 517 OFFCURVE",
"244 505 OFFCURVE",
"267 557 CURVE SMOOTH",
"304 642 OFFCURVE",
"458 665 OFFCURVE",
"574 665 CURVE SMOOTH",
"676 665 OFFCURVE",
"793 642 OFFCURVE",
"951 597 CURVE SMOOTH",
"964 593 OFFCURVE",
"970 612 OFFCURVE",
"957 616 CURVE SMOOTH",
"798 661 OFFCURVE",
"679 685 OFFCURVE",
"574 685 CURVE SMOOTH",
"462 685 OFFCURVE",
"291 664 OFFCURVE",
"248 565 CURVE SMOOTH",
"237 540 OFFCURVE",
"196 533 OFFCURVE",
"211 565 CURVE SMOOTH",
"319 798 OFFCURVE",
"773 710 OFFCURVE",
"953 652 CURVE SMOOTH",
"963 649 OFFCURVE",
"973 645 OFFCURVE",
"983 640 CURVE SMOOTH",
"1025 618 OFFCURVE",
"1015 545 OFFCURVE",
"1012 510 CURVE SMOOTH",
"1003 418 OFFCURVE",
"992 311 OFFCURVE",
"975 221 CURVE SMOOTH",
"973 208 OFFCURVE",
"992 204 OFFCURVE",
"995 217 CURVE SMOOTH",
"1012 307 OFFCURVE",
"1023 415 OFFCURVE",
"1032 508 CURVE SMOOTH"
);
},
{
closed = 1;
nodes = (
"1328 820 OFFCURVE",
"1214 534 OFFCURVE",
"1092 325 CURVE SMOOTH",
"1053 258 OFFCURVE",
"1015 203 OFFCURVE",
"971 171 CURVE SMOOTH",
"960 163 OFFCURVE",
"972 147 OFFCURVE",
"983 155 CURVE SMOOTH",
"1031 189 OFFCURVE",
"1071 248 OFFCURVE",
"1110 315 CURVE SMOOTH",
"1227 516 OFFCURVE",
"1339 800 OFFCURVE",
"1623 793 CURVE SMOOTH",
"1650 792 OFFCURVE",
"1645 767 OFFCURVE",
"1618 767 CURVE SMOOTH",
"1489 765 OFFCURVE",
"1388 677 OFFCURVE",
"1310 575 CURVE SMOOTH",
"1241 485 OFFCURVE",
"1193 385 OFFCURVE",
"1137 288 CURVE SMOOTH",
"1061 155 OFFCURVE",
"930 1 OFFCURVE",
"858 -17 CURVE SMOOTH",
"846 -20 OFFCURVE",
"840 -17 OFFCURVE",
"839 -10 CURVE SMOOTH",
"834 10 OFFCURVE",
"853 27 OFFCURVE",
"865 38 CURVE SMOOTH",
"929 97 OFFCURVE",
"961 378 OFFCURVE",
"974 470 CURVE SMOOTH",
"976 483 OFFCURVE",
"956 486 OFFCURVE",
"954 472 CURVE SMOOTH",
"943 388 OFFCURVE",
"909 106 OFFCURVE",
"852 53 CURVE SMOOTH",
"844 46 OFFCURVE",
"834 37 OFFCURVE",
"827 26 CURVE SMOOTH",
"808 -4 OFFCURVE",
"819 -48 OFFCURVE",
"862 -37 CURVE SMOOTH",
"944 -17 OFFCURVE",
"1079 147 OFFCURVE",
"1155 278 CURVE SMOOTH",
"1174 311 OFFCURVE",
"1197 357 OFFCURVE",
"1226 408 CURVE SMOOTH",
"1307 550 OFFCURVE",
"1434 744 OFFCURVE",
"1618 747 CURVE SMOOTH",
"1672 748 OFFCURVE",
"1676 812 OFFCURVE",
"1623 813 CURVE SMOOTH"
);
}
);
width = 1188;
}
);
note = N;
unicode = 004E;
},
{
glyphname = Eng;
lastChange = "2021-11-10 00:36:21 +0000";
layers = (
{
layerId = "6B4F01CB-8044-4D82-912B-2C5A8D883AAC";
paths = (
{
closed = 1;
nodes = (
"983 543 OFFCURVE",
"969 556 OFFCURVE",
"960 545 CURVE SMOOTH",
"824 377 OFFCURVE",
"723 176 OFFCURVE",
"536 53 CURVE SMOOTH",
"380 -50 OFFCURVE",
"10 -56 OFFCURVE",
"10 160 CURVE SMOOTH",
"10 303 OFFCURVE",
"232 399 OFFCURVE",
"360 399 CURVE SMOOTH",
"421 399 OFFCURVE",
"622 374 OFFCURVE",
"622 286 CURVE SMOOTH",
"622 276 OFFCURVE",
"618 274 OFFCURVE",
"617 274 CURVE",
"610 277 OFFCURVE",
"604 282 OFFCURVE",
"599 286 CURVE SMOOTH",
"531 339 OFFCURVE",
"467 368 OFFCURVE",
"376 368 CURVE SMOOTH",
"280 368 OFFCURVE",
"56 306 OFFCURVE",
"56 174 CURVE SMOOTH",
"56 -42 OFFCURVE",
"408 17 OFFCURVE",
"516 90 CURVE SMOOTH",
"701 214 OFFCURVE",
"787 395 OFFCURVE",
"925 561 CURVE SMOOTH",
"934 571 OFFCURVE",
"919 583 OFFCURVE",
"910 573 CURVE SMOOTH",
"775 410 OFFCURVE",
"686 229 OFFCURVE",
"504 106 CURVE SMOOTH",
"388 28 OFFCURVE",
"76 -4 OFFCURVE",
"76 174 CURVE SMOOTH",
"76 284 OFFCURVE",
"276 348 OFFCURVE",
"376 348 CURVE SMOOTH",
"462 348 OFFCURVE",
"522 321 OFFCURVE",
"587 271 CURVE SMOOTH",
"594 265 OFFCURVE",
"607 254 OFFCURVE",
"617 254 CURVE SMOOTH",
"638 254 OFFCURVE",
"642 277 OFFCURVE",
"642 286 CURVE SMOOTH",
"642 391 OFFCURVE",
"434 419 OFFCURVE",
"360 419 CURVE SMOOTH",
"232 419 OFFCURVE",
"-10 323 OFFCURVE",
"-10 160 CURVE SMOOTH",
"-10 -91 OFFCURVE",
"397 -62 OFFCURVE",
"547 37 CURVE SMOOTH",
"738 162 OFFCURVE",
"835 361 OFFCURVE",
"975 533 CURVE SMOOTH"
);
},
{
closed = 1;
nodes = (
"1038 571 OFFCURVE",
"1044 640 OFFCURVE",
"976 665 CURVE SMOOTH",
"821 722 OFFCURVE",
"313 832 OFFCURVE",
"193 573 CURVE SMOOTH",
"167 517 OFFCURVE",
"244 505 OFFCURVE",
"267 557 CURVE SMOOTH",
"304 642 OFFCURVE",
"458 665 OFFCURVE",
"574 665 CURVE SMOOTH",
"676 665 OFFCURVE",
"793 642 OFFCURVE",
"951 597 CURVE SMOOTH",
"964 593 OFFCURVE",
"970 612 OFFCURVE",
"957 616 CURVE SMOOTH",
"798 661 OFFCURVE",
"679 685 OFFCURVE",
"574 685 CURVE SMOOTH",
"462 685 OFFCURVE",
"291 664 OFFCURVE",
"248 565 CURVE SMOOTH",
"237 540 OFFCURVE",
"196 533 OFFCURVE",
"211 565 CURVE SMOOTH",
"319 798 OFFCURVE",
"773 710 OFFCURVE",
"953 652 CURVE SMOOTH",
"963 649 OFFCURVE",
"973 645 OFFCURVE",
"983 640 CURVE SMOOTH",
"1025 618 OFFCURVE",
"1015 545 OFFCURVE",
"1012 510 CURVE SMOOTH",
"1003 418 OFFCURVE",
"992 311 OFFCURVE",
"975 221 CURVE SMOOTH",
"973 208 OFFCURVE",
"992 204 OFFCURVE",
"995 217 CURVE SMOOTH",
"1012 307 OFFCURVE",
"1023 415 OFFCURVE",
"1032 508 CURVE SMOOTH"
);
},
{
closed = 1;
nodes = (
"1328 820 OFFCURVE",
"1214 534 OFFCURVE",
"1092 325 CURVE SMOOTH",
"1053 258 OFFCURVE",
"1015 203 OFFCURVE",
"971 171 CURVE SMOOTH",
"960 163 OFFCURVE",
"972 147 OFFCURVE",
"983 155 CURVE SMOOTH",
"1031 189 OFFCURVE",
"1071 248 OFFCURVE",
"1110 315 CURVE SMOOTH",
"1227 516 OFFCURVE",
"1339 800 OFFCURVE",
"1623 793 CURVE SMOOTH",
"1650 792 OFFCURVE",
"1645 767 OFFCURVE",
"1618 767 CURVE SMOOTH",
"1489 765 OFFCURVE",
"1388 677 OFFCURVE",
"1310 575 CURVE SMOOTH",
"1253 500 OFFCURVE",
"1210 418 OFFCURVE",
"1165 337 CURVE SMOOTH",
"953 -51 OFFCURVE",
"819 -174 OFFCURVE",
"633 -260 CURVE SMOOTH",
"465 -337 OFFCURVE",
"329 -293 OFFCURVE",
"387 -184 CURVE SMOOTH",
"414 -133 OFFCURVE",
"495 -83 OFFCURVE",
"553 -83 CURVE SMOOTH",
"587 -83 OFFCURVE",
"587 -101 OFFCURVE",
"555 -114 CURVE SMOOTH",
"519 -127 OFFCURVE",
"476 -154 OFFCURVE",
"453 -177 CURVE SMOOTH",
"405 -227 OFFCURVE",
"460 -269 OFFCURVE",
"543 -245 CURVE SMOOTH",
"619 -223 OFFCURVE",
"797 -154 OFFCURVE",
"894 83 CURVE SMOOTH",
"939 185 OFFCURVE",
"963 393 OFFCURVE",
"974 470 CURVE SMOOTH",
"976 483 OFFCURVE",
"956 486 OFFCURVE",
"954 472 CURVE SMOOTH",
"944 398 OFFCURVE",
"917 171 OFFCURVE",
"872 81 CURVE",
"778 -140 OFFCURVE",
"612 -205 OFFCURVE",
"537 -225 CURVE SMOOTH",
"474 -244 OFFCURVE",
"436 -223 OFFCURVE",
"467 -191 CURVE SMOOTH",
"488 -170 OFFCURVE",
"529 -145 OFFCURVE",
"563 -132 CURVE SMOOTH",
"615 -112 OFFCURVE",
"610 -63 OFFCURVE",
"553 -63 CURVE SMOOTH",
"487 -63 OFFCURVE",
"399 -117 OFFCURVE",
"369 -174 CURVE SMOOTH",
"310 -286 OFFCURVE",
"435 -373 OFFCURVE",
"641 -278 CURVE SMOOTH",
"831 -190 OFFCURVE",
"968 -64 OFFCURVE",
"1183 329 CURVE SMOOTH",
"1195 353 OFFCURVE",
"1210 380 OFFCURVE",
"1226 408 CURVE SMOOTH",
"1307 550 OFFCURVE",
"1434 744 OFFCURVE",
"1618 747 CURVE SMOOTH",
"1672 748 OFFCURVE",
"1676 812 OFFCURVE",
"1623 813 CURVE SMOOTH"
);
}
);
width = 1188;
}
);
unicode = 014A;
},
{
glyphname = O;
lastChange = "2021-11-10 00:36:21 +0000";
layers = (
{
layerId = "6B4F01CB-8044-4D82-912B-2C5A8D883AAC";
paths = (
{
closed = 1;
nodes = (
"676 352 OFFCURVE",
"656 356 OFFCURVE",
"653 343 CURVE SMOOTH",
"612 149 OFFCURVE",
"445 -9 OFFCURVE",
"242 -9 CURVE SMOOTH",
"113 -9 OFFCURVE",
"28 71 OFFCURVE",
"28 201 CURVE SMOOTH",
"28 467 OFFCURVE",
"346 716 OFFCURVE",
"605 716 CURVE SMOOTH",
"939 716 OFFCURVE",
"827 401 OFFCURVE",
"550 401 CURVE SMOOTH",
"484 401 OFFCURVE",
"386 425 OFFCURVE",
"379 493 CURVE SMOOTH",
"378 506 OFFCURVE",
"358 504 OFFCURVE",
"359 491 CURVE SMOOTH",
"368 404 OFFCURVE",
"487 381 OFFCURVE",
"550 381 CURVE SMOOTH",
"856 381 OFFCURVE",
"965 736 OFFCURVE",
"605 736 CURVE SMOOTH",
"338 736 OFFCURVE",
"8 481 OFFCURVE",
"8 201 CURVE SMOOTH",
"8 59 OFFCURVE",
"103 -29 OFFCURVE",
"242 -29 CURVE SMOOTH",
"456 -29 OFFCURVE",
"630 137 OFFCURVE",
"673 339 CURVE SMOOTH"
);
},
{
closed = 1;
nodes = (
"607 351 OFFCURVE",
"588 353 OFFCURVE",
"586 340 CURVE SMOOTH",
"578 273 OFFCURVE",
"412 37 OFFCURVE",
"250 37 CURVE SMOOTH",
"157 37 OFFCURVE",
"107 107 OFFCURVE",
"107 203 CURVE SMOOTH",
"107 412 OFFCURVE",
"386 666 OFFCURVE",
"598 666 CURVE SMOOTH",
"879 666 OFFCURVE",
"735 444 OFFCURVE",
"558 444 CURVE SMOOTH",
"514 444 OFFCURVE",
"423 477 OFFCURVE",
"415 517 CURVE SMOOTH",
"413 530 OFFCURVE",
"393 527 OFFCURVE",
"395 514 CURVE SMOOTH",
"405 456 OFFCURVE",
"515 424 OFFCURVE",
"558 424 CURVE SMOOTH",
"765 424 OFFCURVE",
"905 686 OFFCURVE",
"598 686 CURVE SMOOTH",
"376 686 OFFCURVE",
"87 425 OFFCURVE",
"87 203 CURVE SMOOTH",
"87 100 OFFCURVE",
"142 17 OFFCURVE",
"250 17 CURVE SMOOTH",
"426 17 OFFCURVE",
"598 265 OFFCURVE",
"606 338 CURVE SMOOTH"
);
}
);
width = 733;
}
);
note = O;
unicode = 004F;
},
{
glyphname = Oslash;
lastChange = "2021-11-10 00:36:21 +0000";
layers = (
{
layerId = "6B4F01CB-8044-4D82-912B-2C5A8D883AAC";
paths = (
{
closed = 1;
nodes = (
"676 352 OFFCURVE",
"656 356 OFFCURVE",
"653 343 CURVE SMOOTH",
"620 184 OFFCURVE",
"502 50 OFFCURVE",
"348 6 CURVE SMOOTH",
"336 2 OFFCURVE",
"341 -17 OFFCURVE",
"354 -13 CURVE SMOOTH",
"515 33 OFFCURVE",
"638 174 OFFCURVE",
"673 339 CURVE SMOOTH"
);
},
{
closed = 1;
nodes = (
"738 874 OFFCURVE",
"694 747 OFFCURVE",
"666 737 CURVE",
"646 737 OFFCURVE",
"625 736 OFFCURVE",
"605 736 CURVE SMOOTH",
"338 736 OFFCURVE",
"8 481 OFFCURVE",
"8 201 CURVE SMOOTH",
"8 92 OFFCURVE",
"64 13 OFFCURVE",
"155 -16 CURVE",
"156 -17 OFFCURVE",
"156 -18 OFFCURVE",
"157 -20 CURVE",
"160 -35 OFFCURVE",
"95 -143 OFFCURVE",
"85 -158 CURVE SMOOTH",
"47 -220 OFFCURVE",
"134 -252 OFFCURVE",
"169 -182 CURVE SMOOTH",
"179 -162 OFFCURVE",
"233 -41 OFFCURVE",
"248 -28 CURVE",
"247 -28 OFFCURVE",
"246 -28 OFFCURVE",
"245 -29 CURVE",
"258 -29 OFFCURVE",
"258 -9 OFFCURVE",
"245 -9 CURVE SMOOTH",
"241 -9 OFFCURVE",
"237 -12 OFFCURVE",
"236 -13 CURVE SMOOTH",
"215 -30 OFFCURVE",
"164 -148 OFFCURVE",
"151 -173 CURVE SMOOTH",
"130 -216 OFFCURVE",
"78 -208 OFFCURVE",
"102 -169 CURVE SMOOTH",
"122 -138 OFFCURVE",
"154 -76 OFFCURVE",
"172 -42 CURVE SMOOTH",
"180 -28 OFFCURVE",
"179 -3 OFFCURVE",
"161 3 CURVE SMOOTH",
"79 30 OFFCURVE",
"28 100 OFFCURVE",
"28 201 CURVE SMOOTH",
"28 467 OFFCURVE",
"346 716 OFFCURVE",
"605 716 CURVE SMOOTH",
"625 716 OFFCURVE",
"645 717 OFFCURVE",
"665 717 CURVE SMOOTH",
"691 716 OFFCURVE",
"741 803 OFFCURVE",
"754 819 CURVE SMOOTH",
"767 835 OFFCURVE",
"780 838 OFFCURVE",
"787 835 CURVE SMOOTH",
"813 826 OFFCURVE",
"749 748 OFFCURVE",
"743 738 CURVE SMOOTH",
"735 727 OFFCURVE",
"752 716 OFFCURVE",
"759 727 CURVE SMOOTH",
"774 750 OFFCURVE",
"849 835 OFFCURVE",
"794 854 CURVE SMOOTH"
);
},
{
closed = 1;
nodes = (
"607 351 OFFCURVE",
"588 353 OFFCURVE",
"586 340 CURVE SMOOTH",
"578 273 OFFCURVE",
"412 37 OFFCURVE",
"250 37 CURVE SMOOTH",
"157 37 OFFCURVE",
"107 107 OFFCURVE",
"107 203 CURVE SMOOTH",
"107 412 OFFCURVE",
"386 666 OFFCURVE",
"598 666 CURVE SMOOTH",
"879 666 OFFCURVE",
"735 444 OFFCURVE",
"558 444 CURVE SMOOTH",
"514 444 OFFCURVE",
"423 477 OFFCURVE",
"415 517 CURVE SMOOTH",
"413 530 OFFCURVE",
"393 527 OFFCURVE",
"395 514 CURVE SMOOTH",
"405 456 OFFCURVE",
"515 424 OFFCURVE",
"558 424 CURVE SMOOTH",
"765 424 OFFCURVE",
"905 686 OFFCURVE",
"598 686 CURVE SMOOTH",
"376 686 OFFCURVE",
"87 425 OFFCURVE",
"87 203 CURVE SMOOTH",
"87 100 OFFCURVE",
"142 17 OFFCURVE",
"250 17 CURVE SMOOTH",
"426 17 OFFCURVE",
"598 265 OFFCURVE",
"606 338 CURVE SMOOTH"
);
},
{
closed = 1;
nodes = (
"725 718 OFFCURVE",
"717 700 OFFCURVE",
"729 695 CURVE SMOOTH",
"907 621 OFFCURVE",
"774 401 OFFCURVE",
"550 401 CURVE SMOOTH",
"484 401 OFFCURVE",
"386 425 OFFCURVE",
"379 493 CURVE SMOOTH",
"378 506 OFFCURVE",
"358 504 OFFCURVE",
"359 491 CURVE SMOOTH",
"368 404 OFFCURVE",
"487 381 OFFCURVE",
"550 381 CURVE SMOOTH",
"799 381 OFFCURVE",
"935 631 OFFCURVE",
"737 713 CURVE SMOOTH"
);
}
);
width = 733;
}
);
note = Oslash;
unicode = 00D8;
},
{
glyphname = OE;
lastChange = "2021-11-10 00:36:21 +0000";
layers = (
{
layerId = "6B4F01CB-8044-4D82-912B-2C5A8D883AAC";
paths = (
{
closed = 1;
nodes = (
"939 716 OFFCURVE",
"827 401 OFFCURVE",
"550 401 CURVE SMOOTH",
"484 401 OFFCURVE",
"386 425 OFFCURVE",
"379 493 CURVE SMOOTH",
"378 506 OFFCURVE",
"358 504 OFFCURVE",
"359 491 CURVE SMOOTH",
"368 404 OFFCURVE",
"487 381 OFFCURVE",
"550 381 CURVE SMOOTH",
"856 381 OFFCURVE",
"965 736 OFFCURVE",
"605 736 CURVE SMOOTH",
"338 736 OFFCURVE",
"8 481 OFFCURVE",
"8 201 CURVE SMOOTH",
"8 59 OFFCURVE",
"103 -29 OFFCURVE",
"242 -29 CURVE SMOOTH",
"327 -29 OFFCURVE",
"407 -2 OFFCURVE",
"474 42 CURVE SMOOTH",
"485 50 OFFCURVE",
"474 67 OFFCURVE",
"462 59 CURVE SMOOTH",
"398 17 OFFCURVE",
"323 -9 OFFCURVE",
"242 -9 CURVE SMOOTH",
"113 -9 OFFCURVE",
"28 71 OFFCURVE",
"28 201 CURVE SMOOTH",
"28 467 OFFCURVE",
"346 716 OFFCURVE",
"605 716 CURVE SMOOTH"
);
},
{
closed = 1;
nodes = (
"678 384 OFFCURVE",
"659 392 OFFCURVE",
"654 379 CURVE SMOOTH",
"598 234 OFFCURVE",
"413 37 OFFCURVE",
"250 37 CURVE SMOOTH",
"157 37 OFFCURVE",
"107 107 OFFCURVE",
"107 203 CURVE SMOOTH",
"107 412 OFFCURVE",
"386 666 OFFCURVE",
"598 666 CURVE SMOOTH",
"879 666 OFFCURVE",
"735 444 OFFCURVE",
"558 444 CURVE SMOOTH",
"514 444 OFFCURVE",
"423 477 OFFCURVE",
"415 517 CURVE SMOOTH",
"413 530 OFFCURVE",
"393 527 OFFCURVE",
"395 514 CURVE SMOOTH",
"405 456 OFFCURVE",
"515 424 OFFCURVE",
"558 424 CURVE SMOOTH",
"765 424 OFFCURVE",
"905 686 OFFCURVE",
"598 686 CURVE SMOOTH",
"376 686 OFFCURVE",
"87 425 OFFCURVE",
"87 203 CURVE SMOOTH",
"87 100 OFFCURVE",
"142 17 OFFCURVE",
"250 17 CURVE SMOOTH",
"425 17 OFFCURVE",
"615 224 OFFCURVE",
"673 372 CURVE SMOOTH"
);
},
{
closed = 1;
nodes = (
"1143 365 OFFCURVE",
"1106 344 OFFCURVE",
"1093 340 CURVE SMOOTH",
"998 310 OFFCURVE",
"761 310 OFFCURVE",
"707 311 CURVE SMOOTH",
"706 311 OFFCURVE",
"700 309 OFFCURVE",
"700 308 CURVE",
"667 270 OFFCURVE",
"500 74 OFFCURVE",
"631 51 CURVE SMOOTH",
"694 40 OFFCURVE",
"934 82 OFFCURVE",
"985 102 CURVE SMOOTH",
"999 108 OFFCURVE",
"1005 106 OFFCURVE",
"1006 105 CURVE",
"1011 91 OFFCURVE",
"992 71 OFFCURVE",
"980 67 CURVE SMOOTH",
"869 27 OFFCURVE",
"699 11 OFFCURVE",
"601 11 CURVE SMOOTH",
"541 11 OFFCURVE",
"504 27 OFFCURVE",
"521 92 CURVE SMOOTH",
"525 105 OFFCURVE",
"505 110 OFFCURVE",
"502 97 CURVE SMOOTH",
"478 10 OFFCURVE",
"539 -9 OFFCURVE",
"601 -9 CURVE SMOOTH",
"700 -9 OFFCURVE",
"873 8 OFFCURVE",
"987 49 CURVE SMOOTH",
"1037 67 OFFCURVE",
"1047 148 OFFCURVE",
"978 120 CURVE SMOOTH",
"930 101 OFFCURVE",
"693 60 OFFCURVE",
"635 70 CURVE SMOOTH",
"608 75 OFFCURVE",
"596 87 OFFCURVE",
"604 118 CURVE SMOOTH",
"620 179 OFFCURVE",
"664 236 OFFCURVE",
"712 291 CURVE",
"773 290 OFFCURVE",
"1003 291 OFFCURVE",
"1099 321 CURVE SMOOTH",
"1172 344 OFFCURVE",
"1182 426 OFFCURVE",
"1115 402 CURVE SMOOTH",
"1034 374 OFFCURVE",
"842 379 OFFCURVE",
"751 379 CURVE SMOOTH",
"738 379 OFFCURVE",
"738 359 OFFCURVE",
"751 359 CURVE SMOOTH",
"845 359 OFFCURVE",
"1037 354 OFFCURVE",
"1121 383 CURVE SMOOTH",
"1135 388 OFFCURVE",
"1139 386 OFFCURVE",
"1140 386 CURVE"
);
},
{
closed = 1;
nodes = (
"977 572 OFFCURVE",
"920 621 OFFCURVE",
"882 598 CURVE SMOOTH",
"871 591 OFFCURVE",
"881 574 OFFCURVE",
"892 581 CURVE SMOOTH",
"909 591 OFFCURVE",
"944 572 OFFCURVE",
"924 556 CURVE SMOOTH",
"877 519 OFFCURVE",
"829 457 OFFCURVE",
"783 413 CURVE SMOOTH",
"773 404 OFFCURVE",
"787 390 OFFCURVE",
"796 399 CURVE SMOOTH",
"831 432 OFFCURVE",
"856 459 OFFCURVE",
"877 482 CURVE SMOOTH",
"899 505 OFFCURVE",
"916 524 OFFCURVE",
"937 540 CURVE SMOOTH"
);
},
{
closed = 1;
nodes = (
"1232 664 OFFCURVE",
"1197 732 OFFCURVE",
"1137 694 CURVE SMOOTH",
"1116 680 OFFCURVE",
"1078 670 OFFCURVE",
"1021 673 CURVE SMOOTH",
"888 680 OFFCURVE",
"797 777 OFFCURVE",
"656 764 CURVE SMOOTH",
"643 763 OFFCURVE",
"645 743 OFFCURVE",
"658 744 CURVE SMOOTH",
"760 753 OFFCURVE",
"832 703 OFFCURVE",
"922 673 CURVE SMOOTH",
"986 651 OFFCURVE",
"1089 639 OFFCURVE",
"1148 677 CURVE SMOOTH",
"1185 701 OFFCURVE",
"1198 668 OFFCURVE",
"1164 648 CURVE SMOOTH",
"1125 625 OFFCURVE",
"1070 612 OFFCURVE",
"1003 616 CURVE SMOOTH",
"946 620 OFFCURVE",
"896 640 OFFCURVE",
"843 662 CURVE SMOOTH",
"831 667 OFFCURVE",
"824 648 OFFCURVE",
"836 643 CURVE SMOOTH",
"862 633 OFFCURVE",
"887 623 OFFCURVE",
"914 614 CURVE SMOOTH",
"997 588 OFFCURVE",
"1097 586 OFFCURVE",
"1174 631 CURVE SMOOTH"
);
}
);
width = 1087;
}
);
note = OE;
unicode = 0152;
},
{
glyphname = P;
lastChange = "2021-11-10 00:36:21 +0000";
layers = (
{
layerId = "6B4F01CB-8044-4D82-912B-2C5A8D883AAC";
paths = (
{
closed = 1;
nodes = (
"768 594 OFFCURVE",
"750 602 OFFCURVE",
"744 590 CURVE SMOOTH",
"668 420 OFFCURVE",
"548 109 OFFCURVE",
"389 24 CURVE SMOOTH",
"367 12 OFFCURVE",
"352 40 OFFCURVE",
"355 49 CURVE",
"436 98 OFFCURVE",
"497 192 OFFCURVE",
"573 340 CURVE SMOOTH",
"605 403 OFFCURVE",
"672 536 OFFCURVE",
"698 595 CURVE SMOOTH",
"704 607 OFFCURVE",
"685 615 OFFCURVE",
"680 603 CURVE SMOOTH",
"654 544 OFFCURVE",
"587 412 OFFCURVE",
"555 350 CURVE SMOOTH",
"478 201 OFFCURVE",
"420 112 OFFCURVE",
"345 66 CURVE SMOOTH",
"318 50 OFFCURVE",
"351 -20 OFFCURVE",
"399 6 CURVE SMOOTH",
"564 95 OFFCURVE",
"684 407 OFFCURVE",
"763 582 CURVE SMOOTH"
);
},
{
closed = 1;
nodes = (
"1092 846 OFFCURVE",
"-6 794 OFFCURVE",
"-6 324 CURVE SMOOTH",
"-6 86 OFFCURVE",
"317 79 OFFCURVE",
"451 278 CURVE SMOOTH",
"501 353 OFFCURVE",
"548 504 OFFCURVE",
"497 551 CURVE SMOOTH",
"483 565 OFFCURVE",
"433 552 OFFCURVE",
"447 529 CURVE SMOOTH",
"463 502 OFFCURVE",
"444 387 OFFCURVE",
"394 313 CURVE SMOOTH",
"301 174 OFFCURVE",
"78 170 OFFCURVE",
"78 322 CURVE SMOOTH",
"78 702 OFFCURVE",
"982 728 OFFCURVE",
"982 501 CURVE SMOOTH",
"982 395 OFFCURVE",
"833 331 OFFCURVE",
"694 331 CURVE SMOOTH",
"681 331 OFFCURVE",
"681 311 OFFCURVE",
"694 311 CURVE SMOOTH",
"832 311 OFFCURVE",
"1002 375 OFFCURVE",
"1002 501 CURVE SMOOTH",
"1002 759 OFFCURVE",
"58 726 OFFCURVE",
"58 322 CURVE SMOOTH",
"58 124 OFFCURVE",
"323 172 OFFCURVE",
"411 302 CURVE SMOOTH",
"459 374 OFFCURVE",
"485 491 OFFCURVE",
"467 534 CURVE",
"470 535 OFFCURVE",
"481 538 OFFCURVE",
"483 537 CURVE",
"520 502 OFFCURVE",
"487 367 OFFCURVE",
"434 289 CURVE SMOOTH",
"300 90 OFFCURVE",
"14 124 OFFCURVE",
"14 324 CURVE SMOOTH",
"14 769 OFFCURVE",
"1072 816 OFFCURVE",
"1072 497 CURVE SMOOTH",
"1072 355 OFFCURVE",
"930 275 OFFCURVE",
"676 275 CURVE SMOOTH",
"663 275 OFFCURVE",
"663 255 OFFCURVE",
"676 255 CURVE SMOOTH",
"930 255 OFFCURVE",
"1092 335 OFFCURVE",
"1092 497 CURVE SMOOTH"
);
}
);
width = 1043;
}
);
note = P;
unicode = 0050;
},
{
glyphname = Thorn;
lastChange = "2021-11-10 00:36:21 +0000";
layers = (
{
layerId = "6B4F01CB-8044-4D82-912B-2C5A8D883AAC";
paths = (
{
closed = 1;
nodes = (
"21 172 OFFCURVE",
"-164 -167 OFFCURVE",
"-242 -168 CURVE SMOOTH",
"-340 -170 OFFCURVE",
"-296 -259 OFFCURVE",
"-235 -258 CURVE SMOOTH",
"-102 -255 OFFCURVE",
"10 18 OFFCURVE",
"154 229 CURVE SMOOTH",
"212 313 OFFCURVE",
"286 416 OFFCURVE",
"365 416 CURVE SMOOTH",
"408 416 OFFCURVE",
"425 376 OFFCURVE",
"377 315 CURVE SMOOTH",
"318 241 OFFCURVE",
"203 152 OFFCURVE",
"151 152 CURVE SMOOTH",
"138 152 OFFCURVE",
"138 132 OFFCURVE",
"151 132 CURVE SMOOTH",
"213 132 OFFCURVE",
"331 224 OFFCURVE",
"393 304 CURVE SMOOTH",
"452 381 OFFCURVE",
"427 438 OFFCURVE",
"366 438 CURVE SMOOTH",
"277 438 OFFCURVE",
"204 335 OFFCURVE",
"139 241 CURVE SMOOTH",
"-2 35 OFFCURVE",
"-116 -236 OFFCURVE",
"-235 -238 CURVE SMOOTH",
"-268 -239 OFFCURVE",
"-313 -190 OFFCURVE",
"-241 -188 CURVE SMOOTH",
"-152 -187 OFFCURVE",
"16 133 OFFCURVE",
"198 421 CURVE",
"208 435 OFFCURVE",
"196 453 OFFCURVE",
"181 430 CURVE"
);
},
{
closed = 1;
nodes = (
"505 445 OFFCURVE",
"471 493 OFFCURVE",
"409 493 CURVE SMOOTH",
"371 493 OFFCURVE",
"334 483 OFFCURVE",
"316 465 CURVE SMOOTH",
"307 456 OFFCURVE",
"321 441 OFFCURVE",
"330 451 CURVE SMOOTH",
"344 465 OFFCURVE",
"376 473 OFFCURVE",
"409 473 CURVE SMOOTH",
"457 473 OFFCURVE",
"485 437 OFFCURVE",
"485 389 CURVE SMOOTH",
"485 261 OFFCURVE",
"259 100 OFFCURVE",
"134 100 CURVE SMOOTH",
"121 100 OFFCURVE",
"121 80 OFFCURVE",
"134 80 CURVE SMOOTH",
"269 80 OFFCURVE",
"505 249 OFFCURVE",
"505 389 CURVE SMOOTH"
);
},
{
closed = 1;
nodes = (
"643 711 OFFCURVE",
"591 725 OFFCURVE",
"568 725 CURVE SMOOTH",
"409 725 OFFCURVE",
"317 591 OFFCURVE",
"217 478 CURVE SMOOTH",
"209 468 OFFCURVE",
"224 455 OFFCURVE",
"233 465 CURVE SMOOTH",
"326 571 OFFCURVE",
"420 705 OFFCURVE",
"568 705 CURVE SMOOTH",
"592 705 OFFCURVE",
"623 691 OFFCURVE",
"623 672 CURVE SMOOTH",
"623 653 OFFCURVE",
"594 655 OFFCURVE",
"582 655 CURVE SMOOTH",
"490 655 OFFCURVE",
"390 552 OFFCURVE",
"381 541 CURVE SMOOTH",
"372 531 OFFCURVE",
"382 508 OFFCURVE",
"398 529 CURVE SMOOTH",
"407 541 OFFCURVE",
"501 635 OFFCURVE",
"582 635 CURVE SMOOTH",
"607 635 OFFCURVE",
"643 636 OFFCURVE",
"643 672 CURVE SMOOTH"
);
}
);
width = 493;
}
);
unicode = 00DE;
},
{
glyphname = Q;
lastChange = "2021-11-10 00:36:21 +0000";
layers = (
{
layerId = "6B4F01CB-8044-4D82-912B-2C5A8D883AAC";
paths = (
{
closed = 1;
nodes = (
"676 352 OFFCURVE",
"656 356 OFFCURVE",
"653 343 CURVE SMOOTH",
"612 149 OFFCURVE",
"445 -9 OFFCURVE",
"242 -9 CURVE SMOOTH",
"113 -9 OFFCURVE",
"28 71 OFFCURVE",
"28 201 CURVE SMOOTH",
"28 467 OFFCURVE",
"346 716 OFFCURVE",
"605 716 CURVE SMOOTH",
"939 716 OFFCURVE",
"827 401 OFFCURVE",
"550 401 CURVE SMOOTH",
"484 401 OFFCURVE",
"386 425 OFFCURVE",
"379 493 CURVE SMOOTH",
"378 506 OFFCURVE",
"358 504 OFFCURVE",
"359 491 CURVE SMOOTH",
"368 404 OFFCURVE",
"487 381 OFFCURVE",
"550 381 CURVE SMOOTH",
"855 381 OFFCURVE",
"965 736 OFFCURVE",
"605 736 CURVE SMOOTH",
"338 736 OFFCURVE",
"8 481 OFFCURVE",
"8 201 CURVE SMOOTH",
"8 59 OFFCURVE",
"103 -29 OFFCURVE",
"242 -29 CURVE SMOOTH",
"456 -29 OFFCURVE",
"630 137 OFFCURVE",
"673 339 CURVE SMOOTH"
);
},
{
closed = 1;
nodes = (
"607 351 OFFCURVE",
"588 353 OFFCURVE",
"586 340 CURVE SMOOTH",
"578 273 OFFCURVE",
"412 37 OFFCURVE",
"250 37 CURVE SMOOTH",
"157 37 OFFCURVE",
"107 107 OFFCURVE",
"107 203 CURVE SMOOTH",
"107 412 OFFCURVE",
"386 666 OFFCURVE",
"598 666 CURVE SMOOTH",
"879 666 OFFCURVE",
"735 444 OFFCURVE",
"558 444 CURVE SMOOTH",
"514 444 OFFCURVE",
"423 477 OFFCURVE",
"415 517 CURVE SMOOTH",
"413 530 OFFCURVE",
"393 527 OFFCURVE",
"395 514 CURVE SMOOTH",
"405 456 OFFCURVE",
"515 424 OFFCURVE",
"558 424 CURVE SMOOTH",
"765 424 OFFCURVE",
"905 686 OFFCURVE",
"598 686 CURVE SMOOTH",
"376 686 OFFCURVE",
"87 425 OFFCURVE",
"87 203 CURVE SMOOTH",
"87 100 OFFCURVE",
"142 17 OFFCURVE",
"250 17 CURVE SMOOTH",
"426 17 OFFCURVE",
"598 265 OFFCURVE",
"606 338 CURVE SMOOTH"
);
},
{
closed = 1;
nodes = (
"735 -134 OFFCURVE",
"712 -134 CURVE SMOOTH",
"699 -134 OFFCURVE",
"686 -142 OFFCURVE",
"672 -156 CURVE SMOOTH",
"529 -301 OFFCURVE",
"338 -20 OFFCURVE",
"149 -69 CURVE SMOOTH",
"137 -72 OFFCURVE",
"142 -92 OFFCURVE",
"155 -89 CURVE SMOOTH",
"332 -43 OFFCURVE",
"529 -328 OFFCURVE",
"686 -170 CURVE SMOOTH",
"695 -161 OFFCURVE",
"703 -154 OFFCURVE",
"711 -154 CURVE SMOOTH",
"719 -154 OFFCURVE",
"725 -157 OFFCURVE",
"726 -166 CURVE SMOOTH",
"726 -182 OFFCURVE",
"694 -211 OFFCURVE",
"682 -222 CURVE SMOOTH",
"522 -365 OFFCURVE",
"326 -85 OFFCURVE",
"137 -134 CURVE SMOOTH",
"125 -137 OFFCURVE",
"130 -157 OFFCURVE",
"143 -154 CURVE SMOOTH",
"320 -108 OFFCURVE",
"523 -393 OFFCURVE",
"697 -235 CURVE SMOOTH",
"718 -216 OFFCURVE",
"745 -189 OFFCURVE",
"745 -166 CURVE SMOOTH",
"745 -149 OFFCURVE"
);
}
);
width = 733;
}
);
note = Q;
unicode = 0051;
},
{
glyphname = R;
lastChange = "2021-11-10 00:36:21 +0000";
layers = (
{
layerId = "6B4F01CB-8044-4D82-912B-2C5A8D883AAC";
paths = (
{
closed = 1;
nodes = (
"1001 592 OFFCURVE",
"984 603 OFFCURVE",
"977 592 CURVE SMOOTH",
"816 347 OFFCURVE",
"619 -14 OFFCURVE",
"281 -14 CURVE SMOOTH",
"-115 -14 OFFCURVE",
"25 399 OFFCURVE",
"374 399 CURVE SMOOTH",
"426 399 OFFCURVE",
"580 373 OFFCURVE",
"584 302 CURVE SMOOTH",
"584 296 OFFCURVE",
"580 281 OFFCURVE",
"572 279 CURVE",
"572 279 OFFCURVE",
"571 280 OFFCURVE",
"571 282 CURVE",
"560 324 OFFCURVE",
"451 373 OFFCURVE",
"362 373 CURVE SMOOTH",
"87 373 OFFCURVE",
"-41 19 OFFCURVE",
"296 19 CURVE SMOOTH",
"464 19 OFFCURVE",
"649 217 OFFCURVE",
"751 351 CURVE SMOOTH",
"798 413 OFFCURVE",
"893 534 OFFCURVE",
"932 594 CURVE SMOOTH",
"939 605 OFFCURVE",
"924 616 OFFCURVE",
"916 604 CURVE SMOOTH",
"878 546 OFFCURVE",
"782 425 OFFCURVE",
"735 363 CURVE SMOOTH",
"632 228 OFFCURVE",
"453 39 OFFCURVE",
"296 39 CURVE SMOOTH",
"-15 39 OFFCURVE",
"116 353 OFFCURVE",
"362 353 CURVE SMOOTH",
"451 353 OFFCURVE",
"545 304 OFFCURVE",
"552 278 CURVE SMOOTH",
"561 241 OFFCURVE",
"606 264 OFFCURVE",
"604 304 CURVE SMOOTH",
"599 390 OFFCURVE",
"438 419 OFFCURVE",
"374 419 CURVE SMOOTH",
"-4 419 OFFCURVE",
"-140 -34 OFFCURVE",
"281 -34 CURVE SMOOTH",
"630 -34 OFFCURVE",
"828 328 OFFCURVE",
"994 581 CURVE SMOOTH"
);
},
{
closed = 1;
nodes = (
"1341 51 OFFCURVE",
"1327 65 OFFCURVE",
"1317 56 CURVE SMOOTH",
"1244 -12 OFFCURVE",
"1175 -71 OFFCURVE",
"1066 -71 CURVE SMOOTH",
"906 -71 OFFCURVE",
"819 56 OFFCURVE",
"786 161 CURVE SMOOTH",
"782 173 OFFCURVE",
"763 167 OFFCURVE",
"767 155 CURVE SMOOTH",
"801 46 OFFCURVE",
"894 -91 OFFCURVE",
"1066 -91 CURVE SMOOTH",
"1181 -91 OFFCURVE",
"1254 -31 OFFCURVE",
"1331 42 CURVE SMOOTH"
);
},
{
closed = 1;
nodes = (
"1384 199 OFFCURVE",
"1367 210 OFFCURVE",
"1359 199 CURVE SMOOTH",
"1306 125 OFFCURVE",
"1167 -6 OFFCURVE",
"1084 -6 CURVE SMOOTH",
"979 -6 OFFCURVE",
"899 107 OFFCURVE",
"887 200 CURVE SMOOTH",
"885 213 OFFCURVE",
"865 211 OFFCURVE",
"867 198 CURVE SMOOTH",
"879 99 OFFCURVE",
"965 -26 OFFCURVE",
"1084 -26 CURVE SMOOTH",
"1177 -26 OFFCURVE",
"1316 107 OFFCURVE",
"1375 187 CURVE SMOOTH"
);
},
{
closed = 1;
nodes = (
"1329 673 OFFCURVE",
"1055 688 OFFCURVE",
"903 691 CURVE SMOOTH",
"666 695 OFFCURVE",
"411 623 OFFCURVE",
"354 502 CURVE SMOOTH",
"321 433 OFFCURVE",
"398 453 OFFCURVE",
"430 485 CURVE SMOOTH",
"510 566 OFFCURVE",
"707 617 OFFCURVE",
"883 619 CURVE SMOOTH",
"1063 621 OFFCURVE",
"1198 572 OFFCURVE",
"1173 453 CURVE SMOOTH",
"1157 380 OFFCURVE",
"1048 287 OFFCURVE",
"825 277 CURVE SMOOTH",
"811 276 OFFCURVE",
"812 256 OFFCURVE",
"825 257 CURVE SMOOTH",
"1052 267 OFFCURVE",
"1175 362 OFFCURVE",
"1193 449 CURVE SMOOTH",
"1224 594 OFFCURVE",
"1055 641 OFFCURVE",
"883 639 CURVE SMOOTH",
"706 637 OFFCURVE",
"501 586 OFFCURVE",
"416 499 CURVE SMOOTH",
"407 490 OFFCURVE",
"387 478 OFFCURVE",
"373 475 CURVE SMOOTH",
"361 473 OFFCURVE",
"366 481 OFFCURVE",
"372 494 CURVE SMOOTH",
"423 601 OFFCURVE",
"665 675 OFFCURVE",
"903 671 CURVE SMOOTH",
"1066 668 OFFCURVE",
"1302 650 OFFCURVE",
"1258 439 CURVE SMOOTH",
"1244 374 OFFCURVE",
"1129 250 OFFCURVE",
"933 235 CURVE SMOOTH",
"920 234 OFFCURVE",
"921 214 OFFCURVE",
"935 215 CURVE SMOOTH",
"1137 230 OFFCURVE",
"1262 359 OFFCURVE",
"1278 435 CURVE SMOOTH"
);
}
);
width = 1367;
}
);
note = R;
unicode = 0052;
},
{
glyphname = S;
lastChange = "2021-11-10 00:36:21 +0000";
layers = (
{
layerId = "6B4F01CB-8044-4D82-912B-2C5A8D883AAC";
paths = (
{
closed = 1;
nodes = (
"965 795 OFFCURVE",
"564 758 OFFCURVE",
"455 704 CURVE SMOOTH",
"282 618 OFFCURVE",
"184 436 OFFCURVE",
"481 364 CURVE SMOOTH",
"694 313 OFFCURVE",
"752 247 OFFCURVE",
"752 190 CURVE SMOOTH",
"752 73 OFFCURVE",
"500 4 OFFCURVE",
"392 4 CURVE SMOOTH",
"75 4 OFFCURVE",
"81 213 OFFCURVE",
"332 213 CURVE SMOOTH",
"345 213 OFFCURVE",
"345 233 OFFCURVE",
"332 233 CURVE SMOOTH",
"56 233 OFFCURVE",
"45 -16 OFFCURVE",
"392 -16 CURVE SMOOTH",
"494 -16 OFFCURVE",
"772 51 OFFCURVE",
"772 190 CURVE SMOOTH",
"772 264 OFFCURVE",
"697 333 OFFCURVE",
"486 384 CURVE SMOOTH",
"224 447 OFFCURVE",
"291 600 OFFCURVE",
"463 686 CURVE SMOOTH",
"561 735 OFFCURVE",
"944 773 OFFCURVE",
"926 585 CURVE SMOOTH",
"925 569 OFFCURVE",
"889 548 OFFCURVE",
"885 574 CURVE SMOOTH",
"862 732 OFFCURVE",
"584 699 OFFCURVE",
"490 654 CURVE SMOOTH",
"363 593 OFFCURVE",
"295 478 OFFCURVE",
"546 418 CURVE SMOOTH",
"781 362 OFFCURVE",
"837 279 OFFCURVE",
"837 201 CURVE SMOOTH",
"837 51 OFFCURVE",
"595 -54 OFFCURVE",
"376 -54 CURVE SMOOTH",
"48 -54 OFFCURVE",
"-100 211 OFFCURVE",
"315 269 CURVE SMOOTH",
"329 271 OFFCURVE",
"326 291 OFFCURVE",
"313 289 CURVE SMOOTH",
"-125 227 OFFCURVE",
"19 -74 OFFCURVE",
"376 -74 CURVE SMOOTH",
"593 -74 OFFCURVE",
"857 31 OFFCURVE",
"857 201 CURVE SMOOTH",
"857 294 OFFCURVE",
"787 381 OFFCURVE",
"550 438 CURVE SMOOTH",
"327 491 OFFCURVE",
"380 579 OFFCURVE",
"498 636 CURVE SMOOTH",
"600 685 OFFCURVE",
"846 700 OFFCURVE",
"865 572 CURVE SMOOTH",
"873 520 OFFCURVE",
"942 544 OFFCURVE",
"946 583 CURVE SMOOTH"
);
}
);
width = 903;
}
);
note = S;
unicode = 0053;
},
{
glyphname = Germandbls;
lastChange = "2021-11-10 00:36:21 +0000";
layers = (
{
layerId = "6B4F01CB-8044-4D82-912B-2C5A8D883AAC";
paths = (
{
closed = 1;
nodes = (
"856 76 OFFCURVE",
"760 136 OFFCURVE",
"705 169 CURVE SMOOTH",
"694 176 OFFCURVE",
"683 159 OFFCURVE",
"695 152 CURVE SMOOTH",
"750 119 OFFCURVE",
"836 64 OFFCURVE",
"836 -49 CURVE SMOOTH",
"836 -276 OFFCURVE",
"499 -358 OFFCURVE",
"308 -317 CURVE SMOOTH",
"295 -314 OFFCURVE",
"291 -333 OFFCURVE",
"304 -336 CURVE SMOOTH",
"494 -377 OFFCURVE",
"856 -300 OFFCURVE",
"856 -49 CURVE SMOOTH"
);
},
{
closed = 1;
nodes = (
"864 301 OFFCURVE",
"764 260 OFFCURVE",
"687 239 CURVE SMOOTH",
"674 235 OFFCURVE",
"680 215 OFFCURVE",
"693 219 CURVE SMOOTH",
"1390 417 OFFCURVE",
"981 1028 OFFCURVE",
"584 680 CURVE SMOOTH",
"437 551 OFFCURVE",
"293 323 OFFCURVE",
"173 100 CURVE SMOOTH",
"53 -123 OFFCURVE",
"-44 -341 OFFCURVE",
"-99 -451 CURVE SMOOTH",
"-132 -519 OFFCURVE",
"-27 -564 OFFCURVE",
"9 -493 CURVE SMOOTH",
"54 -402 OFFCURVE",
"146 -201 OFFCURVE",
"258 9 CURVE SMOOTH",
"371 220 OFFCURVE",
"504 441 OFFCURVE",
"632 573 CURVE SMOOTH",
"908 857 OFFCURVE",
"1046 576 OFFCURVE",
"887 415 CURVE SMOOTH",
"836 364 OFFCURVE",
"764 326 OFFCURVE",
"707 307 CURVE SMOOTH",
"596 270 OFFCURVE",
"547 240 OFFCURVE",
"554 203 CURVE SMOOTH",
"567 140 OFFCURVE",
"756 94 OFFCURVE",
"756 -49 CURVE SMOOTH",
"756 -199 OFFCURVE",
"461 -288 OFFCURVE",
"320 -258 CURVE SMOOTH",
"307 -255 OFFCURVE",
"303 -274 OFFCURVE",
"316 -277 CURVE SMOOTH",
"456 -306 OFFCURVE",
"776 -223 OFFCURVE",
"776 -49 CURVE SMOOTH",
"776 103 OFFCURVE",
"584 159 OFFCURVE",
"574 207 CURVE SMOOTH",
"571 223 OFFCURVE",
"593 248 OFFCURVE",
"714 288 CURVE SMOOTH",
"773 308 OFFCURVE",
"848 347 OFFCURVE",
"901 401 CURVE SMOOTH",
"1079 581 OFFCURVE",
"914 892 OFFCURVE",
"618 587 CURVE SMOOTH",
"488 452 OFFCURVE",
"353 230 OFFCURVE",
"241 19 CURVE SMOOTH",
"128 -192 OFFCURVE",
"36 -393 OFFCURVE",
"-9 -484 CURVE SMOOTH",
"-33 -532 OFFCURVE",
"-103 -504 OFFCURVE",
"-81 -460 CURVE SMOOTH",
"-26 -350 OFFCURVE",
"71 -132 OFFCURVE",
"191 91 CURVE SMOOTH",
"311 313 OFFCURVE",
"453 539 OFFCURVE",
"597 665 CURVE SMOOTH",
"909 938 OFFCURVE",
"1215 582 OFFCURVE",
"939 361 CURVE SMOOTH"
);
}
);
width = 1000;
}
);
unicode = 1E9E;
},
{
glyphname = Schwa;
lastChange = "2021-11-10 00:36:21 +0000";
layers = (
{
layerId = "6B4F01CB-8044-4D82-912B-2C5A8D883AAC";
paths = (
{
closed = 1;
nodes = (
"511 306 OFFCURVE",
"402 322 OFFCURVE",
"332 322 CURVE SMOOTH",
"91 322 OFFCURVE",
"-54 39 OFFCURVE",
"258 39 CURVE SMOOTH",
"480 39 OFFCURVE",
"769 300 OFFCURVE",
"769 522 CURVE SMOOTH",
"769 625 OFFCURVE",
"714 708 OFFCURVE",
"606 708 CURVE SMOOTH",
"430 708 OFFCURVE",
"355 571 OFFCURVE",
"317 521 CURVE",
"308 508 OFFCURVE",
"329 505 OFFCURVE",
"337 516 CURVE SMOOTH",
"375 567 OFFCURVE",
"444 688 OFFCURVE",
"606 688 CURVE SMOOTH",
"699 688 OFFCURVE",
"749 618 OFFCURVE",
"749 522 CURVE SMOOTH",
"749 313 OFFCURVE",
"470 59 OFFCURVE",
"258 59 CURVE SMOOTH",
"-19 59 OFFCURVE",
"128 301 OFFCURVE",
"331 301 CURVE SMOOTH",
"399 301 OFFCURVE",
"499 287 OFFCURVE",
"559 248 CURVE",
"577 237 OFFCURVE",
"585 259 OFFCURVE",
"575 265 CURVE"
);
},
{
closed = 1;
nodes = (
"523 373 OFFCURVE",
"373 374 OFFCURVE",
"317 374 CURVE SMOOTH",
"-5 374 OFFCURVE",
"-113 -11 OFFCURVE",
"251 -11 CURVE SMOOTH",
"518 -11 OFFCURVE",
"848 244 OFFCURVE",
"848 524 CURVE SMOOTH",
"848 666 OFFCURVE",
"753 760 OFFCURVE",
"614 760 CURVE SMOOTH",
"400 760 OFFCURVE",
"341 670 OFFCURVE",
"245 519 CURVE SMOOTH",
"239 508 OFFCURVE",
"257 498 OFFCURVE",
"263 509 CURVE SMOOTH",
"359 658 OFFCURVE",
"411 740 OFFCURVE",
"614 740 CURVE SMOOTH",
"743 740 OFFCURVE",
"828 654 OFFCURVE",
"828 524 CURVE SMOOTH",
"828 258 OFFCURVE",
"510 9 OFFCURVE",
"251 9 CURVE SMOOTH",
"-83 9 OFFCURVE",
"30 354 OFFCURVE",
"317 354 CURVE SMOOTH",
"376 354 OFFCURVE",
"513 350 OFFCURVE",
"594 286 CURVE",
"606 276 OFFCURVE",
"623 293 OFFCURVE",
"611 303 CURVE"
);
}
);
width = 873;
}
);
unicode = 018F;
},
{
glyphname = T;
lastChange = "2021-11-10 00:36:21 +0000";
layers = (
{
layerId = "6B4F01CB-8044-4D82-912B-2C5A8D883AAC";
paths = (
{
closed = 1;
nodes = (
"1064 624 OFFCURVE",
"1046 647 OFFCURVE",
"1021 665 CURVE SMOOTH",
"929 729 OFFCURVE",
"720 755 OFFCURVE",
"615 755 CURVE SMOOTH",
"531 755 OFFCURVE",
"352 748 OFFCURVE",
"245 687 CURVE SMOOTH",
"193 657 OFFCURVE",
"139 604 OFFCURVE",
"139 540 CURVE SMOOTH",
"139 459 OFFCURVE",
"205 469 OFFCURVE",
"205 520 CURVE SMOOTH",
"205 559 OFFCURVE",
"240 600 OFFCURVE",
"274 623 CURVE SMOOTH",
"405 710 OFFCURVE",
"760 704 OFFCURVE",
"890 621 CURVE SMOOTH",
"901 614 OFFCURVE",
"912 630 OFFCURVE",
"900 637 CURVE SMOOTH",
"765 724 OFFCURVE",
"401 731 OFFCURVE",
"262 639 CURVE SMOOTH",
"227 616 OFFCURVE",
"185 570 OFFCURVE",
"185 520 CURVE SMOOTH",
"185 492 OFFCURVE",
"159 490 OFFCURVE",
"159 540 CURVE SMOOTH",
"159 593 OFFCURVE",
"204 640 OFFCURVE",
"255 669 CURVE SMOOTH",
"357 728 OFFCURVE",
"530 735 OFFCURVE",
"615 735 CURVE SMOOTH",
"707 735 OFFCURVE",
"820 719 OFFCURVE",
"906 693 CURVE SMOOTH",
"932 685 OFFCURVE",
"1050 648 OFFCURVE",
"1038 602 CURVE SMOOTH",
"1033 584 OFFCURVE",
"1022 581 OFFCURVE",
"1009 583 CURVE SMOOTH",
"984 587 OFFCURVE",
"961 616 OFFCURVE",
"951 602 CURVE",
"951 602 OFFCURVE",
"837 452 OFFCURVE",
"725 307 CURVE SMOOTH",
"529 53 OFFCURVE",
"324 -2 OFFCURVE",
"205 -2 CURVE SMOOTH",
"126 -2 OFFCURVE",
"39 32 OFFCURVE",
"57 115 CURVE SMOOTH",
"78 215 OFFCURVE",
"212 283 OFFCURVE",
"337 283 CURVE SMOOTH",
"371 283 OFFCURVE",
"456 272 OFFCURVE",
"489 241 CURVE SMOOTH",
"518 214 OFFCURVE",
"493 173 OFFCURVE",
"459 205 CURVE SMOOTH",
"439 224 OFFCURVE",
"398 253 OFFCURVE",
"334 253 CURVE SMOOTH",
"108 253 OFFCURVE",
"18 35 OFFCURVE",
"231 35 CURVE SMOOTH",
"484 35 OFFCURVE",
"735 395 OFFCURVE",
"882 582 CURVE SMOOTH",
"890 592 OFFCURVE",
"874 605 OFFCURVE",
"866 594 CURVE SMOOTH",
"737 430 OFFCURVE",
"478 55 OFFCURVE",
"231 55 CURVE SMOOTH",
"42 55 OFFCURVE",
"142 233 OFFCURVE",
"334 233 CURVE SMOOTH",
"391 233 OFFCURVE",
"428 207 OFFCURVE",
"445 191 CURVE SMOOTH",
"499 141 OFFCURVE",
"552 210 OFFCURVE",
"503 256 CURVE SMOOTH",
"463 293 OFFCURVE",
"371 303 OFFCURVE",
"337 303 CURVE SMOOTH",
"209 303 OFFCURVE",
"61 234 OFFCURVE",
"37 119 CURVE SMOOTH",
"14 12 OFFCURVE",
"129 -22 OFFCURVE",
"205 -22 CURVE SMOOTH",
"331 -22 OFFCURVE",
"541 36 OFFCURVE",
"741 295 CURVE SMOOTH",
"838 420 OFFCURVE",
"937 550 OFFCURVE",
"961 582 CURVE",
"993 562 OFFCURVE",
"1043 545 OFFCURVE",
"1057 597 CURVE SMOOTH"
);
}
);
width = 810;
}
);
note = T;
unicode = 0054;
},
{
glyphname = U;
lastChange = "2021-11-10 00:36:21 +0000";
layers = (
{
layerId = "6B4F01CB-8044-4D82-912B-2C5A8D883AAC";
paths = (
{
closed = 1;
nodes = (
"698 181 OFFCURVE",
"683 195 OFFCURVE",
"674 185 CURVE SMOOTH",
"565 62 OFFCURVE",
"461 8 OFFCURVE",
"392 15 CURVE SMOOTH",
"327 22 OFFCURVE",
"285 85 OFFCURVE",
"307 221 CURVE SMOOTH",
"316 275 OFFCURVE",
"405 461 OFFCURVE",
"504 569 CURVE SMOOTH",
"513 579 OFFCURVE",
"498 593 OFFCURVE",
"489 583 CURVE SMOOTH",
"388 473 OFFCURVE",
"297 283 OFFCURVE",
"288 225 CURVE SMOOTH",
"265 86 OFFCURVE",
"306 4 OFFCURVE",
"390 -5 CURVE SMOOTH",
"469 -13 OFFCURVE",
"579 48 OFFCURVE",
"689 171 CURVE SMOOTH"
);
},
{
closed = 1;
nodes = (
"991 109 OFFCURVE",
"976 122 OFFCURVE",
"967 112 CURVE SMOOTH",
"888 26 OFFCURVE",
"824 8 OFFCURVE",
"769 8 CURVE SMOOTH",
"714 8 OFFCURVE",
"679 84 OFFCURVE",
"685 136 CURVE SMOOTH",
"687 149 OFFCURVE",
"667 151 OFFCURVE",
"665 138 CURVE SMOOTH",
"659 84 OFFCURVE",
"695 -12 OFFCURVE",
"769 -12 CURVE SMOOTH",
"830 -12 OFFCURVE",
"899 8 OFFCURVE",
"982 99 CURVE SMOOTH"
);
},
{
closed = 1;
nodes = (
"429 744 OFFCURVE",
"117 821 OFFCURVE",
"1 569 CURVE SMOOTH",
"-25 514 OFFCURVE",
"52 501 OFFCURVE",
"75 553 CURVE SMOOTH",
"143 709 OFFCURVE",
"383 666 OFFCURVE",
"527 625 CURVE SMOOTH",
"539 622 OFFCURVE",
"545 641 OFFCURVE",
"532 645 CURVE SMOOTH",
"395 684 OFFCURVE",
"133 736 OFFCURVE",
"56 561 CURVE SMOOTH",
"45 536 OFFCURVE",
"4 529 OFFCURVE",
"19 561 CURVE SMOOTH",
"127 795 OFFCURVE",
"418 725 OFFCURVE",
"553 681 CURVE SMOOTH",
"566 677 OFFCURVE",
"572 697 OFFCURVE",
"559 701 CURVE SMOOTH"
);
},
{
closed = 1;
nodes = (
"1007 720 OFFCURVE",
"948 797 OFFCURVE",
"899 704 CURVE SMOOTH",
"804 525 OFFCURVE",
"691 268 OFFCURVE",
"527 145 CURVE SMOOTH",
"423 67 OFFCURVE",
"395 103 OFFCURVE",
"391 155 CURVE SMOOTH",
"384 254 OFFCURVE",
"473 419 OFFCURVE",
"533 495 CURVE SMOOTH",
"555 523 OFFCURVE",
"653 642 OFFCURVE",
"610 684 CURVE SMOOTH",
"601 693 OFFCURVE",
"587 679 OFFCURVE",
"596 670 CURVE SMOOTH",
"624 642 OFFCURVE",
"531 525 OFFCURVE",
"517 508 CURVE SMOOTH",
"457 431 OFFCURVE",
"363 261 OFFCURVE",
"371 153 CURVE SMOOTH",
"376 77 OFFCURVE",
"430 47 OFFCURVE",
"539 129 CURVE SMOOTH",
"708 255 OFFCURVE",
"819 511 OFFCURVE",
"916 694 CURVE SMOOTH",
"953 764 OFFCURVE",
"977 704 OFFCURVE",
"969 685 CURVE SMOOTH",
"964 673 OFFCURVE",
"983 665 OFFCURVE",
"988 677 CURVE SMOOTH"
);
},
{
closed = 1;
nodes = (
"998 198 OFFCURVE",
"983 210 OFFCURVE",
"974 200 CURVE SMOOTH",
"874 78 OFFCURVE",
"806 58 OFFCURVE",
"782 82 CURVE SMOOTH",
"755 109 OFFCURVE",
"759 202 OFFCURVE",
"830 354 CURVE SMOOTH",
"843 382 OFFCURVE",
"922 552 OFFCURVE",
"970 633 CURVE SMOOTH",
"977 644 OFFCURVE",
"960 655 OFFCURVE",
"953 643 CURVE SMOOTH",
"905 562 OFFCURVE",
"825 390 OFFCURVE",
"812 362 CURVE SMOOTH",
"743 214 OFFCURVE",
"729 106 OFFCURVE",
"768 68 CURVE SMOOTH",
"810 26 OFFCURVE",
"894 73 OFFCURVE",
"989 188 CURVE SMOOTH"
);
}
);
width = 981;
}
);
note = U;
unicode = 0055;
},
{
glyphname = V;
lastChange = "2021-11-10 00:36:21 +0000";
layers = (
{
layerId = "6B4F01CB-8044-4D82-912B-2C5A8D883AAC";
paths = (
{
closed = 1;
nodes = (
"715 820 OFFCURVE",
"600 534 OFFCURVE",
"479 325 CURVE SMOOTH",
"440 258 OFFCURVE",
"402 203 OFFCURVE",
"358 171 CURVE SMOOTH",
"347 163 OFFCURVE",
"359 147 OFFCURVE",
"370 155 CURVE SMOOTH",
"418 189 OFFCURVE",
"458 248 OFFCURVE",
"497 315 CURVE SMOOTH",
"614 516 OFFCURVE",
"726 800 OFFCURVE",
"1010 793 CURVE SMOOTH",
"1037 792 OFFCURVE",
"1032 767 OFFCURVE",
"1005 767 CURVE SMOOTH",
"876 765 OFFCURVE",
"775 677 OFFCURVE",
"697 575 CURVE SMOOTH",
"628 485 OFFCURVE",
"580 385 OFFCURVE",
"524 288 CURVE SMOOTH",
"448 155 OFFCURVE",
"317 1 OFFCURVE",
"245 -17 CURVE SMOOTH",
"234 -20 OFFCURVE",
"228 -17 OFFCURVE",
"226 -10 CURVE SMOOTH",
"221 10 OFFCURVE",
"240 27 OFFCURVE",
"253 38 CURVE",
"255 41 LINE SMOOTH",
"348 228 OFFCURVE",
"372 548 OFFCURVE",
"299 678 CURVE SMOOTH",
"248 767 OFFCURVE",
"163 779 OFFCURVE",
"111 728 CURVE SMOOTH",
"5 623 OFFCURVE",
"127 398 OFFCURVE",
"237 334 CURVE SMOOTH",
"250 327 OFFCURVE",
"279 316 OFFCURVE",
"289 309 CURVE",
"289 308 OFFCURVE",
"290 305 OFFCURVE",
"283 300 CURVE SMOOTH",
"217 259 OFFCURVE",
"103 399 OFFCURVE",
"74 445 CURVE SMOOTH",
"-100 724 OFFCURVE",
"186 957 OFFCURVE",
"345 706 CURVE SMOOTH",
"420 587 OFFCURVE",
"394 356 OFFCURVE",
"362 221 CURVE SMOOTH",
"359 208 OFFCURVE",
"379 204 OFFCURVE",
"382 217 CURVE SMOOTH",
"413 351 OFFCURVE",
"442 590 OFFCURVE",
"362 717 CURVE SMOOTH",
"190 989 OFFCURVE",
"-132 737 OFFCURVE",
"57 435 CURVE SMOOTH",
"92 378 OFFCURVE",
"213 233 OFFCURVE",
"293 284 CURVE SMOOTH",
"300 288 OFFCURVE",
"316 302 OFFCURVE",
"306 319 CURVE SMOOTH",
"301 327 OFFCURVE",
"290 330 OFFCURVE",
"283 334 CURVE",
"222 360 OFFCURVE",
"182 396 OFFCURVE",
"146 454 CURVE SMOOTH",
"-6 697 OFFCURVE",
"191 827 OFFCURVE",
"281 668 CURVE SMOOTH",
"350 546 OFFCURVE",
"328 236 OFFCURVE",
"238 52 CURVE",
"230 45 OFFCURVE",
"221 36 OFFCURVE",
"214 26 CURVE SMOOTH",
"195 -4 OFFCURVE",
"206 -48 OFFCURVE",
"250 -37 CURVE SMOOTH",
"332 -17 OFFCURVE",
"466 147 OFFCURVE",
"542 278 CURVE SMOOTH",
"561 311 OFFCURVE",
"584 357 OFFCURVE",
"613 408 CURVE SMOOTH",
"693 550 OFFCURVE",
"822 744 OFFCURVE",
"1005 747 CURVE SMOOTH",
"1060 748 OFFCURVE",
"1063 812 OFFCURVE",
"1010 813 CURVE SMOOTH"
);
}
);
width = 622;
}
);
note = V;
unicode = 0056;
},
{
glyphname = W;
lastChange = "2021-11-10 00:36:21 +0000";
layers = (
{
layerId = "6B4F01CB-8044-4D82-912B-2C5A8D883AAC";
paths = (
{
closed = 1;
nodes = (
"739 561 OFFCURVE",
"674 625 OFFCURVE",
"624 532 CURVE SMOOTH",
"548 389 OFFCURVE",
"479 245 OFFCURVE",
"345 145 CURVE SMOOTH",
"267 87 OFFCURVE",
"234 98 OFFCURVE",
"223 121 CURVE SMOOTH",
"208 151 OFFCURVE",
"218 213 OFFCURVE",
"255 282 CURVE SMOOTH",
"306 377 OFFCURVE",
"400 464 OFFCURVE",
"420 571 CURVE SMOOTH",
"480 888 OFFCURVE",
"73 923 OFFCURVE",
"5 573 CURVE SMOOTH",
"-8 507 OFFCURVE",
"-19 319 OFFCURVE",
"75 301 CURVE SMOOTH",
"83 299 OFFCURVE",
"104 299 OFFCURVE",
"108 318 CURVE SMOOTH",
"110 327 OFFCURVE",
"105 337 OFFCURVE",
"101 345 CURVE SMOOTH",
"75 406 OFFCURVE",
"71 458 OFFCURVE",
"84 526 CURVE SMOOTH",
"138 806 OFFCURVE",
"371 768 OFFCURVE",
"328 590 CURVE SMOOTH",
"307 501 OFFCURVE",
"217 410 OFFCURVE",
"167 332 CURVE SMOOTH",
"86 206 OFFCURVE",
"87 76 OFFCURVE",
"156 22 CURVE SMOOTH",
"226 -33 OFFCURVE",
"354 -1 OFFCURVE",
"507 171 CURVE SMOOTH",
"516 181 OFFCURVE",
"501 195 OFFCURVE",
"492 185 CURVE SMOOTH",
"338 12 OFFCURVE",
"224 -6 OFFCURVE",
"169 37 CURVE SMOOTH",
"112 82 OFFCURVE",
"104 198 OFFCURVE",
"184 322 CURVE SMOOTH",
"236 403 OFFCURVE",
"325 491 OFFCURVE",
"348 586 CURVE SMOOTH",
"372 685 OFFCURVE",
"317 752 OFFCURVE",
"244 750 CURVE SMOOTH",
"95 746 OFFCURVE",
"31 498 OFFCURVE",
"68 376 CURVE SMOOTH",
"72 362 OFFCURVE",
"87 335 OFFCURVE",
"89 322 CURVE",
"89 322 OFFCURVE",
"87 319 OFFCURVE",
"79 320 CURVE SMOOTH",
"2 335 OFFCURVE",
"14 515 OFFCURVE",
"24 569 CURVE SMOOTH",
"87 892 OFFCURVE",
"456 866 OFFCURVE",
"401 575 CURVE SMOOTH",
"386 498 OFFCURVE",
"328 427 OFFCURVE",
"283 363 CURVE SMOOTH",
"241 303 OFFCURVE",
"171 183 OFFCURVE",
"205 112 CURVE SMOOTH",
"226 67 OFFCURVE",
"282 73 OFFCURVE",
"357 129 CURVE SMOOTH",
"494 231 OFFCURVE",
"564 376 OFFCURVE",
"642 522 CURVE SMOOTH",
"678 591 OFFCURVE",
"711 547 OFFCURVE",
"703 527 CURVE SMOOTH",
"697 514 OFFCURVE",
"716 507 OFFCURVE",
"721 519 CURVE SMOOTH"
);
},
{
closed = 1;
nodes = (
"1051 527 OFFCURVE",
"1042 681 OFFCURVE",
"901 756 CURVE SMOOTH",
"858 779 OFFCURVE",
"807 709 OFFCURVE",
"860 688 CURVE SMOOTH",
"960 648 OFFCURVE",
"953 515 OFFCURVE",
"905 384 CURVE SMOOTH",
"889 340 OFFCURVE",
"849 261 OFFCURVE",
"799 193 CURVE SMOOTH",
"748 123 OFFCURVE",
"674 69 OFFCURVE",
"622 73 CURVE SMOOTH",
"593 75 OFFCURVE",
"573 111 OFFCURVE",
"593 201 CURVE SMOOTH",
"612 284 OFFCURVE",
"664 394 OFFCURVE",
"706 470 CURVE SMOOTH",
"713 482 OFFCURVE",
"695 492 OFFCURVE",
"688 480 CURVE SMOOTH",
"645 403 OFFCURVE",
"593 291 OFFCURVE",
"573 205 CURVE SMOOTH",
"554 120 OFFCURVE",
"567 57 OFFCURVE",
"620 53 CURVE SMOOTH",
"683 48 OFFCURVE",
"763 110 OFFCURVE",
"815 181 CURVE SMOOTH",
"866 250 OFFCURVE",
"906 331 OFFCURVE",
"923 378 CURVE SMOOTH",
"970 505 OFFCURVE",
"987 659 OFFCURVE",
"868 706 CURVE SMOOTH",
"841 717 OFFCURVE",
"874 747 OFFCURVE",
"891 738 CURVE SMOOTH",
"1020 669 OFFCURVE",
"1031 530 OFFCURVE",
"989 392 CURVE SMOOTH",
"939 224 OFFCURVE",
"790 7 OFFCURVE",
"599 7 CURVE SMOOTH",
"530 7 OFFCURVE",
"497 85 OFFCURVE",
"503 136 CURVE SMOOTH",
"505 149 OFFCURVE",
"485 151 OFFCURVE",
"483 138 CURVE SMOOTH",
"477 83 OFFCURVE",
"512 -13 OFFCURVE",
"599 -13 CURVE SMOOTH",
"804 -13 OFFCURVE",
"958 217 OFFCURVE",
"1009 386 CURVE SMOOTH"
);
}
);
width = 992;
}
);
note = W;
unicode = 0057;
},
{
glyphname = X;
lastChange = "2021-11-10 00:36:21 +0000";
layers = (
{
layerId = "6B4F01CB-8044-4D82-912B-2C5A8D883AAC";
paths = (
{
closed = 1;
nodes = (
"727 611 OFFCURVE",
"654 527 OFFCURVE",
"584 449 CURVE SMOOTH",
"515 371 OFFCURVE",
"448 298 OFFCURVE",
"437 286 CURVE SMOOTH",
"428 276 OFFCURVE",
"414 290 OFFCURVE",
"423 300 CURVE SMOOTH",
"433 312 OFFCURVE",
"500 384 OFFCURVE",
"569 462 CURVE SMOOTH",
"639 541 OFFCURVE",
"712 624 OFFCURVE",
"736 657 CURVE SMOOTH",
"769 704 OFFCURVE",
"718 718 OFFCURVE",
"683 677 CURVE SMOOTH",
"632 619 OFFCURVE",
"423 375 OFFCURVE",
"412 361 CURVE SMOOTH",
"404 350 OFFCURVE",
"388 363 OFFCURVE",
"396 373 CURVE SMOOTH",
"407 387 OFFCURVE",
"617 632 OFFCURVE",
"667 690 CURVE SMOOTH",
"721 753 OFFCURVE",
"799 712 OFFCURVE",
"752 646 CURVE SMOOTH"
);
},
{
closed = 1;
nodes = (
"683 94 OFFCURVE",
"544 -40 OFFCURVE",
"425 178 CURVE SMOOTH",
"357 302 OFFCURVE",
"319 526 OFFCURVE",
"298 669 CURVE SMOOTH",
"295 686 OFFCURVE",
"288 727 OFFCURVE",
"272 736 CURVE SMOOTH",
"263 740 OFFCURVE",
"239 735 OFFCURVE",
"189 646 CURVE SMOOTH",
"155 586 OFFCURVE",
"63 443 OFFCURVE",
"-6 348 CURVE SMOOTH",
"-14 338 OFFCURVE",
"-31 349 OFFCURVE",
"-23 360 CURVE SMOOTH",
"45 454 OFFCURVE",
"138 596 OFFCURVE",
"171 656 CURVE SMOOTH",
"217 738 OFFCURVE",
"252 769 OFFCURVE",
"281 754 CURVE SMOOTH",
"306 741 OFFCURVE",
"314 697 OFFCURVE",
"318 673 CURVE SMOOTH",
"344 502 OFFCURVE",
"435 -195 OFFCURVE",
"738 199 CURVE SMOOTH",
"746 210 OFFCURVE",
"762 197 OFFCURVE",
"754 187 CURVE SMOOTH"
);
},
{
closed = 1;
nodes = (
"219 550 OFFCURVE",
"134 404 OFFCURVE",
"-2 273 CURVE SMOOTH",
"-12 263 OFFCURVE",
"-26 278 OFFCURVE",
"-16 287 CURVE SMOOTH",
"118 416 OFFCURVE",
"201 560 OFFCURVE",
"231 614 CURVE SMOOTH",
"238 626 OFFCURVE",
"256 616 OFFCURVE",
"249 604 CURVE SMOOTH"
);
},
{
closed = 1;
nodes = (
"309 139 OFFCURVE",
"186 6 OFFCURVE",
"135 -52 CURVE SMOOTH",
"81 -115 OFFCURVE",
"-3 -82 OFFCURVE",
"45 -16 CURVE SMOOTH",
"58 3 OFFCURVE",
"97 46 OFFCURVE",
"140 94 CURVE SMOOTH",
"184 142 OFFCURVE",
"234 196 OFFCURVE",
"270 238 CURVE SMOOTH",
"279 248 OFFCURVE",
"294 234 OFFCURVE",
"286 224 CURVE SMOOTH",
"249 182 OFFCURVE",
"199 128 OFFCURVE",
"155 80 CURVE SMOOTH",
"111 32 OFFCURVE",
"74 -10 OFFCURVE",
"61 -28 CURVE SMOOTH",
"27 -75 OFFCURVE",
"86 -78 OFFCURVE",
"120 -39 CURVE SMOOTH",
"170 19 OFFCURVE",
"293 151 OFFCURVE",
"304 165 CURVE SMOOTH",
"312 176 OFFCURVE",
"328 163 OFFCURVE",
"320 153 CURVE SMOOTH"
);
},
{
closed = 1;
nodes = (
"662 25 OFFCURVE",
"611 -5 OFFCURVE",
"554 -5 CURVE SMOOTH",
"380 -5 OFFCURVE",
"289 227 OFFCURVE",
"254 472 CURVE SMOOTH",
"252 485 OFFCURVE",
"272 488 OFFCURVE",
"274 474 CURVE SMOOTH",
"310 225 OFFCURVE",
"400 15 OFFCURVE",
"554 15 CURVE SMOOTH",
"605 15 OFFCURVE",
"654 40 OFFCURVE",
"691 69 CURVE SMOOTH",
"706 81 OFFCURVE",
"717 63 OFFCURVE",
"704 54 CURVE SMOOTH"
);
}
);
width = 746;
}
);
note = X;
unicode = 0058;
},
{
glyphname = Y;
lastChange = "2021-11-10 00:36:21 +0000";
layers = (
{
layerId = "6B4F01CB-8044-4D82-912B-2C5A8D883AAC";
paths = (
{
closed = 1;
nodes = (
"670 154 OFFCURVE",
"655 168 OFFCURVE",
"647 158 CURVE SMOOTH",
"461 -52 OFFCURVE",
"267 -29 OFFCURVE",
"307 221 CURVE SMOOTH",
"316 275 OFFCURVE",
"405 461 OFFCURVE",
"504 569 CURVE SMOOTH",
"513 579 OFFCURVE",
"498 593 OFFCURVE",
"489 583 CURVE SMOOTH",
"388 473 OFFCURVE",
"297 283 OFFCURVE",
"288 225 CURVE SMOOTH",
"239 -73 OFFCURVE",
"483 -57 OFFCURVE",
"661 144 CURVE SMOOTH"
);
},
{
closed = 1;
nodes = (
"1005 722 OFFCURVE",
"935 801 OFFCURVE",
"898 703 CURVE SMOOTH",
"852 583 OFFCURVE",
"806 462 OFFCURVE",
"742 350 CURVE SMOOTH",
"696 269 OFFCURVE",
"608 172 OFFCURVE",
"531 121 CURVE SMOOTH",
"451 68 OFFCURVE",
"398 69 OFFCURVE",
"391 155 CURVE SMOOTH",
"384 254 OFFCURVE",
"473 419 OFFCURVE",
"533 495 CURVE SMOOTH",
"555 523 OFFCURVE",
"653 641 OFFCURVE",
"610 684 CURVE SMOOTH",
"600 694 OFFCURVE",
"587 679 OFFCURVE",
"596 670 CURVE SMOOTH",
"624 642 OFFCURVE",
"531 525 OFFCURVE",
"517 508 CURVE SMOOTH",
"457 431 OFFCURVE",
"363 261 OFFCURVE",
"371 153 CURVE SMOOTH",
"379 38 OFFCURVE",
"464 52 OFFCURVE",
"542 104 CURVE SMOOTH",
"622 157 OFFCURVE",
"712 257 OFFCURVE",
"760 340 CURVE SMOOTH",
"824 453 OFFCURVE",
"871 575 OFFCURVE",
"917 696 CURVE SMOOTH",
"945 769 OFFCURVE",
"976 703 OFFCURVE",
"969 685 CURVE SMOOTH",
"911 530 OFFCURVE",
"830 350 OFFCURVE",
"742 183 CURVE SMOOTH",
"665 36 OFFCURVE",
"586 -100 OFFCURVE",
"474 -189 CURVE SMOOTH",
"411 -239 OFFCURVE",
"331 -270 OFFCURVE",
"270 -271 CURVE SMOOTH",
"210 -272 OFFCURVE",
"169 -245 OFFCURVE",
"173 -178 CURVE SMOOTH",
"173 -169 OFFCURVE",
"188 -136 OFFCURVE",
"200 -146 CURVE SMOOTH",
"223 -164 OFFCURVE",
"217 -266 OFFCURVE",
"333 -217 CURVE SMOOTH",
"453 -166 OFFCURVE",
"561 -26 OFFCURVE",
"634 73 CURVE SMOOTH",
"642 84 OFFCURVE",
"626 96 OFFCURVE",
"618 85 CURVE SMOOTH",
"558 4 OFFCURVE",
"492 -77 OFFCURVE",
"437 -125 CURVE SMOOTH",
"401 -156 OFFCURVE",
"261 -267 OFFCURVE",
"235 -171 CURVE SMOOTH",
"224 -133 OFFCURVE",
"204 -115 OFFCURVE",
"181 -128 CURVE SMOOTH",
"131 -157 OFFCURVE",
"135 -293 OFFCURVE",
"270 -291 CURVE SMOOTH",
"337 -290 OFFCURVE",
"420 -257 OFFCURVE",
"486 -205 CURVE SMOOTH",
"602 -113 OFFCURVE",
"683 27 OFFCURVE",
"760 173 CURVE SMOOTH",
"848 342 OFFCURVE",
"931 523 OFFCURVE",
"988 677 CURVE SMOOTH"
);
},
{
closed = 1;
nodes = (
"429 744 OFFCURVE",
"117 821 OFFCURVE",
"1 569 CURVE SMOOTH",
"-25 514 OFFCURVE",
"52 501 OFFCURVE",
"75 553 CURVE SMOOTH",
"143 709 OFFCURVE",
"383 666 OFFCURVE",
"527 625 CURVE SMOOTH",
"539 622 OFFCURVE",
"545 641 OFFCURVE",
"532 645 CURVE SMOOTH",
"395 684 OFFCURVE",
"133 736 OFFCURVE",
"56 561 CURVE SMOOTH",
"45 536 OFFCURVE",
"4 529 OFFCURVE",
"19 561 CURVE SMOOTH",
"127 795 OFFCURVE",
"418 725 OFFCURVE",
"553 681 CURVE SMOOTH",
"566 677 OFFCURVE",
"572 697 OFFCURVE",
"559 701 CURVE SMOOTH"
);
}
);
width = 907;
}
);
note = Y;
unicode = 0059;
},
{
glyphname = Z;
lastChange = "2021-11-10 00:36:21 +0000";
layers = (
{
layerId = "6B4F01CB-8044-4D82-912B-2C5A8D883AAC";
paths = (
{
closed = 1;
nodes = (
"673 276 OFFCURVE",
"655 268 OFFCURVE",
"660 256 CURVE SMOOTH",
"708 136 OFFCURVE",
"669 56 OFFCURVE",
"551 56 CURVE SMOOTH",
"417 56 OFFCURVE",
"317 160 OFFCURVE",
"189 180 CURVE SMOOTH",
"44 203 OFFCURVE",
"-72 135 OFFCURVE",
"-60 47 CURVE SMOOTH",
"-58 34 OFFCURVE",
"-38 37 OFFCURVE",
"-40 50 CURVE SMOOTH",
"-48 114 OFFCURVE",
"41 183 OFFCURVE",
"186 160 CURVE SMOOTH",
"317 140 OFFCURVE",
"409 36 OFFCURVE",
"551 36 CURVE SMOOTH",
"689 36 OFFCURVE",
"729 136 OFFCURVE",
"678 264 CURVE SMOOTH"
);
},
{
closed = 1;
nodes = (
"730 277 OFFCURVE",
"713 268 OFFCURVE",
"719 256 CURVE SMOOTH",
"780 137 OFFCURVE",
"695 -4 OFFCURVE",
"532 -4 CURVE SMOOTH",
"399 -4 OFFCURVE",
"295 101 OFFCURVE",
"164 119 CURVE SMOOTH",
"75 132 OFFCURVE",
"23 112 OFFCURVE",
"8 78 CURVE SMOOTH",
"-7 42 OFFCURVE",
"19 2 OFFCURVE",
"62 -14 CURVE SMOOTH",
"75 -19 OFFCURVE",
"82 -1 OFFCURVE",
"69 4 CURVE SMOOTH",
"31 18 OFFCURVE",
"17 49 OFFCURVE",
"26 70 CURVE SMOOTH",
"34 90 OFFCURVE",
"72 113 OFFCURVE",
"161 100 CURVE SMOOTH",
"294 81 OFFCURVE",
"392 -24 OFFCURVE",
"532 -24 CURVE SMOOTH",
"707 -24 OFFCURVE",
"806 131 OFFCURVE",
"737 266 CURVE"
);
},
{
closed = 1;
nodes = (
"573 593 OFFCURVE",
"562 609 OFFCURVE",
"551 602 CURVE SMOOTH",
"382 489 OFFCURVE",
"184 335 OFFCURVE",
"44 192 CURVE SMOOTH",
"35 182 OFFCURVE",
"49 168 OFFCURVE",
"58 178 CURVE SMOOTH",
"158 280 OFFCURVE",
"284 382 OFFCURVE",
"385 458 CURVE SMOOTH",
"486 535 OFFCURVE",
"562 585 OFFCURVE",
"562 585 CURVE"
);
},
{
closed = 1;
nodes = (
"770 723 OFFCURVE",
"734 737 OFFCURVE",
"683 732 CURVE SMOOTH",
"547 718 OFFCURVE",
"418 781 OFFCURVE",
"282 748 CURVE SMOOTH",
"106 706 OFFCURVE",
"43 537 OFFCURVE",
"148 427 CURVE SMOOTH",
"157 417 OFFCURVE",
"171 431 OFFCURVE",
"162 441 CURVE SMOOTH",
"72 536 OFFCURVE",
"121 689 OFFCURVE",
"286 728 CURVE SMOOTH",
"420 760 OFFCURVE",
"551 698 OFFCURVE",
"685 712 CURVE SMOOTH",
"821 726 OFFCURVE",
"683 607 OFFCURVE",
"656 586 CURVE SMOOTH",
"619 558 OFFCURVE",
"545 512 OFFCURVE",
"457 448 CURVE SMOOTH",
"368 384 OFFCURVE",
"266 301 OFFCURVE",
"173 199 CURVE SMOOTH",
"164 189 OFFCURVE",
"179 176 OFFCURVE",
"188 186 CURVE SMOOTH",
"279 286 OFFCURVE",
"381 368 OFFCURVE",
"469 432 CURVE SMOOTH",
"557 496 OFFCURVE",
"631 542 OFFCURVE",
"668 570 CURVE SMOOTH",
"723 612 OFFCURVE",
"757 653 OFFCURVE",
"763 684 CURVE SMOOTH"
);
},
{
closed = 1;
nodes = (
"675 650 OFFCURVE",
"673 670 OFFCURVE",
"660 669 CURVE SMOOTH",
"526 657 OFFCURVE",
"417 721 OFFCURVE",
"277 687 CURVE SMOOTH",
"139 654 OFFCURVE",
"122 551 OFFCURVE",
"206 443 CURVE SMOOTH",
"214 432 OFFCURVE",
"230 445 OFFCURVE",
"222 455 CURVE SMOOTH",
"144 555 OFFCURVE",
"162 639 OFFCURVE",
"282 668 CURVE SMOOTH",
"411 699 OFFCURVE",
"533 637 OFFCURVE",
"662 649 CURVE SMOOTH"
);
}
);
width = 764;
}
);
note = Z;
unicode = 005A;
},
{
glyphname = a;
lastChange = "2021-11-10 00:36:21 +0000";
layers = (
{
layerId = "6B4F01CB-8044-4D82-912B-2C5A8D883AAC";
paths = (
{
closed = 1;
nodes = (
"159 52 OFFCURVE",
"143 64 OFFCURVE",
"135 53 CURVE SMOOTH",
"97 -1 OFFCURVE",
"-4 -1 OFFCURVE",
"0 85 CURVE SMOOTH",
"1 98 OFFCURVE",
"-19 99 OFFCURVE",
"-20 86 CURVE SMOOTH",
"-25 -22 OFFCURVE",
"102 -28 OFFCURVE",
"151 41 CURVE SMOOTH"
);
},
{
closed = 1;
nodes = (
"413 64 OFFCURVE",
"401 79 OFFCURVE",
"391 71 CURVE SMOOTH",
"349 40 OFFCURVE",
"304 15 OFFCURVE",
"253 15 CURVE SMOOTH",
"189 15 OFFCURVE",
"178 72 OFFCURVE",
"199 109 CURVE SMOOTH",
"205 121 OFFCURVE",
"188 131 OFFCURVE",
"181 119 CURVE SMOOTH",
"156 74 OFFCURVE",
"167 -5 OFFCURVE",
"253 -5 CURVE SMOOTH",
"311 -5 OFFCURVE",
"360 23 OFFCURVE",
"403 55 CURVE"
);
},
{
closed = 1;
nodes = (
"239 359 OFFCURVE",
"223 363 OFFCURVE",
"209 363 CURVE SMOOTH",
"115 363 OFFCURVE",
"36 263 OFFCURVE",
"-8 198 CURVE SMOOTH",
"-16 187 OFFCURVE",
"1 176 OFFCURVE",
"8 187 CURVE SMOOTH",
"54 254 OFFCURVE",
"127 343 OFFCURVE",
"209 343 CURVE SMOOTH",
"218 343 OFFCURVE",
"226 341 OFFCURVE",
"233 339 CURVE SMOOTH",
"240 338 OFFCURVE",
"244 336 OFFCURVE",
"244 336 CURVE",
"257 332 OFFCURVE",
"264 349 OFFCURVE",
"252 354 CURVE SMOOTH"
);
},
{
closed = 1;
nodes = (
"474 197 OFFCURVE",
"459 210 OFFCURVE",
"451 199 CURVE SMOOTH",
"418 156 OFFCURVE",
"343 85 OFFCURVE",
"294 79 CURVE SMOOTH",
"262 75 OFFCURVE",
"263 105 OFFCURVE",
"283 147 CURVE SMOOTH",
"309 199 OFFCURVE",
"361 278 OFFCURVE",
"378 303 CURVE SMOOTH",
"417 362 OFFCURVE",
"339 417 OFFCURVE",
"275 323 CURVE SMOOTH",
"244 277 OFFCURVE",
"134 79 OFFCURVE",
"76 79 CURVE SMOOTH",
"64 79 OFFCURVE",
"57 92 OFFCURVE",
"57 111 CURVE SMOOTH",
"57 171 OFFCURVE",
"159 298 OFFCURVE",
"218 294 CURVE SMOOTH",
"231 293 OFFCURVE",
"233 313 OFFCURVE",
"219 314 CURVE SMOOTH",
"145 319 OFFCURVE",
"37 178 OFFCURVE",
"37 111 CURVE SMOOTH",
"37 93 OFFCURVE",
"44 59 OFFCURVE",
"76 59 CURVE SMOOTH",
"114 59 OFFCURVE",
"153 104 OFFCURVE",
"189 154 CURVE SMOOTH",
"225 205 OFFCURVE",
"261 267 OFFCURVE",
"291 311 CURVE SMOOTH",
"338 380 OFFCURVE",
"387 353 OFFCURVE",
"362 315 CURVE SMOOTH",
"341 284 OFFCURVE",
"286 202 OFFCURVE",
"261 146 CURVE SMOOTH",
"239 95 OFFCURVE",
"246 51 OFFCURVE",
"297 60 CURVE SMOOTH",
"352 70 OFFCURVE",
"434 141 OFFCURVE",
"467 187 CURVE SMOOTH"
);
}
);
width = 459;
}
);
note = a;
unicode = 0061;
},
{
glyphname = ae;
lastChange = "2021-11-10 00:36:21 +0000";
layers = (
{
layerId = "6B4F01CB-8044-4D82-912B-2C5A8D883AAC";
paths = (
{
closed = 1;
nodes = (
"159 52 OFFCURVE",
"143 64 OFFCURVE",
"135 53 CURVE SMOOTH",
"97 -1 OFFCURVE",
"-4 -1 OFFCURVE",
"0 85 CURVE SMOOTH",
"1 98 OFFCURVE",
"-19 99 OFFCURVE",
"-20 86 CURVE SMOOTH",
"-25 -22 OFFCURVE",
"102 -28 OFFCURVE",
"151 41 CURVE SMOOTH"
);
},
{
closed = 1;
nodes = (
"470 64 OFFCURVE",
"458 79 OFFCURVE",
"448 71 CURVE SMOOTH",
"408 41 OFFCURVE",
"359 21 OFFCURVE",
"310 21 CURVE SMOOTH",
"292 21 OFFCURVE",
"267 25 OFFCURVE",
"246 35 CURVE SMOOTH",
"222 46 OFFCURVE",
"213 59 OFFCURVE",
"213 85 CURVE SMOOTH",
"213 99 OFFCURVE",
"193 99 OFFCURVE",
"193 86 CURVE SMOOTH",
"192 23 OFFCURVE",
"258 1 OFFCURVE",
"310 1 CURVE SMOOTH",
"365 1 OFFCURVE",
"417 23 OFFCURVE",
"460 55 CURVE"
);
},
{
closed = 1;
nodes = (
"239 359 OFFCURVE",
"223 363 OFFCURVE",
"209 363 CURVE SMOOTH",
"115 363 OFFCURVE",
"36 263 OFFCURVE",
"-8 198 CURVE SMOOTH",
"-16 187 OFFCURVE",
"1 176 OFFCURVE",
"8 187 CURVE SMOOTH",
"54 254 OFFCURVE",
"127 343 OFFCURVE",
"209 343 CURVE SMOOTH",
"218 343 OFFCURVE",
"226 341 OFFCURVE",
"233 339 CURVE SMOOTH",
"240 338 OFFCURVE",
"244 336 OFFCURVE",
"244 336 CURVE",
"257 332 OFFCURVE",
"264 349 OFFCURVE",
"252 354 CURVE SMOOTH"
);
},
{
closed = 1;
nodes = (
"417 362 OFFCURVE",
"339 417 OFFCURVE",
"275 323 CURVE SMOOTH",
"244 277 OFFCURVE",
"134 79 OFFCURVE",
"76 79 CURVE SMOOTH",
"64 79 OFFCURVE",
"57 92 OFFCURVE",
"57 111 CURVE SMOOTH",
"57 171 OFFCURVE",
"159 298 OFFCURVE",
"218 294 CURVE SMOOTH",
"231 293 OFFCURVE",
"233 313 OFFCURVE",
"219 314 CURVE SMOOTH",
"145 319 OFFCURVE",
"37 178 OFFCURVE",
"37 111 CURVE SMOOTH",
"37 93 OFFCURVE",
"44 59 OFFCURVE",
"76 59 CURVE SMOOTH",
"114 59 OFFCURVE",
"153 104 OFFCURVE",
"189 154 CURVE SMOOTH",
"225 205 OFFCURVE",
"261 267 OFFCURVE",
"291 311 CURVE SMOOTH",
"338 380 OFFCURVE",
"387 353 OFFCURVE",
"362 315 CURVE SMOOTH",
"354 303 OFFCURVE",
"371 292 OFFCURVE",
"378 303 CURVE SMOOTH"
);
},
{
closed = 1;
nodes = (
"562 197 OFFCURVE",
"546 209 OFFCURVE",
"538 199 CURVE SMOOTH",
"489 140 OFFCURVE",
"393 81 OFFCURVE",
"315 81 CURVE SMOOTH",
"284 81 OFFCURVE",
"263 94 OFFCURVE",
"263 123 CURVE SMOOTH",
"263 183 OFFCURVE",
"380 287 OFFCURVE",
"438 306 CURVE SMOOTH",
"450 310 OFFCURVE",
"444 329 OFFCURVE",
"431 325 CURVE SMOOTH",
"371 305 OFFCURVE",
"243 197 OFFCURVE",
"243 123 CURVE SMOOTH",
"243 78 OFFCURVE",
"279 61 OFFCURVE",
"315 61 CURVE SMOOTH",
"400 61 OFFCURVE",
"501 124 OFFCURVE",
"553 186 CURVE SMOOTH"
);
},
{
closed = 1;
nodes = (
"504 345 OFFCURVE",
"478 367 OFFCURVE",
"442 367 CURVE SMOOTH",
"428 367 OFFCURVE",
"428 347 OFFCURVE",
"442 347 CURVE SMOOTH",
"468 347 OFFCURVE",
"484 332 OFFCURVE",
"484 306 CURVE SMOOTH",
"484 249 OFFCURVE",
"394 174 OFFCURVE",
"337 174 CURVE SMOOTH",
"330 174 OFFCURVE",
"322 176 OFFCURVE",
"316 179 CURVE SMOOTH",
"304 185 OFFCURVE",
"295 168 OFFCURVE",
"307 162 CURVE SMOOTH",
"317 156 OFFCURVE",
"327 154 OFFCURVE",
"337 154 CURVE SMOOTH",
"402 154 OFFCURVE",
"504 235 OFFCURVE",
"504 306 CURVE SMOOTH"
);
}
);
width = 544;
}
);
note = ae;
unicode = 00E6;
},
{
glyphname = b;
lastChange = "2021-11-10 00:36:21 +0000";
layers = (
{
background = {
paths = (
{
closed = 1;
nodes = (
"555 610 OFFCURVE",
"503 624 OFFCURVE",
"480 624 CURVE SMOOTH",
"321 624 OFFCURVE",
"92 307 OFFCURVE",
"-8 194 CURVE SMOOTH",
"-16 184 OFFCURVE",
"-1 171 OFFCURVE",
"8 181 CURVE SMOOTH",
"101 287 OFFCURVE",
"332 604 OFFCURVE",
"480 604 CURVE SMOOTH",
"504 604 OFFCURVE",
"535 590 OFFCURVE",
"535 571 CURVE SMOOTH",
"535 552 OFFCURVE",
"506 554 OFFCURVE",
"494 554 CURVE SMOOTH",
"402 554 OFFCURVE",
"302 451 OFFCURVE",
"254 388 CURVE SMOOTH",
"246 377 OFFCURVE",
"262 365 OFFCURVE",
"270 376 CURVE SMOOTH",
"319 440 OFFCURVE",
"413 534 OFFCURVE",
"494 534 CURVE SMOOTH",
"519 534 OFFCURVE",
"555 535 OFFCURVE",
"555 571 CURVE SMOOTH"
);
}
);
};
layerId = "6B4F01CB-8044-4D82-912B-2C5A8D883AAC";
paths = (
{
closed = 1;
nodes = (
"291 291 OFFCURVE",
"274 312 OFFCURVE",
"243 312 CURVE SMOOTH",
"169 312 OFFCURVE",
"65 195 OFFCURVE",
"73 121 CURVE SMOOTH",
"74 108 OFFCURVE",
"94 110 OFFCURVE",
"93 123 CURVE SMOOTH",
"86 186 OFFCURVE",
"181 292 OFFCURVE",
"243 292 CURVE SMOOTH",
"261 292 OFFCURVE",
"271 281 OFFCURVE",
"271 262 CURVE SMOOTH",
"271 195 OFFCURVE",
"175 73 OFFCURVE",
"103 73 CURVE SMOOTH",
"53 73 OFFCURVE",
"36 113 OFFCURVE",
"38 156 CURVE SMOOTH",
"39 169 OFFCURVE",
"19 170 OFFCURVE",
"18 157 CURVE SMOOTH",
"15 103 OFFCURVE",
"41 53 OFFCURVE",
"103 53 CURVE SMOOTH",
"190 53 OFFCURVE",
"291 187 OFFCURVE",
"291 262 CURVE SMOOTH"
);
},
{
closed = 1;
nodes = (
"362 319 OFFCURVE",
"328 367 OFFCURVE",
"266 367 CURVE SMOOTH",
"228 367 OFFCURVE",
"192 350 OFFCURVE",
"162 330 CURVE SMOOTH",
"151 323 OFFCURVE",
"162 307 OFFCURVE",
"173 314 CURVE SMOOTH",
"202 333 OFFCURVE",
"234 347 OFFCURVE",
"266 347 CURVE SMOOTH",
"314 347 OFFCURVE",
"342 311 OFFCURVE",
"342 263 CURVE SMOOTH",
"342 135 OFFCURVE",
"211 21 OFFCURVE",
"86 21 CURVE SMOOTH",
"48 21 OFFCURVE",
"-3 37 OFFCURVE",
"-1 85 CURVE SMOOTH",
"-1 98 OFFCURVE",
"-21 99 OFFCURVE",
"-21 86 CURVE SMOOTH",
"-23 24 OFFCURVE",
"37 1 OFFCURVE",
"86 1 CURVE SMOOTH",
"221 1 OFFCURVE",
"362 123 OFFCURVE",
"362 263 CURVE SMOOTH"
);
},
{
closed = 1;
nodes = (
"555 615 OFFCURVE",
"503 629 OFFCURVE",
"480 629 CURVE SMOOTH",
"321 629 OFFCURVE",
"92 312 OFFCURVE",
"-8 199 CURVE SMOOTH",
"-16 189 OFFCURVE",
"-1 176 OFFCURVE",
"8 186 CURVE SMOOTH",
"101 292 OFFCURVE",
"332 609 OFFCURVE",
"480 609 CURVE SMOOTH",
"504 609 OFFCURVE",
"535 595 OFFCURVE",
"535 576 CURVE SMOOTH",
"535 557 OFFCURVE",
"506 559 OFFCURVE",
"494 559 CURVE SMOOTH",
"402 559 OFFCURVE",
"302 456 OFFCURVE",
"254 393 CURVE SMOOTH",
"246 382 OFFCURVE",
"262 370 OFFCURVE",
"270 381 CURVE SMOOTH",
"319 445 OFFCURVE",
"413 539 OFFCURVE",
"494 539 CURVE SMOOTH",
"519 539 OFFCURVE",
"555 540 OFFCURVE",
"555 576 CURVE SMOOTH"
);
}
);
width = 396;
}
);
note = b;
unicode = 0062;
},
{
glyphname = c;
lastChange = "2021-11-10 00:36:21 +0000";
layers = (
{
layerId = "6B4F01CB-8044-4D82-912B-2C5A8D883AAC";
paths = (
{
closed = 1;
nodes = (
"258 64 OFFCURVE",
"246 79 OFFCURVE",
"235 71 CURVE SMOOTH",
"195 41 OFFCURVE",
"147 21 OFFCURVE",
"97 21 CURVE SMOOTH",
"80 21 OFFCURVE",
"55 25 OFFCURVE",
"34 35 CURVE SMOOTH",
"10 46 OFFCURVE",
"0 59 OFFCURVE",
"1 85 CURVE SMOOTH",
"1 99 OFFCURVE",
"-19 99 OFFCURVE",
"-19 86 CURVE SMOOTH",
"-20 23 OFFCURVE",
"45 1 OFFCURVE",
"97 1 CURVE SMOOTH",
"152 1 OFFCURVE",
"205 23 OFFCURVE",
"247 55 CURVE SMOOTH"
);
},
{
closed = 1;
nodes = (
"330 196 OFFCURVE",
"315 209 OFFCURVE",
"307 199 CURVE SMOOTH",
"257 130 OFFCURVE",
"178 80 OFFCURVE",
"95 80 CURVE SMOOTH",
"68 80 OFFCURVE",
"49 96 OFFCURVE",
"49 122 CURVE SMOOTH",
"49 174 OFFCURVE",
"159 293 OFFCURVE",
"210 293 CURVE SMOOTH",
"215 293 OFFCURVE",
"220 292 OFFCURVE",
"225 289 CURVE SMOOTH",
"228 287 OFFCURVE",
"250 251 OFFCURVE",
"250 283 CURVE SMOOTH",
"250 304 OFFCURVE",
"228 313 OFFCURVE",
"210 313 CURVE SMOOTH",
"146 313 OFFCURVE",
"29 184 OFFCURVE",
"29 122 CURVE SMOOTH",
"29 82 OFFCURVE",
"60 60 OFFCURVE",
"95 60 CURVE SMOOTH",
"187 60 OFFCURVE",
"271 116 OFFCURVE",
"322 186 CURVE SMOOTH"
);
},
{
closed = 1;
nodes = (
"297 341 OFFCURVE",
"265 367 OFFCURVE",
"227 367 CURVE SMOOTH",
"122 367 OFFCURVE",
"49 273 OFFCURVE",
"-6 201 CURVE SMOOTH",
"-21 180 OFFCURVE",
"-10 164 OFFCURVE",
"8 187 CURVE SMOOTH",
"63 260 OFFCURVE",
"134 347 OFFCURVE",
"227 347 CURVE SMOOTH",
"256 347 OFFCURVE",
"277 328 OFFCURVE",
"277 300 CURVE SMOOTH",
"277 274 OFFCURVE",
"259 248 OFFCURVE",
"235 248 CURVE SMOOTH",
"228 248 OFFCURVE",
"208 253 OFFCURVE",
"210 263 CURVE SMOOTH",
"212 277 OFFCURVE",
"192 280 OFFCURVE",
"190 266 CURVE SMOOTH",
"187 241 OFFCURVE",
"215 228 OFFCURVE",
"235 228 CURVE SMOOTH",
"274 228 OFFCURVE",
"297 268 OFFCURVE",
"297 300 CURVE SMOOTH"
);
}
);
width = 315;
}
);
note = c;
unicode = 0063;
},
{
glyphname = d;
lastChange = "2021-11-10 00:36:21 +0000";
layers = (
{
layerId = "6B4F01CB-8044-4D82-912B-2C5A8D883AAC";
paths = (
{
closed = 1;
nodes = (
"148 11 OFFCURVE",
"138 29 OFFCURVE",
"126 22 CURVE SMOOTH",
"111 14 OFFCURVE",
"94 9 OFFCURVE",
"76 9 CURVE SMOOTH",
"34 9 OFFCURVE",
"-2 42 OFFCURVE",
"0 85 CURVE SMOOTH",
"1 98 OFFCURVE",
"-19 99 OFFCURVE",
"-20 86 CURVE SMOOTH",
"-22 32 OFFCURVE",
"23 -11 OFFCURVE",
"76 -11 CURVE SMOOTH",
"97 -11 OFFCURVE",
"117 -6 OFFCURVE",
"136 4 CURVE SMOOTH"
);
},
{
closed = 1;
nodes = (
"414 63 OFFCURVE",
"401 79 OFFCURVE",
"391 71 CURVE SMOOTH",
"349 40 OFFCURVE",
"296 9 OFFCURVE",
"245 9 CURVE SMOOTH",
"206 9 OFFCURVE",
"187 25 OFFCURVE",
"187 64 CURVE SMOOTH",
"187 81 OFFCURVE",
"191 97 OFFCURVE",
"199 111 CURVE SMOOTH",
"205 123 OFFCURVE",
"187 132 OFFCURVE",
"181 121 CURVE SMOOTH",
"171 104 OFFCURVE",
"167 84 OFFCURVE",
"167 64 CURVE SMOOTH",
"167 12 OFFCURVE",
"197 -11 OFFCURVE",
"245 -11 CURVE SMOOTH",
"303 -11 OFFCURVE",
"362 22 OFFCURVE",
"403 55 CURVE SMOOTH"
);
},
{
closed = 1;
nodes = (
"252 363 OFFCURVE",
"229 367 OFFCURVE",
"209 367 CURVE SMOOTH",
"115 367 OFFCURVE",
"42 261 OFFCURVE",
"-10 196 CURVE SMOOTH",
"-18 185 OFFCURVE",
"-1 175 OFFCURVE",
"8 186 CURVE SMOOTH",
"63 253 OFFCURVE",
"127 347 OFFCURVE",
"209 347 CURVE SMOOTH",
"227 347 OFFCURVE",
"245 343 OFFCURVE",
"258 333 CURVE SMOOTH",
"268 325 OFFCURVE",
"281 341 OFFCURVE",
"270 349 CURVE SMOOTH"
);
},
{
closed = 1;
nodes = (
"616 593 OFFCURVE",
"525 619 OFFCURVE",
"485 571 CURVE SMOOTH",
"441 519 OFFCURVE",
"339 383 OFFCURVE",
"299 336 CURVE SMOOTH",
"266 298 OFFCURVE",
"236 254 OFFCURVE",
"204 212 CURVE SMOOTH",
"188 190 OFFCURVE",
"107 79 OFFCURVE",
"76 79 CURVE SMOOTH",
"64 79 OFFCURVE",
"57 92 OFFCURVE",
"57 111 CURVE SMOOTH",
"57 171 OFFCURVE",
"159 301 OFFCURVE",
"218 298 CURVE SMOOTH",
"231 297 OFFCURVE",
"232 317 OFFCURVE",
"219 318 CURVE SMOOTH",
"144 322 OFFCURVE",
"37 178 OFFCURVE",
"37 111 CURVE SMOOTH",
"37 93 OFFCURVE",
"44 59 OFFCURVE",
"76 59 CURVE SMOOTH",
"95 59 OFFCURVE",
"109 72 OFFCURVE",
"119 81 CURVE SMOOTH",
"194 153 OFFCURVE",
"247 244 OFFCURVE",
"315 324 CURVE SMOOTH",
"354 370 OFFCURVE",
"457 507 OFFCURVE",
"501 559 CURVE SMOOTH",
"520 581 OFFCURVE",
"583 587 OFFCURVE",
"551 550 CURVE SMOOTH",
"503 496 OFFCURVE",
"241 183 OFFCURVE",
"241 104 CURVE SMOOTH",
"241 81 OFFCURVE",
"252 60 OFFCURVE",
"280 60 CURVE SMOOTH",
"337 60 OFFCURVE",
"423 127 OFFCURVE",
"467 187 CURVE SMOOTH",
"475 198 OFFCURVE",
"459 209 OFFCURVE",
"451 199 CURVE SMOOTH",
"406 138 OFFCURVE",
"327 80 OFFCURVE",
"280 80 CURVE SMOOTH",
"267 80 OFFCURVE",
"261 88 OFFCURVE",
"261 104 CURVE SMOOTH",
"261 173 OFFCURVE",
"515 477 OFFCURVE",
"567 536 CURVE SMOOTH"
);
}
);
width = 459;
}
);
note = d;
unicode = 0064;
},
{
glyphname = eth;
lastChange = "2021-11-10 00:36:21 +0000";
layers = (
{
layerId = "6B4F01CB-8044-4D82-912B-2C5A8D883AAC";
paths = (
{
closed = 1;
nodes = (
"388 691 LINE",
"347 734 OFFCURVE",
"281 758 OFFCURVE",
"201 758 CURVE SMOOTH",
"159 758 OFFCURVE",
"146 738 OFFCURVE",
"146 718 CURVE SMOOTH",
"146 697 OFFCURVE",
"159 677 OFFCURVE",
"200 677 CURVE SMOOTH",
"233 677 OFFCURVE",
"271 666 OFFCURVE",
"297 640 CURVE SMOOTH",
"298 639 LINE",
"266 622 OFFCURVE",
"224 598 OFFCURVE",
"182 574 CURVE SMOOTH",
"155 558 OFFCURVE",
"153 528 OFFCURVE",
"165 508 CURVE SMOOTH",
"177 488 OFFCURVE",
"203 474 OFFCURVE",
"231 490 CURVE SMOOTH",
"248 499 OFFCURVE",
"291 525 OFFCURVE",
"345 557 CURVE",
"360 493 OFFCURVE",
"343 405 OFFCURVE",
"265 293 CURVE SMOOTH",
"204 206 OFFCURVE",
"151 145 OFFCURVE",
"114 110 CURVE SMOOTH",
"100 98 OFFCURVE",
"86 91 OFFCURVE",
"74 91 CURVE SMOOTH",
"53 93 OFFCURVE",
"49 121 OFFCURVE",
"69 158 CURVE SMOOTH",
"79 179 OFFCURVE",
"98 208 OFFCURVE",
"118 233 CURVE SMOOTH",
"149 272 OFFCURVE",
"190 298 OFFCURVE",
"218 298 CURVE SMOOTH",
"232 298 OFFCURVE",
"232 318 OFFCURVE",
"219 318 CURVE SMOOTH",
"185 318 OFFCURVE",
"137 289 OFFCURVE",
"102 245 CURVE SMOOTH",
"82 220 OFFCURVE",
"62 190 OFFCURVE",
"51 168 CURVE SMOOTH",
"25 117 OFFCURVE",
"35 74 OFFCURVE",
"74 71 CURVE SMOOTH",
"91 71 OFFCURVE",
"109 79 OFFCURVE",
"128 96 CURVE SMOOTH",
"165 131 OFFCURVE",
"220 194 OFFCURVE",
"281 281 CURVE SMOOTH",
"368 405 OFFCURVE",
"385 508 OFFCURVE",
"361 569 CURVE SMOOTH",
"359 574 OFFCURVE",
"354 584 OFFCURVE",
"339 576 CURVE",
"286 546 OFFCURVE",
"239 517 OFFCURVE",
"221 507 CURVE SMOOTH",
"204 498 OFFCURVE",
"190 505 OFFCURVE",
"182 518 CURVE SMOOTH",
"175 531 OFFCURVE",
"176 547 OFFCURVE",
"192 557 CURVE SMOOTH",
"238 583 OFFCURVE",
"283 609 OFFCURVE",
"316 627 CURVE SMOOTH",
"321 630 OFFCURVE",
"322 635 OFFCURVE",
"320 640 CURVE SMOOTH",
"318 645 OFFCURVE",
"311 651 OFFCURVE",
"306 655 CURVE SMOOTH",
"288 672 OFFCURVE",
"267 683 OFFCURVE",
"245 690 CURVE SMOOTH",
"219 698 OFFCURVE",
"196 696 OFFCURVE",
"185 699 CURVE SMOOTH",
"172 702 OFFCURVE",
"166 710 OFFCURVE",
"166 718 CURVE SMOOTH",
"167 728 OFFCURVE",
"173 738 OFFCURVE",
"201 738 CURVE SMOOTH",
"276 738 OFFCURVE",
"339 716 OFFCURVE",
"376 674 CURVE SMOOTH",
"381 667 OFFCURVE",
"389 668 OFFCURVE",
"395 672 CURVE SMOOTH",
"430 692 OFFCURVE",
"468 715 OFFCURVE",
"503 736 CURVE SMOOTH",
"547 761 OFFCURVE",
"573 710 OFFCURVE",
"532 687 CURVE SMOOTH",
"521 680 OFFCURVE",
"531 663 OFFCURVE",
"542 669 CURVE SMOOTH",
"609 708 OFFCURVE",
"562 794 OFFCURVE",
"493 753 CURVE SMOOTH"
);
},
{
closed = 1;
nodes = (
"472 652 OFFCURVE",
"439 634 OFFCURVE",
"416 617 CURVE SMOOTH",
"410 614 OFFCURVE",
"408 608 OFFCURVE",
"410 603 CURVE",
"438 518 OFFCURVE",
"416 401 OFFCURVE",
"337 283 CURVE SMOOTH",
"292 215 OFFCURVE",
"244 146 OFFCURVE",
"242 98 CURVE SMOOTH",
"241 75 OFFCURVE",
"256 61 OFFCURVE",
"280 61 CURVE SMOOTH",
"305 61 OFFCURVE",
"337 73 OFFCURVE",
"367 94 CURVE SMOOTH",
"405 117 OFFCURVE",
"446 155 OFFCURVE",
"467 187 CURVE SMOOTH",
"475 198 OFFCURVE",
"459 209 OFFCURVE",
"451 199 CURVE SMOOTH",
"431 169 OFFCURVE",
"393 133 OFFCURVE",
"357 110 CURVE SMOOTH",
"329 91 OFFCURVE",
"301 81 OFFCURVE",
"280 81 CURVE SMOOTH",
"267 81 OFFCURVE",
"261 86 OFFCURVE",
"262 96 CURVE SMOOTH",
"264 140 OFFCURVE",
"308 203 OFFCURVE",
"353 271 CURVE SMOOTH",
"434 392 OFFCURVE",
"457 513 OFFCURVE",
"431 604 CURVE",
"454 619 OFFCURVE",
"483 636 OFFCURVE",
"494 642 CURVE SMOOTH",
"505 648 OFFCURVE",
"495 666 OFFCURVE",
"484 659 CURVE SMOOTH"
);
},
{
closed = 1;
nodes = (
"63 253 OFFCURVE",
"127 347 OFFCURVE",
"209 347 CURVE SMOOTH",
"227 347 OFFCURVE",
"245 343 OFFCURVE",
"258 333 CURVE SMOOTH",
"268 325 OFFCURVE",
"281 341 OFFCURVE",
"270 349 CURVE SMOOTH",
"252 363 OFFCURVE",
"229 367 OFFCURVE",
"209 367 CURVE SMOOTH",
"115 367 OFFCURVE",
"42 261 OFFCURVE",
"-10 196 CURVE SMOOTH",
"-18 185 OFFCURVE",
"-1 175 OFFCURVE",
"8 186 CURVE SMOOTH"
);
},
{
closed = 1;
nodes = (
"349 40 OFFCURVE",
"296 9 OFFCURVE",
"245 9 CURVE SMOOTH",
"206 9 OFFCURVE",
"187 25 OFFCURVE",
"187 64 CURVE SMOOTH",
"187 81 OFFCURVE",
"191 97 OFFCURVE",
"199 111 CURVE SMOOTH",
"205 123 OFFCURVE",
"187 132 OFFCURVE",
"181 121 CURVE SMOOTH",
"171 104 OFFCURVE",
"167 84 OFFCURVE",
"167 64 CURVE SMOOTH",
"167 12 OFFCURVE",
"197 -11 OFFCURVE",
"245 -11 CURVE SMOOTH",
"303 -11 OFFCURVE",
"362 22 OFFCURVE",
"403 55 CURVE SMOOTH",
"414 63 OFFCURVE",
"401 79 OFFCURVE",
"391 71 CURVE SMOOTH"
);
},
{
closed = 1;
nodes = (
"111 14 OFFCURVE",
"94 9 OFFCURVE",
"76 9 CURVE SMOOTH",
"34 9 OFFCURVE",
"-2 42 OFFCURVE",
"0 85 CURVE SMOOTH",
"1 98 OFFCURVE",
"-19 99 OFFCURVE",
"-20 86 CURVE SMOOTH",
"-22 32 OFFCURVE",
"23 -11 OFFCURVE",
"76 -11 CURVE SMOOTH",
"97 -11 OFFCURVE",
"117 -6 OFFCURVE",
"136 4 CURVE SMOOTH",
"148 11 OFFCURVE",
"138 29 OFFCURVE",
"126 22 CURVE SMOOTH"
);
}
);
width = 459;
}
);
unicode = 00F0;
},
{
glyphname = e;
lastChange = "2021-11-10 00:36:21 +0000";
layers = (
{
layerId = "6B4F01CB-8044-4D82-912B-2C5A8D883AAC";
paths = (
{
closed = 1;
nodes = (
"258 64 OFFCURVE",
"245 79 OFFCURVE",
"235 71 CURVE SMOOTH",
"195 41 OFFCURVE",
"146 21 OFFCURVE",
"97 21 CURVE SMOOTH",
"80 21 OFFCURVE",
"54 26 OFFCURVE",
"34 35 CURVE SMOOTH",
"9 47 OFFCURVE",
"0 59 OFFCURVE",
"0 85 CURVE SMOOTH",
"0 99 OFFCURVE",
"-20 99 OFFCURVE",
"-20 86 CURVE SMOOTH",
"-21 23 OFFCURVE",
"45 1 OFFCURVE",
"97 1 CURVE SMOOTH",
"152 1 OFFCURVE",
"204 23 OFFCURVE",
"247 55 CURVE SMOOTH"
);
},
{
closed = 1;
nodes = (
"349 198 OFFCURVE",
"333 210 OFFCURVE",
"325 200 CURVE SMOOTH",
"267 125 OFFCURVE",
"180 81 OFFCURVE",
"102 81 CURVE SMOOTH",
"71 81 OFFCURVE",
"50 94 OFFCURVE",
"50 123 CURVE SMOOTH",
"50 183 OFFCURVE",
"167 287 OFFCURVE",
"225 306 CURVE SMOOTH",
"237 310 OFFCURVE",
"231 329 OFFCURVE",
"219 325 CURVE SMOOTH",
"158 305 OFFCURVE",
"30 197 OFFCURVE",
"30 123 CURVE SMOOTH",
"30 78 OFFCURVE",
"66 61 OFFCURVE",
"102 61 CURVE SMOOTH",
"187 61 OFFCURVE",
"280 109 OFFCURVE",
"340 187 CURVE SMOOTH"
);
},
{
closed = 1;
nodes = (
"291 345 OFFCURVE",
"265 367 OFFCURVE",
"229 367 CURVE SMOOTH",
"124 367 OFFCURVE",
"43 273 OFFCURVE",
"-8 198 CURVE SMOOTH",
"-16 187 OFFCURVE",
"1 176 OFFCURVE",
"8 187 CURVE SMOOTH",
"60 262 OFFCURVE",
"135 347 OFFCURVE",
"229 347 CURVE SMOOTH",
"255 347 OFFCURVE",
"271 332 OFFCURVE",
"271 306 CURVE SMOOTH",
"271 249 OFFCURVE",
"181 174 OFFCURVE",
"125 174 CURVE SMOOTH",
"117 174 OFFCURVE",
"110 176 OFFCURVE",
"103 179 CURVE SMOOTH",
"91 185 OFFCURVE",
"82 168 OFFCURVE",
"94 162 CURVE SMOOTH",
"104 156 OFFCURVE",
"114 154 OFFCURVE",
"125 154 CURVE SMOOTH",
"190 154 OFFCURVE",
"291 235 OFFCURVE",
"291 306 CURVE SMOOTH"
);
}
);
width = 332;
}
);
note = e;
unicode = 0065;
},
{
glyphname = schwa;
lastChange = "2021-11-10 00:36:21 +0000";
layers = (
{
layerId = "6B4F01CB-8044-4D82-912B-2C5A8D883AAC";
paths = (
{
closed = 1;
nodes = (
"73 320 OFFCURVE",
"86 305 OFFCURVE",
"96 313 CURVE SMOOTH",
"136 343 OFFCURVE",
"185 363 OFFCURVE",
"234 363 CURVE SMOOTH",
"251 363 OFFCURVE",
"277 358 OFFCURVE",
"297 349 CURVE SMOOTH",
"322 337 OFFCURVE",
"331 319 OFFCURVE",
"331 299 CURVE SMOOTH",
"331 285 OFFCURVE",
"351 285 OFFCURVE",
"351 298 CURVE SMOOTH",
"352 361 OFFCURVE",
"286 383 OFFCURVE",
"234 383 CURVE SMOOTH",
"179 383 OFFCURVE",
"127 361 OFFCURVE",
"84 329 CURVE SMOOTH"
);
},
{
closed = 1;
nodes = (
"-18 186 OFFCURVE",
"-2 174 OFFCURVE",
"6 184 CURVE SMOOTH",
"64 259 OFFCURVE",
"151 303 OFFCURVE",
"219 303 CURVE SMOOTH",
"260 303 OFFCURVE",
"274 280 OFFCURVE",
"274 260 CURVE SMOOTH",
"274 181 OFFCURVE",
"157 77 OFFCURVE",
"99 58 CURVE SMOOTH",
"87 54 OFFCURVE",
"93 35 OFFCURVE",
"105 39 CURVE SMOOTH",
"166 59 OFFCURVE",
"294 167 OFFCURVE",
"294 260 CURVE SMOOTH",
"294 302 OFFCURVE",
"265 323 OFFCURVE",
"218 323 CURVE SMOOTH",
"144 323 OFFCURVE",
"51 275 OFFCURVE",
"-9 197 CURVE SMOOTH"
);
},
{
closed = 1;
nodes = (
"33 19 OFFCURVE",
"59 -3 OFFCURVE",
"95 -3 CURVE SMOOTH",
"200 -3 OFFCURVE",
"281 91 OFFCURVE",
"332 166 CURVE SMOOTH",
"340 177 OFFCURVE",
"323 188 OFFCURVE",
"316 177 CURVE SMOOTH",
"264 102 OFFCURVE",
"189 17 OFFCURVE",
"95 17 CURVE SMOOTH",
"69 17 OFFCURVE",
"53 32 OFFCURVE",
"53 58 CURVE SMOOTH",
"53 115 OFFCURVE",
"143 190 OFFCURVE",
"199 190 CURVE SMOOTH",
"207 190 OFFCURVE",
"214 188 OFFCURVE",
"221 185 CURVE SMOOTH",
"233 179 OFFCURVE",
"242 196 OFFCURVE",
"230 202 CURVE SMOOTH",
"220 208 OFFCURVE",
"210 210 OFFCURVE",
"199 210 CURVE SMOOTH",
"134 210 OFFCURVE",
"33 129 OFFCURVE",
"33 58 CURVE SMOOTH"
);
}
);
width = 381;
}
);
unicode = 0259;
},
{
glyphname = f;
lastChange = "2021-11-10 00:36:21 +0000";
layers = (
{
layerId = "6B4F01CB-8044-4D82-912B-2C5A8D883AAC";
paths = (
{
closed = 1;
nodes = (
"131 -57 OFFCURVE",
"19 -194 OFFCURVE",
"-57 -194 CURVE SMOOTH",
"-70 -194 OFFCURVE",
"-70 -214 OFFCURVE",
"-57 -214 CURVE SMOOTH",
"79 -214 OFFCURVE",
"246 100 OFFCURVE",
"125 100 CURVE SMOOTH",
"46 100 OFFCURVE",
"-105 -59 OFFCURVE",
"-115 -253 CURVE SMOOTH",
"-116 -267 OFFCURVE",
"-96 -268 OFFCURVE",
"-95 -255 CURVE SMOOTH",
"-85 -65 OFFCURVE",
"62 80 OFFCURVE",
"125 80 CURVE SMOOTH",
"141 80 OFFCURVE",
"151 68 OFFCURVE",
"146 38 CURVE SMOOTH"
);
},
{
closed = 1;
nodes = (
"369 53 OFFCURVE",
"357 69 OFFCURVE",
"347 61 CURVE SMOOTH",
"313 35 OFFCURVE",
"251 16 OFFCURVE",
"208 16 CURVE SMOOTH",
"202 16 OFFCURVE",
"198 11 OFFCURVE",
"198 6 CURVE SMOOTH",
"198 -126 OFFCURVE",
"29 -294 OFFCURVE",
"-102 -294 CURVE SMOOTH",
"-268 -294 OFFCURVE",
"-104 -6 OFFCURVE",
"-49 62 CURVE SMOOTH",
"-40 72 OFFCURVE",
"-54 86 OFFCURVE",
"-63 76 CURVE SMOOTH",
"-129 -3 OFFCURVE",
"-298 -314 OFFCURVE",
"-102 -314 CURVE SMOOTH",
"37 -314 OFFCURVE",
"210 -145 OFFCURVE",
"217 -4 CURVE",
"264 -1 OFFCURVE",
"323 18 OFFCURVE",
"359 45 CURVE SMOOTH"
);
},
{
closed = 1;
nodes = (
"431 198 OFFCURVE",
"414 209 OFFCURVE",
"407 199 CURVE SMOOTH",
"382 164 OFFCURVE",
"324 89 OFFCURVE",
"278 89 CURVE SMOOTH",
"222 89 OFFCURVE",
"237 176 OFFCURVE",
"165 176 CURVE SMOOTH",
"152 176 OFFCURVE",
"152 156 OFFCURVE",
"165 156 CURVE SMOOTH",
"222 156 OFFCURVE",
"207 69 OFFCURVE",
"278 69 CURVE SMOOTH",
"334 69 OFFCURVE",
"394 146 OFFCURVE",
"423 187 CURVE SMOOTH"
);
},
{
closed = 1;
nodes = (
"555 615 OFFCURVE",
"503 629 OFFCURVE",
"480 629 CURVE SMOOTH",
"321 629 OFFCURVE",
"92 312 OFFCURVE",
"-8 199 CURVE SMOOTH",
"-16 189 OFFCURVE",
"-1 176 OFFCURVE",
"8 186 CURVE SMOOTH",
"101 292 OFFCURVE",
"332 609 OFFCURVE",
"480 609 CURVE SMOOTH",
"504 609 OFFCURVE",
"535 595 OFFCURVE",
"535 576 CURVE SMOOTH",
"535 557 OFFCURVE",
"506 559 OFFCURVE",
"494 559 CURVE SMOOTH",
"362 559 OFFCURVE",
"123 253 OFFCURVE",
"74 154 CURVE SMOOTH",
"68 143 OFFCURVE",
"86 134 OFFCURVE",
"92 146 CURVE SMOOTH",
"142 246 OFFCURVE",
"376 539 OFFCURVE",
"494 539 CURVE SMOOTH",
"519 539 OFFCURVE",
"555 540 OFFCURVE",
"555 576 CURVE SMOOTH"
);
}
);
width = 415;
}
);
note = f;
unicode = 0066;
},
{
glyphname = g;
lastChange = "2021-11-10 00:36:21 +0000";
layers = (
{
layerId = "6B4F01CB-8044-4D82-912B-2C5A8D883AAC";
paths = (
{
closed = 1;
nodes = (
"308 238 OFFCURVE",
"288 241 OFFCURVE",
"286 228 CURVE SMOOTH",
"259 64 OFFCURVE",
"77 -205 OFFCURVE",
"-41 -211 CURVE SMOOTH",
"-58 -212 OFFCURVE",
"-65 -204 OFFCURVE",
"-62 -192 CURVE SMOOTH",
"-50 -144 OFFCURVE",
"71 -75 OFFCURVE",
"120 -43 CURVE SMOOTH",
"131 -36 OFFCURVE",
"120 -19 OFFCURVE",
"109 -26 CURVE SMOOTH",
"54 -61 OFFCURVE",
"-66 -130 OFFCURVE",
"-81 -187 CURVE SMOOTH",
"-89 -220 OFFCURVE",
"-61 -232 OFFCURVE",
"-40 -231 CURVE SMOOTH",
"93 -224 OFFCURVE",
"279 60 OFFCURVE",
"306 224 CURVE SMOOTH"
);
},
{
closed = 1;
nodes = (
"470 200 OFFCURVE",
"456 213 OFFCURVE",
"447 202 CURVE SMOOTH",
"400 142 OFFCURVE",
"353 120 OFFCURVE",
"324 107 CURVE SMOOTH",
"309 100 OFFCURVE",
"311 98 OFFCURVE",
"306 84 CURVE SMOOTH",
"251 -62 OFFCURVE",
"111 -281 OFFCURVE",
"-48 -281 CURVE SMOOTH",
"-76 -281 OFFCURVE",
"-95 -269 OFFCURVE",
"-92 -244 CURVE SMOOTH",
"-91 -231 OFFCURVE",
"-110 -229 OFFCURVE",
"-111 -242 CURVE SMOOTH",
"-116 -285 OFFCURVE",
"-80 -301 OFFCURVE",
"-48 -301 CURVE SMOOTH",
"129 -301 OFFCURVE",
"275 -59 OFFCURVE",
"327 85 CURVE",
"378 112 OFFCURVE",
"423 136 OFFCURVE",
"463 190 CURVE SMOOTH"
);
},
{
closed = 1;
nodes = (
"228 110 OFFCURVE",
"212 121 OFFCURVE",
"205 109 CURVE SMOOTH",
"160 37 OFFCURVE",
"103 11 OFFCURVE",
"62 14 CURVE SMOOTH",
"23 17 OFFCURVE",
"-5 48 OFFCURVE",
"4 99 CURVE SMOOTH",
"6 112 OFFCURVE",
"-14 116 OFFCURVE",
"-16 103 CURVE SMOOTH",
"-28 40 OFFCURVE",
"9 -2 OFFCURVE",
"61 -6 CURVE SMOOTH",
"111 -10 OFFCURVE",
"173 23 OFFCURVE",
"221 99 CURVE SMOOTH"
);
},
{
closed = 1;
nodes = (
"267 366 OFFCURVE",
"252 368 OFFCURVE",
"233 368 CURVE SMOOTH",
"139 368 OFFCURVE",
"63 283 OFFCURVE",
"-10 196 CURVE SMOOTH",
"-19 185 OFFCURVE",
"-3 174 OFFCURVE",
"7 186 CURVE SMOOTH",
"80 272 OFFCURVE",
"150 348 OFFCURVE",
"233 348 CURVE SMOOTH",
"252 348 OFFCURVE",
"261 346 OFFCURVE",
"266 342 CURVE SMOOTH",
"277 334 OFFCURVE",
"289 350 OFFCURVE",
"278 358 CURVE SMOOTH"
);
},
{
closed = 1;
nodes = (
"408 368 OFFCURVE",
"390 379 OFFCURVE",
"373 379 CURVE SMOOTH",
"327 379 OFFCURVE",
"271 301 OFFCURVE",
"220 224 CURVE SMOOTH",
"170 151 OFFCURVE",
"125 79 OFFCURVE",
"96 79 CURVE SMOOTH",
"84 79 OFFCURVE",
"77 92 OFFCURVE",
"77 111 CURVE SMOOTH",
"77 171 OFFCURVE",
"182 302 OFFCURVE",
"241 299 CURVE SMOOTH",
"255 298 OFFCURVE",
"256 318 OFFCURVE",
"243 319 CURVE SMOOTH",
"167 323 OFFCURVE",
"57 178 OFFCURVE",
"57 111 CURVE SMOOTH",
"57 93 OFFCURVE",
"64 59 OFFCURVE",
"96 59 CURVE SMOOTH",
"134 59 OFFCURVE",
"185 135 OFFCURVE",
"235 210 CURVE SMOOTH",
"274 269 OFFCURVE",
"314 327 OFFCURVE",
"347 349 CURVE SMOOTH",
"356 356 OFFCURVE",
"365 359 OFFCURVE",
"373 359 CURVE SMOOTH",
"383 359 OFFCURVE",
"388 353 OFFCURVE",
"388 346 CURVE SMOOTH",
"388 343 OFFCURVE",
"333 170 OFFCURVE",
"328 157 CURVE SMOOTH",
"323 145 OFFCURVE",
"341 137 OFFCURVE",
"346 149 CURVE SMOOTH",
"351 162 OFFCURVE",
"408 338 OFFCURVE",
"408 346 CURVE SMOOTH"
);
}
);
width = 453;
}
);
note = g;
unicode = 0067;
},
{
glyphname = h;
lastChange = "2021-11-10 00:36:21 +0000";
layers = (
{
layerId = "6B4F01CB-8044-4D82-912B-2C5A8D883AAC";
paths = (
{
closed = 1;
nodes = (
"358 305 OFFCURVE",
"353 324 OFFCURVE",
"340 321 CURVE SMOOTH",
"134 269 OFFCURVE",
"98 17 OFFCURVE",
"33 17 CURVE SMOOTH",
"20 17 OFFCURVE",
"13 26 OFFCURVE",
"13 41 CURVE SMOOTH",
"13 67 OFFCURVE",
"47 125 OFFCURVE",
"59 150 CURVE SMOOTH",
"65 162 OFFCURVE",
"47 171 OFFCURVE",
"41 159 CURVE SMOOTH",
"26 129 OFFCURVE",
"-7 73 OFFCURVE",
"-7 41 CURVE SMOOTH",
"-7 20 OFFCURVE",
"5 -3 OFFCURVE",
"33 -3 CURVE SMOOTH",
"63 -3 OFFCURVE",
"83 23 OFFCURVE",
"93 42 CURVE SMOOTH",
"152 153 OFFCURVE",
"220 270 OFFCURVE",
"345 302 CURVE SMOOTH"
);
},
{
closed = 1;
nodes = (
"440 53 OFFCURVE",
"428 69 OFFCURVE",
"417 61 CURVE SMOOTH",
"383 35 OFFCURVE",
"341 16 OFFCURVE",
"298 16 CURVE SMOOTH",
"257 16 OFFCURVE",
"226 28 OFFCURVE",
"226 67 CURVE SMOOTH",
"226 121 OFFCURVE",
"282 205 OFFCURVE",
"320 250 CURVE SMOOTH",
"328 260 OFFCURVE",
"313 273 OFFCURVE",
"304 263 CURVE SMOOTH",
"267 218 OFFCURVE",
"206 130 OFFCURVE",
"206 67 CURVE SMOOTH",
"206 9 OFFCURVE",
"257 -4 OFFCURVE",
"298 -4 CURVE SMOOTH",
"347 -4 OFFCURVE",
"392 17 OFFCURVE",
"429 45 CURVE SMOOTH"
);
},
{
closed = 1;
nodes = (
"502 198 OFFCURVE",
"485 209 OFFCURVE",
"478 199 CURVE SMOOTH",
"453 164 OFFCURVE",
"395 89 OFFCURVE",
"349 89 CURVE SMOOTH",
"336 89 OFFCURVE",
"327 98 OFFCURVE",
"327 110 CURVE SMOOTH",
"327 139 OFFCURVE",
"422 265 OFFCURVE",
"422 306 CURVE SMOOTH",
"422 354 OFFCURVE",
"373 373 OFFCURVE",
"338 373 CURVE SMOOTH",
"251 373 OFFCURVE",
"168 292 OFFCURVE",
"120 234 CURVE SMOOTH",
"111 224 OFFCURVE",
"126 212 OFFCURVE",
"135 222 CURVE SMOOTH",
"183 281 OFFCURVE",
"261 353 OFFCURVE",
"338 353 CURVE SMOOTH",
"371 353 OFFCURVE",
"402 336 OFFCURVE",
"402 306 CURVE SMOOTH",
"402 273 OFFCURVE",
"307 147 OFFCURVE",
"307 110 CURVE SMOOTH",
"307 85 OFFCURVE",
"326 69 OFFCURVE",
"349 69 CURVE SMOOTH",
"405 69 OFFCURVE",
"465 146 OFFCURVE",
"494 187 CURVE SMOOTH"
);
},
{
closed = 1;
nodes = (
"555 615 OFFCURVE",
"503 629 OFFCURVE",
"480 629 CURVE SMOOTH",
"321 629 OFFCURVE",
"92 312 OFFCURVE",
"-8 199 CURVE SMOOTH",
"-16 189 OFFCURVE",
"-1 176 OFFCURVE",
"8 186 CURVE SMOOTH",
"101 292 OFFCURVE",
"332 609 OFFCURVE",
"480 609 CURVE SMOOTH",
"504 609 OFFCURVE",
"535 595 OFFCURVE",
"535 576 CURVE SMOOTH",
"535 557 OFFCURVE",
"506 559 OFFCURVE",
"494 559 CURVE SMOOTH",
"402 559 OFFCURVE",
"302 456 OFFCURVE",
"254 393 CURVE SMOOTH",
"246 382 OFFCURVE",
"262 370 OFFCURVE",
"270 381 CURVE SMOOTH",
"319 445 OFFCURVE",
"413 539 OFFCURVE",
"494 539 CURVE SMOOTH",
"519 539 OFFCURVE",
"555 540 OFFCURVE",
"555 576 CURVE SMOOTH"
);
}
);
width = 486;
}
);
note = h;
unicode = 0068;
},
{
glyphname = i;
lastChange = "2021-11-10 00:36:21 +0000";
layers = (
{
layerId = "6B4F01CB-8044-4D82-912B-2C5A8D883AAC";
paths = (
{
closed = 1;
nodes = (
"314 439 OFFCURVE",
"297 422 OFFCURVE",
"275 422 CURVE SMOOTH",
"254 422 OFFCURVE",
"237 439 OFFCURVE",
"237 460 CURVE SMOOTH",
"237 482 OFFCURVE",
"254 499 OFFCURVE",
"275 499 CURVE SMOOTH",
"297 499 OFFCURVE",
"314 482 OFFCURVE",
"314 460 CURVE SMOOTH"
);
},
{
closed = 1;
nodes = (
"297 75 OFFCURVE",
"283 90 OFFCURVE",
"273 82 CURVE SMOOTH",
"130 -44 OFFCURVE",
"48 30 OFFCURVE",
"55 111 CURVE SMOOTH",
"57 137 OFFCURVE",
"82 214 OFFCURVE",
"106 246 CURVE SMOOTH",
"114 257 OFFCURVE",
"98 269 OFFCURVE",
"90 258 CURVE SMOOTH",
"64 222 OFFCURVE",
"37 142 OFFCURVE",
"35 113 CURVE SMOOTH",
"26 3 OFFCURVE",
"138 -64 OFFCURVE",
"287 66 CURVE SMOOTH"
);
},
{
closed = 1;
nodes = (
"325 197 OFFCURVE",
"309 209 OFFCURVE",
"301 199 CURVE SMOOTH",
"250 134 OFFCURVE",
"207 98 OFFCURVE",
"166 81 CURVE SMOOTH",
"139 70 OFFCURVE",
"118 73 OFFCURVE",
"128 119 CURVE SMOOTH",
"136 160 OFFCURVE",
"162 213 OFFCURVE",
"182 252 CURVE SMOOTH",
"191 268 OFFCURVE",
"206 281 OFFCURVE",
"220 293 CURVE SMOOTH",
"225 297 LINE SMOOTH",
"287 347 OFFCURVE",
"193 423 OFFCURVE",
"141 378 CURVE SMOOTH",
"120 359 OFFCURVE",
"100 334 OFFCURVE",
"76 304 CURVE SMOOTH",
"53 274 OFFCURVE",
"26 238 OFFCURVE",
"-8 199 CURVE SMOOTH",
"-16 189 OFFCURVE",
"-1 176 OFFCURVE",
"8 186 CURVE SMOOTH",
"42 226 OFFCURVE",
"68 261 OFFCURVE",
"92 292 CURVE SMOOTH",
"115 322 OFFCURVE",
"135 346 OFFCURVE",
"154 363 CURVE SMOOTH",
"180 385 OFFCURVE",
"249 361 OFFCURVE",
"213 313 CURVE",
"206 308 OFFCURVE",
"200 303 OFFCURVE",
"194 297 CURVE SMOOTH",
"155 261 OFFCURVE",
"118 172 OFFCURVE",
"108 123 CURVE SMOOTH",
"100 82 OFFCURVE",
"110 25 OFFCURVE",
"198 77 CURVE SMOOTH",
"244 104 OFFCURVE",
"275 134 OFFCURVE",
"317 187 CURVE SMOOTH"
);
},
{
closed = 1;
nodes = (
"334 493 OFFCURVE",
"308 519 OFFCURVE",
"275 519 CURVE SMOOTH",
"243 519 OFFCURVE",
"217 493 OFFCURVE",
"217 460 CURVE SMOOTH",
"217 428 OFFCURVE",
"243 402 OFFCURVE",
"275 402 CURVE SMOOTH",
"308 402 OFFCURVE",
"334 428 OFFCURVE",
"334 460 CURVE SMOOTH"
);
}
);
width = 309;
}
);
note = i;
unicode = 0069;
},
{
glyphname = idotless;
lastChange = "2021-11-10 00:36:21 +0000";
layers = (
{
layerId = "6B4F01CB-8044-4D82-912B-2C5A8D883AAC";
paths = (
{
closed = 1;
nodes = (
"297 75 OFFCURVE",
"283 90 OFFCURVE",
"273 82 CURVE SMOOTH",
"130 -44 OFFCURVE",
"48 30 OFFCURVE",
"55 111 CURVE SMOOTH",
"57 137 OFFCURVE",
"82 214 OFFCURVE",
"106 246 CURVE SMOOTH",
"114 257 OFFCURVE",
"98 269 OFFCURVE",
"90 258 CURVE SMOOTH",
"64 222 OFFCURVE",
"37 142 OFFCURVE",
"35 113 CURVE SMOOTH",
"26 3 OFFCURVE",
"138 -64 OFFCURVE",
"287 66 CURVE SMOOTH"
);
},
{
closed = 1;
nodes = (
"325 194 OFFCURVE",
"310 208 OFFCURVE",
"302 198 CURVE SMOOTH",
"268 160 OFFCURVE",
"248 139 OFFCURVE",
"232 125 CURVE SMOOTH",
"207 103 OFFCURVE",
"109 30 OFFCURVE",
"128 119 CURVE SMOOTH",
"136 160 OFFCURVE",
"162 213 OFFCURVE",
"182 252 CURVE SMOOTH",
"191 268 OFFCURVE",
"206 281 OFFCURVE",
"220 293 CURVE SMOOTH",
"225 297 LINE SMOOTH",
"287 347 OFFCURVE",
"193 423 OFFCURVE",
"141 378 CURVE SMOOTH",
"120 359 OFFCURVE",
"100 334 OFFCURVE",
"76 304 CURVE SMOOTH",
"53 274 OFFCURVE",
"26 238 OFFCURVE",
"-8 199 CURVE SMOOTH",
"-16 189 OFFCURVE",
"-1 176 OFFCURVE",
"8 186 CURVE SMOOTH",
"42 226 OFFCURVE",
"68 261 OFFCURVE",
"92 292 CURVE SMOOTH",
"115 322 OFFCURVE",
"135 346 OFFCURVE",
"154 363 CURVE SMOOTH",
"180 385 OFFCURVE",
"249 361 OFFCURVE",
"213 313 CURVE",
"206 308 OFFCURVE",
"200 303 OFFCURVE",
"194 297 CURVE SMOOTH",
"155 261 OFFCURVE",
"118 172 OFFCURVE",
"108 123 CURVE SMOOTH",
"100 82 OFFCURVE",
"118 25 OFFCURVE",
"192 73 CURVE SMOOTH",
"244 107 OFFCURVE",
"274 137 OFFCURVE",
"316 184 CURVE SMOOTH"
);
}
);
width = 309;
}
);
note = dotlessi;
unicode = 0131;
},
{
glyphname = j;
lastChange = "2021-11-10 00:36:21 +0000";
layers = (
{
layerId = "6B4F01CB-8044-4D82-912B-2C5A8D883AAC";
paths = (
{
closed = 1;
nodes = (
"222 439 OFFCURVE",
"205 421 OFFCURVE",
"183 421 CURVE SMOOTH",
"162 421 OFFCURVE",
"144 439 OFFCURVE",
"144 460 CURVE SMOOTH",
"144 481 OFFCURVE",
"162 499 OFFCURVE",
"183 499 CURVE SMOOTH",
"205 499 OFFCURVE",
"222 481 OFFCURVE",
"222 460 CURVE SMOOTH"
);
},
{
closed = 1;
nodes = (
"196 82 OFFCURVE",
"181 95 OFFCURVE",
"171 85 CURVE SMOOTH",
"138 49 OFFCURVE",
"97 15 OFFCURVE",
"59 15 CURVE SMOOTH",
"56 15 OFFCURVE",
"51 11 OFFCURVE",
"50 9 CURVE SMOOTH",
"25 -53 OFFCURVE",
"-10 -121 OFFCURVE",
"-57 -177 CURVE SMOOTH",
"-92 -218 OFFCURVE",
"-164 -281 OFFCURVE",
"-217 -281 CURVE SMOOTH",
"-245 -281 OFFCURVE",
"-265 -268 OFFCURVE",
"-265 -243 CURVE SMOOTH",
"-265 -230 OFFCURVE",
"-285 -230 OFFCURVE",
"-285 -243 CURVE SMOOTH",
"-285 -285 OFFCURVE",
"-249 -301 OFFCURVE",
"-217 -301 CURVE SMOOTH",
"-154 -301 OFFCURVE",
"-76 -230 OFFCURVE",
"-42 -189 CURVE SMOOTH",
"5 -134 OFFCURVE",
"41 -66 OFFCURVE",
"66 -5 CURVE",
"112 -1 OFFCURVE",
"156 40 OFFCURVE",
"187 73 CURVE SMOOTH"
);
},
{
closed = 1;
nodes = (
"73 213 OFFCURVE",
"53 219 OFFCURVE",
"49 206 CURVE SMOOTH",
"20 112 OFFCURVE",
"-101 -205 OFFCURVE",
"-216 -211 CURVE SMOOTH",
"-233 -212 OFFCURVE",
"-243 -204 OFFCURVE",
"-241 -191 CURVE SMOOTH",
"-233 -144 OFFCURVE",
"-120 -74 OFFCURVE",
"-74 -43 CURVE SMOOTH",
"-63 -35 OFFCURVE",
"-75 -19 OFFCURVE",
"-86 -26 CURVE SMOOTH",
"-137 -62 OFFCURVE",
"-252 -131 OFFCURVE",
"-261 -187 CURVE SMOOTH",
"-266 -220 OFFCURVE",
"-237 -232 OFFCURVE",
"-216 -231 CURVE SMOOTH",
"-82 -224 OFFCURVE",
"42 114 OFFCURVE",
"69 200 CURVE SMOOTH"
);
},
{
closed = 1;
nodes = (
"228 197 OFFCURVE",
"213 210 OFFCURVE",
"204 199 CURVE SMOOTH",
"174 161 OFFCURVE",
"128 117 OFFCURVE",
"80 82 CURVE SMOOTH",
"69 74 OFFCURVE",
"82 59 OFFCURVE",
"92 67 CURVE SMOOTH",
"140 102 OFFCURVE",
"188 146 OFFCURVE",
"220 187 CURVE SMOOTH"
);
},
{
closed = 1;
nodes = (
"175 331 OFFCURVE",
"157 342 OFFCURVE",
"140 342 CURVE SMOOTH",
"84 342 OFFCURVE",
"19 237 OFFCURVE",
"-9 198 CURVE SMOOTH",
"-16 187 OFFCURVE",
"0 175 OFFCURVE",
"8 186 CURVE SMOOTH",
"29 217 OFFCURVE",
"96 322 OFFCURVE",
"140 322 CURVE SMOOTH",
"150 322 OFFCURVE",
"155 316 OFFCURVE",
"155 309 CURVE SMOOTH",
"155 306 OFFCURVE",
"100 154 OFFCURVE",
"93 138 CURVE SMOOTH",
"88 126 OFFCURVE",
"106 118 OFFCURVE",
"111 130 CURVE SMOOTH",
"119 149 OFFCURVE",
"175 301 OFFCURVE",
"175 309 CURVE SMOOTH"
);
},
{
closed = 1;
nodes = (
"242 492 OFFCURVE",
"216 519 OFFCURVE",
"183 519 CURVE SMOOTH",
"151 519 OFFCURVE",
"124 492 OFFCURVE",
"124 460 CURVE SMOOTH",
"124 428 OFFCURVE",
"151 401 OFFCURVE",
"183 401 CURVE SMOOTH",
"216 401 OFFCURVE",
"242 428 OFFCURVE",
"242 460 CURVE SMOOTH"
);
}
);
width = 212;
}
);
note = j;
unicode = 006A;
},
{
glyphname = jdotless;
lastChange = "2021-11-10 00:36:21 +0000";
layers = (
{
layerId = "6B4F01CB-8044-4D82-912B-2C5A8D883AAC";
paths = (
{
closed = 1;
nodes = (
"196 82 OFFCURVE",
"181 95 OFFCURVE",
"171 85 CURVE SMOOTH",
"138 49 OFFCURVE",
"97 15 OFFCURVE",
"59 15 CURVE SMOOTH",
"56 15 OFFCURVE",
"51 11 OFFCURVE",
"50 9 CURVE SMOOTH",
"25 -53 OFFCURVE",
"-10 -121 OFFCURVE",
"-57 -177 CURVE SMOOTH",
"-92 -218 OFFCURVE",
"-164 -281 OFFCURVE",
"-217 -281 CURVE SMOOTH",
"-245 -281 OFFCURVE",
"-265 -268 OFFCURVE",
"-265 -243 CURVE SMOOTH",
"-265 -230 OFFCURVE",
"-285 -230 OFFCURVE",
"-285 -243 CURVE SMOOTH",
"-285 -285 OFFCURVE",
"-249 -301 OFFCURVE",
"-217 -301 CURVE SMOOTH",
"-154 -301 OFFCURVE",
"-76 -230 OFFCURVE",
"-42 -189 CURVE SMOOTH",
"5 -134 OFFCURVE",
"41 -66 OFFCURVE",
"66 -5 CURVE",
"112 -1 OFFCURVE",
"156 40 OFFCURVE",
"187 73 CURVE SMOOTH"
);
},
{
closed = 1;
nodes = (
"73 213 OFFCURVE",
"53 219 OFFCURVE",
"49 206 CURVE SMOOTH",
"20 112 OFFCURVE",
"-101 -205 OFFCURVE",
"-216 -211 CURVE SMOOTH",
"-233 -212 OFFCURVE",
"-243 -204 OFFCURVE",
"-241 -191 CURVE SMOOTH",
"-233 -144 OFFCURVE",
"-120 -74 OFFCURVE",
"-74 -43 CURVE SMOOTH",
"-63 -35 OFFCURVE",
"-75 -19 OFFCURVE",
"-86 -26 CURVE SMOOTH",
"-137 -62 OFFCURVE",
"-252 -131 OFFCURVE",
"-261 -187 CURVE SMOOTH",
"-266 -220 OFFCURVE",
"-237 -232 OFFCURVE",
"-216 -231 CURVE SMOOTH",
"-82 -224 OFFCURVE",
"42 114 OFFCURVE",
"69 200 CURVE SMOOTH"
);
},
{
closed = 1;
nodes = (
"228 197 OFFCURVE",
"213 210 OFFCURVE",
"204 199 CURVE SMOOTH",
"174 161 OFFCURVE",
"128 117 OFFCURVE",
"80 82 CURVE SMOOTH",
"69 74 OFFCURVE",
"82 59 OFFCURVE",
"92 67 CURVE SMOOTH",
"140 102 OFFCURVE",
"188 146 OFFCURVE",
"220 187 CURVE SMOOTH"
);
},
{
closed = 1;
nodes = (
"175 331 OFFCURVE",
"157 342 OFFCURVE",
"140 342 CURVE SMOOTH",
"84 342 OFFCURVE",
"19 237 OFFCURVE",
"-9 198 CURVE SMOOTH",
"-16 187 OFFCURVE",
"0 175 OFFCURVE",
"8 186 CURVE SMOOTH",
"29 217 OFFCURVE",
"96 322 OFFCURVE",
"140 322 CURVE SMOOTH",
"150 322 OFFCURVE",
"155 316 OFFCURVE",
"155 309 CURVE SMOOTH",
"155 306 OFFCURVE",
"100 154 OFFCURVE",
"93 138 CURVE SMOOTH",
"88 126 OFFCURVE",
"106 118 OFFCURVE",
"111 130 CURVE SMOOTH",
"119 149 OFFCURVE",
"175 301 OFFCURVE",
"175 309 CURVE SMOOTH"
);
}
);
width = 212;
}
);
unicode = 0237;
},
{
glyphname = k;
lastChange = "2021-11-10 00:36:21 +0000";
layers = (
{
layerId = "6B4F01CB-8044-4D82-912B-2C5A8D883AAC";
paths = (
{
closed = 1;
nodes = (
"358 305 OFFCURVE",
"353 324 OFFCURVE",
"340 321 CURVE SMOOTH",
"134 269 OFFCURVE",
"98 17 OFFCURVE",
"33 17 CURVE SMOOTH",
"20 17 OFFCURVE",
"13 26 OFFCURVE",
"13 41 CURVE SMOOTH",
"13 67 OFFCURVE",
"47 125 OFFCURVE",
"59 150 CURVE SMOOTH",
"65 162 OFFCURVE",
"47 171 OFFCURVE",
"41 159 CURVE SMOOTH",
"26 129 OFFCURVE",
"-7 73 OFFCURVE",
"-7 41 CURVE SMOOTH",
"-7 20 OFFCURVE",
"5 -3 OFFCURVE",
"33 -3 CURVE SMOOTH",
"63 -3 OFFCURVE",
"83 23 OFFCURVE",
"93 42 CURVE SMOOTH",
"152 153 OFFCURVE",
"220 270 OFFCURVE",
"345 302 CURVE SMOOTH"
);
},
{
closed = 1;
nodes = (
"440 53 OFFCURVE",
"428 69 OFFCURVE",
"417 61 CURVE SMOOTH",
"383 35 OFFCURVE",
"341 16 OFFCURVE",
"298 16 CURVE SMOOTH",
"257 16 OFFCURVE",
"226 28 OFFCURVE",
"226 67 CURVE SMOOTH",
"226 80 OFFCURVE",
"234 154 OFFCURVE",
"236 182 CURVE",
"249 184 OFFCURVE",
"287 192 OFFCURVE",
"308 199 CURVE SMOOTH",
"374 221 OFFCURVE",
"413 254 OFFCURVE",
"426 286 CURVE SMOOTH",
"446 335 OFFCURVE",
"406 373 OFFCURVE",
"338 373 CURVE SMOOTH",
"251 373 OFFCURVE",
"168 292 OFFCURVE",
"120 234 CURVE SMOOTH",
"111 224 OFFCURVE",
"126 212 OFFCURVE",
"135 222 CURVE SMOOTH",
"183 281 OFFCURVE",
"261 353 OFFCURVE",
"338 353 CURVE SMOOTH",
"402 353 OFFCURVE",
"419 322 OFFCURVE",
"408 294 CURVE SMOOTH",
"386 240 OFFCURVE",
"313 219 OFFCURVE",
"283 210 CURVE SMOOTH",
"237 196 OFFCURVE",
"217 201 OFFCURVE",
"216 185 CURVE SMOOTH",
"216 173 OFFCURVE",
"206 81 OFFCURVE",
"206 67 CURVE SMOOTH",
"206 9 OFFCURVE",
"257 -4 OFFCURVE",
"298 -4 CURVE SMOOTH",
"347 -4 OFFCURVE",
"392 17 OFFCURVE",
"429 45 CURVE SMOOTH"
);
},
{
closed = 1;
nodes = (
"502 198 OFFCURVE",
"485 209 OFFCURVE",
"478 199 CURVE SMOOTH",
"451 161 OFFCURVE",
"378 85 OFFCURVE",
"333 85 CURVE SMOOTH",
"307 85 OFFCURVE",
"310 110 OFFCURVE",
"312 158 CURVE SMOOTH",
"312 172 OFFCURVE",
"292 172 OFFCURVE",
"292 159 CURVE SMOOTH",
"290 109 OFFCURVE",
"286 65 OFFCURVE",
"333 65 CURVE SMOOTH",
"390 65 OFFCURVE",
"469 152 OFFCURVE",
"494 187 CURVE SMOOTH"
);
},
{
closed = 1;
nodes = (
"555 615 OFFCURVE",
"503 629 OFFCURVE",
"480 629 CURVE SMOOTH",
"321 629 OFFCURVE",
"92 312 OFFCURVE",
"-8 199 CURVE SMOOTH",
"-16 189 OFFCURVE",
"-1 176 OFFCURVE",
"8 186 CURVE SMOOTH",
"101 292 OFFCURVE",
"332 609 OFFCURVE",
"480 609 CURVE SMOOTH",
"504 609 OFFCURVE",
"535 595 OFFCURVE",
"535 576 CURVE SMOOTH",
"535 557 OFFCURVE",
"506 559 OFFCURVE",
"494 559 CURVE SMOOTH",
"402 559 OFFCURVE",
"302 456 OFFCURVE",
"254 393 CURVE SMOOTH",
"246 382 OFFCURVE",
"262 370 OFFCURVE",
"270 381 CURVE SMOOTH",
"319 445 OFFCURVE",
"413 539 OFFCURVE",
"494 539 CURVE SMOOTH",
"519 539 OFFCURVE",
"555 540 OFFCURVE",
"555 576 CURVE SMOOTH"
);
}
);
width = 486;
}
);
note = k;
unicode = 006B;
},
{
glyphname = kgreenlandic;
lastChange = "2021-11-10 00:36:21 +0000";
layers = (
{
layerId = "6B4F01CB-8044-4D82-912B-2C5A8D883AAC";
paths = (
{
closed = 1;
nodes = (
"502 198 OFFCURVE",
"485 209 OFFCURVE",
"478 199 CURVE SMOOTH",
"451 161 OFFCURVE",
"378 85 OFFCURVE",
"333 85 CURVE SMOOTH",
"307 85 OFFCURVE",
"310 110 OFFCURVE",
"312 158 CURVE SMOOTH",
"312 172 OFFCURVE",
"292 172 OFFCURVE",
"292 159 CURVE SMOOTH",
"290 109 OFFCURVE",
"286 65 OFFCURVE",
"333 65 CURVE SMOOTH",
"390 65 OFFCURVE",
"469 152 OFFCURVE",
"494 187 CURVE SMOOTH"
);
},
{
closed = 1;
nodes = (
"463 532 OFFCURVE",
"411 546 OFFCURVE",
"388 546 CURVE SMOOTH",
"229 546 OFFCURVE",
"92 312 OFFCURVE",
"-8 199 CURVE SMOOTH",
"-16 189 OFFCURVE",
"-6 171 OFFCURVE",
"3 181 CURVE SMOOTH",
"96 287 OFFCURVE",
"240 526 OFFCURVE",
"388 526 CURVE SMOOTH",
"412 526 OFFCURVE",
"443 512 OFFCURVE",
"443 493 CURVE SMOOTH",
"443 474 OFFCURVE",
"414 476 OFFCURVE",
"402 476 CURVE SMOOTH",
"310 476 OFFCURVE",
"255 422 OFFCURVE",
"207 359 CURVE SMOOTH",
"199 348 OFFCURVE",
"215 336 OFFCURVE",
"223 347 CURVE SMOOTH",
"272 411 OFFCURVE",
"321 456 OFFCURVE",
"402 456 CURVE SMOOTH",
"427 456 OFFCURVE",
"463 457 OFFCURVE",
"463 493 CURVE SMOOTH"
);
},
{
closed = 1;
nodes = (
"130 187 OFFCURVE",
"79 17 OFFCURVE",
"33 17 CURVE SMOOTH",
"20 17 OFFCURVE",
"13 26 OFFCURVE",
"13 41 CURVE SMOOTH",
"13 67 OFFCURVE",
"47 125 OFFCURVE",
"59 150 CURVE SMOOTH",
"65 162 OFFCURVE",
"47 171 OFFCURVE",
"41 159 CURVE SMOOTH",
"26 129 OFFCURVE",
"-7 73 OFFCURVE",
"-7 41 CURVE SMOOTH",
"-7 20 OFFCURVE",
"5 -3 OFFCURVE",
"33 -3 CURVE SMOOTH",
"63 -3 OFFCURVE",
"83 23 OFFCURVE",
"93 42 CURVE SMOOTH",
"126 105 OFFCURVE",
"153 181 OFFCURVE",
"178 237 CURVE SMOOTH",
"183 250 OFFCURVE",
"169 263 OFFCURVE",
"163 250 CURVE SMOOTH"
);
},
{
closed = 1;
nodes = (
"383 35 OFFCURVE",
"341 16 OFFCURVE",
"298 16 CURVE SMOOTH",
"257 16 OFFCURVE",
"226 28 OFFCURVE",
"226 67 CURVE SMOOTH",
"226 80 OFFCURVE",
"235 165 OFFCURVE",
"239 204 CURVE SMOOTH",
"242 220 OFFCURVE",
"340 306 OFFCURVE",
"384 329 CURVE SMOOTH",
"420 349 OFFCURVE",
"439 315 OFFCURVE",
"403 287 CURVE SMOOTH",
"391 278 OFFCURVE",
"401 262 OFFCURVE",
"415 273 CURVE SMOOTH",
"470 311 OFFCURVE",
"433 378 OFFCURVE",
"374 347 CURVE SMOOTH",
"323 320 OFFCURVE",
"216 222 OFFCURVE",
"219 208 CURVE",
"215 170 OFFCURVE",
"206 81 OFFCURVE",
"206 67 CURVE SMOOTH",
"206 9 OFFCURVE",
"257 -4 OFFCURVE",
"298 -4 CURVE SMOOTH",
"347 -4 OFFCURVE",
"392 17 OFFCURVE",
"429 45 CURVE SMOOTH",
"440 53 OFFCURVE",
"428 69 OFFCURVE",
"417 61 CURVE SMOOTH"
);
}
);
width = 486;
}
);
unicode = 0138;
},
{
glyphname = l;
lastChange = "2021-11-10 00:36:21 +0000";
layers = (
{
layerId = "6B4F01CB-8044-4D82-912B-2C5A8D883AAC";
paths = (
{
closed = 1;
nodes = (
"296 82 OFFCURVE",
"283 97 OFFCURVE",
"273 89 CURVE SMOOTH",
"145 -19 OFFCURVE",
"-5 16 OFFCURVE",
"-5 85 CURVE SMOOTH",
"-5 99 OFFCURVE",
"-25 99 OFFCURVE",
"-25 85 CURVE SMOOTH",
"-25 -22 OFFCURVE",
"165 -29 OFFCURVE",
"285 73 CURVE SMOOTH"
);
},
{
closed = 1;
nodes = (
"371 505 OFFCURVE",
"359 521 OFFCURVE",
"348 513 CURVE SMOOTH",
"284 467 OFFCURVE",
"125 278 OFFCURVE",
"76 191 CURVE SMOOTH",
"51 147 OFFCURVE",
"15 62 OFFCURVE",
"103 62 CURVE SMOOTH",
"164 62 OFFCURVE",
"257 104 OFFCURVE",
"321 187 CURVE SMOOTH",
"330 198 OFFCURVE",
"314 210 OFFCURVE",
"306 200 CURVE SMOOTH",
"244 121 OFFCURVE",
"156 82 OFFCURVE",
"103 82 CURVE SMOOTH",
"37 82 OFFCURVE",
"76 151 OFFCURVE",
"93 181 CURVE SMOOTH",
"141 266 OFFCURVE",
"298 453 OFFCURVE",
"360 497 CURVE SMOOTH"
);
},
{
closed = 1;
nodes = (
"486 604 OFFCURVE",
"445 670 OFFCURVE",
"350 617 CURVE SMOOTH",
"241 556 OFFCURVE",
"133 404 OFFCURVE",
"62 297 CURVE SMOOTH",
"40 264 OFFCURVE",
"18 230 OFFCURVE",
"-8 199 CURVE SMOOTH",
"-16 189 OFFCURVE",
"-1 176 OFFCURVE",
"8 186 CURVE SMOOTH",
"34 217 OFFCURVE",
"56 253 OFFCURVE",
"79 286 CURVE SMOOTH",
"148 389 OFFCURVE",
"255 541 OFFCURVE",
"360 599 CURVE SMOOTH",
"433 640 OFFCURVE",
"463 600 OFFCURVE",
"435 534 CURVE SMOOTH",
"425 512 OFFCURVE",
"190 253 OFFCURVE",
"166 234 CURVE SMOOTH",
"156 225 OFFCURVE",
"169 209 OFFCURVE",
"179 218 CURVE SMOOTH",
"203 237 OFFCURVE",
"441 499 OFFCURVE",
"453 526 CURVE SMOOTH"
);
}
);
width = 313;
}
);
note = l;
unicode = 006C;
},
{
glyphname = m;
lastChange = "2021-11-10 00:36:21 +0000";
layers = (
{
layerId = "6B4F01CB-8044-4D82-912B-2C5A8D883AAC";
paths = (
{
closed = 1;
nodes = (
"358 305 OFFCURVE",
"353 324 OFFCURVE",
"340 321 CURVE SMOOTH",
"134 269 OFFCURVE",
"98 17 OFFCURVE",
"33 17 CURVE SMOOTH",
"20 17 OFFCURVE",
"13 26 OFFCURVE",
"13 41 CURVE SMOOTH",
"13 67 OFFCURVE",
"47 125 OFFCURVE",
"59 150 CURVE SMOOTH",
"65 162 OFFCURVE",
"47 171 OFFCURVE",
"41 159 CURVE SMOOTH",
"26 129 OFFCURVE",
"-7 73 OFFCURVE",
"-7 41 CURVE SMOOTH",
"-7 20 OFFCURVE",
"5 -3 OFFCURVE",
"33 -3 CURVE SMOOTH",
"63 -3 OFFCURVE",
"83 23 OFFCURVE",
"93 42 CURVE SMOOTH",
"152 153 OFFCURVE",
"220 270 OFFCURVE",
"345 302 CURVE SMOOTH"
);
},
{
closed = 1;
nodes = (
"303 418 OFFCURVE",
"226 466 OFFCURVE",
"175 412 CURVE SMOOTH",
"110 344 OFFCURVE",
"54 269 OFFCURVE",
"-8 199 CURVE SMOOTH",
"-16 189 OFFCURVE",
"-1 176 OFFCURVE",
"8 186 CURVE SMOOTH",
"69 256 OFFCURVE",
"125 331 OFFCURVE",
"189 398 CURVE SMOOTH",
"208 417 OFFCURVE",
"229 419 OFFCURVE",
"244 414 CURVE SMOOTH",
"261 408 OFFCURVE",
"259 399 OFFCURVE",
"256 397 CURVE",
"247 387 OFFCURVE",
"262 373 OFFCURVE",
"271 383 CURVE SMOOTH"
);
},
{
closed = 1;
nodes = (
"559 305 OFFCURVE",
"554 324 OFFCURVE",
"541 321 CURVE SMOOTH",
"335 269 OFFCURVE",
"299 17 OFFCURVE",
"234 17 CURVE SMOOTH",
"222 17 OFFCURVE",
"214 26 OFFCURVE",
"214 41 CURVE SMOOTH",
"214 67 OFFCURVE",
"248 125 OFFCURVE",
"260 150 CURVE SMOOTH",
"266 162 OFFCURVE",
"248 171 OFFCURVE",
"242 159 CURVE SMOOTH",
"228 129 OFFCURVE",
"194 73 OFFCURVE",
"194 41 CURVE SMOOTH",
"194 20 OFFCURVE",
"207 -3 OFFCURVE",
"234 -3 CURVE SMOOTH",
"264 -3 OFFCURVE",
"284 23 OFFCURVE",
"294 42 CURVE SMOOTH",
"353 153 OFFCURVE",
"421 270 OFFCURVE",
"546 302 CURVE SMOOTH"
);
},
{
closed = 1;
nodes = (
"377 368 OFFCURVE",
"356 373 OFFCURVE",
"338 373 CURVE SMOOTH",
"251 373 OFFCURVE",
"168 292 OFFCURVE",
"120 234 CURVE SMOOTH",
"111 224 OFFCURVE",
"126 212 OFFCURVE",
"135 222 CURVE SMOOTH",
"183 281 OFFCURVE",
"261 353 OFFCURVE",
"338 353 CURVE SMOOTH",
"353 353 OFFCURVE",
"370 349 OFFCURVE",
"382 341 CURVE SMOOTH",
"394 333 OFFCURVE",
"405 350 OFFCURVE",
"394 357 CURVE SMOOTH"
);
},
{
closed = 1;
nodes = (
"642 53 OFFCURVE",
"630 69 OFFCURVE",
"619 61 CURVE SMOOTH",
"584 35 OFFCURVE",
"543 16 OFFCURVE",
"500 16 CURVE SMOOTH",
"459 16 OFFCURVE",
"428 28 OFFCURVE",
"428 67 CURVE SMOOTH",
"428 121 OFFCURVE",
"484 205 OFFCURVE",
"521 250 CURVE SMOOTH",
"530 260 OFFCURVE",
"514 273 OFFCURVE",
"506 263 CURVE SMOOTH",
"469 218 OFFCURVE",
"408 130 OFFCURVE",
"408 67 CURVE SMOOTH",
"408 9 OFFCURVE",
"458 -4 OFFCURVE",
"500 -4 CURVE SMOOTH",
"548 -4 OFFCURVE",
"594 17 OFFCURVE",
"631 45 CURVE SMOOTH"
);
},
{
closed = 1;
nodes = (
"703 198 OFFCURVE",
"686 209 OFFCURVE",
"679 199 CURVE SMOOTH",
"654 164 OFFCURVE",
"597 89 OFFCURVE",
"551 89 CURVE SMOOTH",
"537 89 OFFCURVE",
"528 98 OFFCURVE",
"528 110 CURVE SMOOTH",
"528 139 OFFCURVE",
"624 265 OFFCURVE",
"624 306 CURVE SMOOTH",
"624 354 OFFCURVE",
"575 373 OFFCURVE",
"539 373 CURVE SMOOTH",
"452 373 OFFCURVE",
"369 292 OFFCURVE",
"321 234 CURVE SMOOTH",
"313 224 OFFCURVE",
"328 211 OFFCURVE",
"337 222 CURVE SMOOTH",
"385 280 OFFCURVE",
"463 353 OFFCURVE",
"539 353 CURVE SMOOTH",
"572 353 OFFCURVE",
"604 336 OFFCURVE",
"604 306 CURVE SMOOTH",
"604 273 OFFCURVE",
"508 147 OFFCURVE",
"508 110 CURVE SMOOTH",
"508 85 OFFCURVE",
"528 69 OFFCURVE",
"551 69 CURVE SMOOTH",
"606 69 OFFCURVE",
"666 146 OFFCURVE",
"695 187 CURVE SMOOTH"
);
}
);
width = 687;
}
);
note = m;
unicode = 006D;
},
{
glyphname = n;
lastChange = "2021-11-10 00:36:21 +0000";
layers = (
{
layerId = "6B4F01CB-8044-4D82-912B-2C5A8D883AAC";
paths = (
{
closed = 1;
nodes = (
"358 305 OFFCURVE",
"353 324 OFFCURVE",
"340 321 CURVE SMOOTH",
"129 268 OFFCURVE",
"112 17 OFFCURVE",
"33 17 CURVE SMOOTH",
"20 17 OFFCURVE",
"13 26 OFFCURVE",
"13 41 CURVE SMOOTH",
"13 67 OFFCURVE",
"84 172 OFFCURVE",
"99 204 CURVE SMOOTH",
"105 216 OFFCURVE",
"87 224 OFFCURVE",
"81 212 CURVE SMOOTH",
"63 175 OFFCURVE",
"-7 76 OFFCURVE",
"-7 41 CURVE SMOOTH",
"-7 20 OFFCURVE",
"5 -3 OFFCURVE",
"33 -3 CURVE SMOOTH",
"134 -3 OFFCURVE",
"139 250 OFFCURVE",
"345 302 CURVE SMOOTH"
);
},
{
closed = 1;
nodes = (
"263 387 OFFCURVE",
"177 440 OFFCURVE",
"133 379 CURVE SMOOTH",
"84 310 OFFCURVE",
"54 269 OFFCURVE",
"-8 199 CURVE SMOOTH",
"-16 189 OFFCURVE",
"-1 176 OFFCURVE",
"8 186 CURVE SMOOTH",
"69 256 OFFCURVE",
"100 298 OFFCURVE",
"149 367 CURVE SMOOTH",
"164 388 OFFCURVE",
"185 390 OFFCURVE",
"200 384 CURVE SMOOTH",
"220 377 OFFCURVE",
"218 367 OFFCURVE",
"216 365 CURVE SMOOTH",
"207 355 OFFCURVE",
"221 341 OFFCURVE",
"230 351 CURVE SMOOTH"
);
},
{
closed = 1;
nodes = (
"440 53 OFFCURVE",
"428 69 OFFCURVE",
"417 61 CURVE SMOOTH",
"383 35 OFFCURVE",
"341 16 OFFCURVE",
"298 16 CURVE SMOOTH",
"262 16 OFFCURVE",
"235 39 OFFCURVE",
"241 83 CURVE SMOOTH",
"245 110 OFFCURVE",
"262 146 OFFCURVE",
"279 177 CURVE SMOOTH",
"295 207 OFFCURVE",
"311 229 OFFCURVE",
"311 229 CURVE",
"318 241 OFFCURVE",
"302 252 OFFCURVE",
"295 241 CURVE SMOOTH",
"268 202 OFFCURVE",
"227 131 OFFCURVE",
"221 85 CURVE SMOOTH",
"213 27 OFFCURVE",
"252 -4 OFFCURVE",
"298 -4 CURVE SMOOTH",
"347 -4 OFFCURVE",
"392 17 OFFCURVE",
"429 45 CURVE SMOOTH"
);
},
{
closed = 1;
nodes = (
"502 198 OFFCURVE",
"485 209 OFFCURVE",
"478 199 CURVE SMOOTH",
"453 164 OFFCURVE",
"395 89 OFFCURVE",
"349 89 CURVE SMOOTH",
"336 89 OFFCURVE",
"320 92 OFFCURVE",
"329 108 CURVE SMOOTH",
"350 148 OFFCURVE",
"422 267 OFFCURVE",
"422 306 CURVE SMOOTH",
"422 354 OFFCURVE",
"373 373 OFFCURVE",
"338 373 CURVE SMOOTH",
"251 373 OFFCURVE",
"187 295 OFFCURVE",
"136 234 CURVE SMOOTH",
"128 224 OFFCURVE",
"143 211 OFFCURVE",
"152 222 CURVE SMOOTH",
"197 277 OFFCURVE",
"260 353 OFFCURVE",
"338 353 CURVE SMOOTH",
"371 353 OFFCURVE",
"402 336 OFFCURVE",
"402 306 CURVE SMOOTH",
"402 275 OFFCURVE",
"330 153 OFFCURVE",
"311 118 CURVE SMOOTH",
"294 86 OFFCURVE",
"321 69 OFFCURVE",
"349 69 CURVE SMOOTH",
"405 69 OFFCURVE",
"465 146 OFFCURVE",
"494 187 CURVE SMOOTH"
);
}
);
width = 486;
}
);
note = n;
unicode = 006E;
},
{
glyphname = eng;
lastChange = "2021-11-10 00:36:21 +0000";
layers = (
{
layerId = "6B4F01CB-8044-4D82-912B-2C5A8D883AAC";
paths = (
{
closed = 1;
nodes = (
"358 305 OFFCURVE",
"353 324 OFFCURVE",
"340 321 CURVE SMOOTH",
"129 268 OFFCURVE",
"112 17 OFFCURVE",
"33 17 CURVE SMOOTH",
"20 17 OFFCURVE",
"13 26 OFFCURVE",
"13 41 CURVE SMOOTH",
"13 67 OFFCURVE",
"84 172 OFFCURVE",
"99 204 CURVE SMOOTH",
"105 216 OFFCURVE",
"87 224 OFFCURVE",
"81 212 CURVE SMOOTH",
"63 175 OFFCURVE",
"-7 76 OFFCURVE",
"-7 41 CURVE SMOOTH",
"-7 20 OFFCURVE",
"5 -3 OFFCURVE",
"33 -3 CURVE SMOOTH",
"134 -3 OFFCURVE",
"139 250 OFFCURVE",
"345 302 CURVE SMOOTH"
);
},
{
closed = 1;
nodes = (
"263 387 OFFCURVE",
"177 440 OFFCURVE",
"133 379 CURVE SMOOTH",
"84 310 OFFCURVE",
"54 269 OFFCURVE",
"-8 199 CURVE SMOOTH",
"-16 189 OFFCURVE",
"-1 176 OFFCURVE",
"8 186 CURVE SMOOTH",
"69 256 OFFCURVE",
"100 298 OFFCURVE",
"149 367 CURVE SMOOTH",
"164 388 OFFCURVE",
"185 390 OFFCURVE",
"200 384 CURVE SMOOTH",
"220 377 OFFCURVE",
"218 367 OFFCURVE",
"216 365 CURVE SMOOTH",
"207 355 OFFCURVE",
"221 341 OFFCURVE",
"230 351 CURVE SMOOTH"
);
},
{
closed = 1;
nodes = (
"422 354 OFFCURVE",
"373 373 OFFCURVE",
"338 373 CURVE SMOOTH",
"251 373 OFFCURVE",
"187 295 OFFCURVE",
"136 234 CURVE SMOOTH",
"128 224 OFFCURVE",
"143 211 OFFCURVE",
"152 222 CURVE SMOOTH",
"197 277 OFFCURVE",
"260 353 OFFCURVE",
"338 353 CURVE SMOOTH",
"371 353 OFFCURVE",
"402 336 OFFCURVE",
"402 306 CURVE SMOOTH",
"402 264 OFFCURVE",
"266 35 OFFCURVE",
"203 -46 CURVE SMOOTH",
"122 -153 OFFCURVE",
"46 -211 OFFCURVE",
"-45 -258 CURVE SMOOTH",
"-195 -335 OFFCURVE",
"-317 -291 OFFCURVE",
"-265 -182 CURVE SMOOTH",
"-241 -131 OFFCURVE",
"-169 -81 OFFCURVE",
"-117 -81 CURVE SMOOTH",
"-91 -81 OFFCURVE",
"-97 -105 OFFCURVE",
"-115 -112 CURVE SMOOTH",
"-147 -125 OFFCURVE",
"-186 -152 OFFCURVE",
"-206 -175 CURVE SMOOTH",
"-252 -229 OFFCURVE",
"-200 -275 OFFCURVE",
"-123 -250 CURVE SMOOTH",
"-55 -228 OFFCURVE",
"139 -134 OFFCURVE",
"289 161 CURVE SMOOTH",
"296 176 OFFCURVE",
"279 176 OFFCURVE",
"274 167 CURVE SMOOTH",
"114 -119 OFFCURVE",
"-61 -210 OFFCURVE",
"-128 -230 CURVE SMOOTH",
"-184 -249 OFFCURVE",
"-221 -221 OFFCURVE",
"-194 -189 CURVE SMOOTH",
"-175 -168 OFFCURVE",
"-138 -143 OFFCURVE",
"-100 -127 CURVE SMOOTH",
"-61 -110 OFFCURVE",
"-66 -61 OFFCURVE",
"-117 -61 CURVE SMOOTH",
"-176 -61 OFFCURVE",
"-255 -115 OFFCURVE",
"-281 -172 CURVE SMOOTH",
"-334 -284 OFFCURVE",
"-222 -371 OFFCURVE",
"-38 -276 CURVE SMOOTH",
"55 -228 OFFCURVE",
"133 -169 OFFCURVE",
"217 -62 CURVE SMOOTH",
"286 27 OFFCURVE",
"422 255 OFFCURVE",
"422 306 CURVE SMOOTH"
);
}
);
width = 442;
}
);
unicode = 014B;
},
{
glyphname = o;
lastChange = "2021-11-10 00:36:21 +0000";
layers = (
{
layerId = "6B4F01CB-8044-4D82-912B-2C5A8D883AAC";
paths = (
{
closed = 1;
nodes = (
"234 114 OFFCURVE",
"216 123 OFFCURVE",
"211 111 CURVE SMOOTH",
"204 99 OFFCURVE",
"179 70 OFFCURVE",
"179 70 CURVE",
"90 -44 OFFCURVE",
"-5 27 OFFCURVE",
"0 84 CURVE SMOOTH",
"1 98 OFFCURVE",
"-19 100 OFFCURVE",
"-20 86 CURVE SMOOTH",
"-29 1 OFFCURVE",
"99 -66 OFFCURVE",
"194 57 CURVE SMOOTH",
"205 72 OFFCURVE",
"220 86 OFFCURVE",
"228 102 CURVE SMOOTH"
);
},
{
closed = 1;
nodes = (
"148 319 OFFCURVE",
"25 176 OFFCURVE",
"36 94 CURVE SMOOTH",
"40 62 OFFCURVE",
"64 44 OFFCURVE",
"104 58 CURVE SMOOTH",
"138 70 OFFCURVE",
"171 102 OFFCURVE",
"185 127 CURVE SMOOTH",
"192 138 OFFCURVE",
"175 148 OFFCURVE",
"168 137 CURVE SMOOTH",
"156 116 OFFCURVE",
"126 87 OFFCURVE",
"98 77 CURVE SMOOTH",
"68 67 OFFCURVE",
"58 78 OFFCURVE",
"56 96 CURVE SMOOTH",
"47 167 OFFCURVE",
"161 298 OFFCURVE",
"218 294 CURVE SMOOTH",
"231 293 OFFCURVE",
"233 313 OFFCURVE",
"219 314 CURVE SMOOTH"
);
},
{
closed = 1;
nodes = (
"311 246 OFFCURVE",
"322 346 OFFCURVE",
"232 361 CURVE SMOOTH",
"141 377 OFFCURVE",
"67 299 OFFCURVE",
"-7 200 CURVE SMOOTH",
"-15 189 OFFCURVE",
"-1 175 OFFCURVE",
"7 185 CURVE SMOOTH",
"82 284 OFFCURVE",
"152 355 OFFCURVE",
"228 342 CURVE SMOOTH",
"291 332 OFFCURVE",
"295 258 OFFCURVE",
"250 193 CURVE SMOOTH",
"242 182 OFFCURVE",
"259 170 OFFCURVE",
"266 181 CURVE SMOOTH"
);
},
{
closed = 1;
nodes = (
"358 196 OFFCURVE",
"343 210 OFFCURVE",
"335 199 CURVE SMOOTH",
"270 116 OFFCURVE",
"149 151 OFFCURVE",
"198 253 CURVE SMOOTH",
"204 265 OFFCURVE",
"186 273 OFFCURVE",
"180 261 CURVE SMOOTH",
"121 139 OFFCURVE",
"267 84 OFFCURVE",
"351 187 CURVE SMOOTH"
);
}
);
width = 343;
}
);
note = o;
unicode = 006F;
},
{
glyphname = oslash;
lastChange = "2021-11-10 00:36:21 +0000";
layers = (
{
layerId = "6B4F01CB-8044-4D82-912B-2C5A8D883AAC";
paths = (
{
closed = 1;
nodes = (
"82 284 OFFCURVE",
"152 355 OFFCURVE",
"228 342 CURVE SMOOTH",
"291 332 OFFCURVE",
"295 258 OFFCURVE",
"250 193 CURVE SMOOTH",
"242 182 OFFCURVE",
"259 170 OFFCURVE",
"266 181 CURVE SMOOTH",
"301 232 OFFCURVE",
"316 304 OFFCURVE",
"277 340 CURVE",
"320 423 LINE SMOOTH",
"356 496 OFFCURVE",
"260 520 OFFCURVE",
"226 448 CURVE SMOOTH",
"219 432 OFFCURVE",
"203 402 OFFCURVE",
"182 360 CURVE",
"113 347 OFFCURVE",
"53 280 OFFCURVE",
"-7 200 CURVE SMOOTH",
"-15 189 OFFCURVE",
"-1 175 OFFCURVE",
"7 185 CURVE SMOOTH"
);
},
{
closed = 1;
nodes = (
"267 486 OFFCURVE",
"327 482 OFFCURVE",
"302 432 CURVE SMOOTH",
"290 410 OFFCURVE",
"277 383 OFFCURVE",
"261 352 CURVE",
"253 356 OFFCURVE",
"243 359 OFFCURVE",
"232 361 CURVE SMOOTH",
"223 363 OFFCURVE",
"214 363 OFFCURVE",
"206 363 CURVE",
"223 398 OFFCURVE",
"237 424 OFFCURVE",
"244 439 CURVE SMOOTH"
);
},
{
closed = 1;
nodes = (
"231 293 OFFCURVE",
"233 313 OFFCURVE",
"219 314 CURVE SMOOTH",
"148 319 OFFCURVE",
"25 176 OFFCURVE",
"36 94 CURVE SMOOTH",
"40 62 OFFCURVE",
"64 44 OFFCURVE",
"104 58 CURVE SMOOTH",
"138 70 OFFCURVE",
"171 102 OFFCURVE",
"185 127 CURVE SMOOTH",
"192 138 OFFCURVE",
"175 148 OFFCURVE",
"168 137 CURVE SMOOTH",
"156 116 OFFCURVE",
"126 87 OFFCURVE",
"98 77 CURVE SMOOTH",
"68 67 OFFCURVE",
"58 78 OFFCURVE",
"56 96 CURVE SMOOTH",
"47 167 OFFCURVE",
"161 298 OFFCURVE",
"218 294 CURVE SMOOTH"
);
},
{
closed = 1;
nodes = (
"270 116 OFFCURVE",
"149 151 OFFCURVE",
"198 253 CURVE SMOOTH",
"204 265 OFFCURVE",
"186 273 OFFCURVE",
"180 261 CURVE SMOOTH",
"121 139 OFFCURVE",
"267 84 OFFCURVE",
"351 187 CURVE SMOOTH",
"358 196 OFFCURVE",
"343 210 OFFCURVE",
"335 199 CURVE SMOOTH"
);
},
{
closed = 1;
nodes = (
"204 99 OFFCURVE",
"179 70 OFFCURVE",
"179 70 CURVE",
"90 -44 OFFCURVE",
"-5 27 OFFCURVE",
"0 84 CURVE SMOOTH",
"1 98 OFFCURVE",
"-19 100 OFFCURVE",
"-20 86 CURVE SMOOTH",
"-22 65 OFFCURVE",
"-16 45 OFFCURVE",
"-4 29 CURVE",
"-32 -23 OFFCURVE",
"-54 -66 OFFCURVE",
"-67 -92 CURVE SMOOTH",
"-103 -165 OFFCURVE",
"-7 -189 OFFCURVE",
"27 -117 CURVE SMOOTH",
"34 -102 OFFCURVE",
"54 -63 OFFCURVE",
"81 -10 CURVE",
"117 -9 OFFCURVE",
"158 10 OFFCURVE",
"194 57 CURVE SMOOTH",
"205 72 OFFCURVE",
"220 86 OFFCURVE",
"228 102 CURVE SMOOTH",
"234 114 OFFCURVE",
"216 123 OFFCURVE",
"211 111 CURVE SMOOTH"
);
},
{
closed = 1;
nodes = (
"-14 -155 OFFCURVE",
"-74 -151 OFFCURVE",
"-49 -101 CURVE SMOOTH",
"-36 -77 OFFCURVE",
"-16 -36 OFFCURVE",
"10 14 CURVE",
"23 2 OFFCURVE",
"40 -6 OFFCURVE",
"59 -9 CURVE",
"35 -57 OFFCURVE",
"16 -93 OFFCURVE",
"9 -108 CURVE SMOOTH"
);
}
);
width = 343;
}
);
unicode = 00F8;
},
{
glyphname = oe;
lastChange = "2021-11-10 00:36:21 +0000";
layers = (
{
layerId = "6B4F01CB-8044-4D82-912B-2C5A8D883AAC";
paths = (
{
closed = 1;
nodes = (
"203 67 OFFCURVE",
"187 80 OFFCURVE",
"179 70 CURVE SMOOTH",
"174 64 OFFCURVE",
"169 58 OFFCURVE",
"164 53 CURVE SMOOTH",
"82 -37 OFFCURVE",
"-5 29 OFFCURVE",
"0 84 CURVE SMOOTH",
"1 98 OFFCURVE",
"-19 100 OFFCURVE",
"-20 86 CURVE SMOOTH",
"-28 7 OFFCURVE",
"87 -60 OFFCURVE",
"179 39 CURVE SMOOTH",
"184 44 OFFCURVE",
"189 51 OFFCURVE",
"194 57 CURVE SMOOTH"
);
},
{
closed = 1;
nodes = (
"148 319 OFFCURVE",
"25 176 OFFCURVE",
"36 94 CURVE SMOOTH",
"40 62 OFFCURVE",
"64 44 OFFCURVE",
"104 58 CURVE SMOOTH",
"138 70 OFFCURVE",
"171 102 OFFCURVE",
"185 127 CURVE SMOOTH",
"192 138 OFFCURVE",
"175 148 OFFCURVE",
"168 137 CURVE SMOOTH",
"156 116 OFFCURVE",
"126 87 OFFCURVE",
"98 77 CURVE SMOOTH",
"68 67 OFFCURVE",
"58 78 OFFCURVE",
"56 96 CURVE SMOOTH",
"47 167 OFFCURVE",
"161 298 OFFCURVE",
"218 294 CURVE SMOOTH",
"231 293 OFFCURVE",
"233 313 OFFCURVE",
"219 314 CURVE SMOOTH"
);
},
{
closed = 1;
nodes = (
"458 64 OFFCURVE",
"446 79 OFFCURVE",
"435 71 CURVE SMOOTH",
"395 41 OFFCURVE",
"347 21 OFFCURVE",
"297 21 CURVE SMOOTH",
"266 21 OFFCURVE",
"230 30 OFFCURVE",
"212 51 CURVE SMOOTH",
"204 61 OFFCURVE",
"188 49 OFFCURVE",
"197 38 CURVE SMOOTH",
"220 10 OFFCURVE",
"264 1 OFFCURVE",
"297 1 CURVE SMOOTH",
"352 1 OFFCURVE",
"405 23 OFFCURVE",
"447 55 CURVE SMOOTH"
);
},
{
closed = 1;
nodes = (
"304 310 OFFCURVE",
"285 352 OFFCURVE",
"232 361 CURVE SMOOTH",
"141 377 OFFCURVE",
"60 297 OFFCURVE",
"-8 198 CURVE SMOOTH",
"-16 187 OFFCURVE",
"1 176 OFFCURVE",
"8 187 CURVE SMOOTH",
"77 286 OFFCURVE",
"152 354 OFFCURVE",
"228 342 CURVE SMOOTH",
"269 335 OFFCURVE",
"283 305 OFFCURVE",
"279 268 CURVE SMOOTH",
"278 254 OFFCURVE",
"298 252 OFFCURVE",
"299 266 CURVE SMOOTH"
);
},
{
closed = 1;
nodes = (
"550 197 OFFCURVE",
"534 209 OFFCURVE",
"525 199 CURVE SMOOTH",
"476 140 OFFCURVE",
"380 81 OFFCURVE",
"302 81 CURVE SMOOTH",
"271 81 OFFCURVE",
"250 94 OFFCURVE",
"250 123 CURVE SMOOTH",
"250 183 OFFCURVE",
"367 287 OFFCURVE",
"425 306 CURVE SMOOTH",
"438 310 OFFCURVE",
"432 329 OFFCURVE",
"419 325 CURVE SMOOTH",
"359 305 OFFCURVE",
"230 197 OFFCURVE",
"230 123 CURVE SMOOTH",
"230 78 OFFCURVE",
"267 61 OFFCURVE",
"302 61 CURVE SMOOTH",
"388 61 OFFCURVE",
"490 123 OFFCURVE",
"541 186 CURVE SMOOTH"
);
},
{
closed = 1;
nodes = (
"492 345 OFFCURVE",
"466 367 OFFCURVE",
"429 367 CURVE SMOOTH",
"381 367 OFFCURVE",
"339 347 OFFCURVE",
"302 319 CURVE SMOOTH",
"291 311 OFFCURVE",
"303 295 OFFCURVE",
"314 303 CURVE SMOOTH",
"349 329 OFFCURVE",
"387 347 OFFCURVE",
"429 347 CURVE SMOOTH",
"456 347 OFFCURVE",
"472 332 OFFCURVE",
"472 306 CURVE SMOOTH",
"472 249 OFFCURVE",
"382 174 OFFCURVE",
"325 174 CURVE SMOOTH",
"317 174 OFFCURVE",
"310 176 OFFCURVE",
"304 179 CURVE SMOOTH",
"292 185 OFFCURVE",
"283 168 OFFCURVE",
"295 162 CURVE SMOOTH",
"304 156 OFFCURVE",
"315 154 OFFCURVE",
"325 154 CURVE SMOOTH",
"390 154 OFFCURVE",
"492 235 OFFCURVE",
"492 306 CURVE SMOOTH"
);
}
);
width = 534;
}
);
note = oe;
unicode = 0153;
},
{
glyphname = p;
lastChange = "2021-11-10 00:36:21 +0000";
layers = (
{
layerId = "6B4F01CB-8044-4D82-912B-2C5A8D883AAC";
paths = (
{
closed = 1;
nodes = (
"412 506 OFFCURVE",
"389 517 OFFCURVE",
"352 517 CURVE SMOOTH",
"319 517 OFFCURVE",
"241 468 OFFCURVE",
"220 450 CURVE SMOOTH",
"128 373 OFFCURVE",
"31 190 OFFCURVE",
"-30 86 CURVE SMOOTH",
"-112 -55 OFFCURVE",
"-184 -167 OFFCURVE",
"-242 -168 CURVE SMOOTH",
"-340 -170 OFFCURVE",
"-296 -259 OFFCURVE",
"-235 -258 CURVE SMOOTH",
"-102 -255 OFFCURVE",
"25 12 OFFCURVE",
"81 118 CURVE SMOOTH",
"120 191 OFFCURVE",
"178 292 OFFCURVE",
"243 292 CURVE SMOOTH",
"261 292 OFFCURVE",
"271 281 OFFCURVE",
"271 262 CURVE SMOOTH",
"271 195 OFFCURVE",
"175 73 OFFCURVE",
"103 73 CURVE SMOOTH",
"90 73 OFFCURVE",
"90 53 OFFCURVE",
"103 53 CURVE SMOOTH",
"190 53 OFFCURVE",
"291 187 OFFCURVE",
"291 262 CURVE SMOOTH",
"291 291 OFFCURVE",
"274 312 OFFCURVE",
"243 312 CURVE SMOOTH",
"163 312 OFFCURVE",
"99 194 OFFCURVE",
"63 128 CURVE SMOOTH",
"11 30 OFFCURVE",
"-116 -236 OFFCURVE",
"-235 -238 CURVE SMOOTH",
"-268 -239 OFFCURVE",
"-313 -190 OFFCURVE",
"-241 -188 CURVE SMOOTH",
"-170 -187 OFFCURVE",
"-91 -58 OFFCURVE",
"-13 76 CURVE SMOOTH",
"46 177 OFFCURVE",
"144 361 OFFCURVE",
"232 434 CURVE SMOOTH",
"254 453 OFFCURVE",
"327 497 OFFCURVE",
"352 497 CURVE SMOOTH",
"425 497 OFFCURVE",
"426 448 OFFCURVE",
"387 446 CURVE SMOOTH",
"347 443 OFFCURVE",
"310 426 OFFCURVE",
"276 403 CURVE SMOOTH",
"265 395 OFFCURVE",
"277 378 OFFCURVE",
"288 386 CURVE SMOOTH",
"319 408 OFFCURVE",
"353 424 OFFCURVE",
"388 426 CURVE SMOOTH",
"419 428 OFFCURVE",
"447 461 OFFCURVE",
"424 491 CURVE SMOOTH"
);
},
{
closed = 1;
nodes = (
"362 319 OFFCURVE",
"328 367 OFFCURVE",
"266 367 CURVE SMOOTH",
"228 367 OFFCURVE",
"209 357 OFFCURVE",
"191 339 CURVE SMOOTH",
"182 330 OFFCURVE",
"196 315 OFFCURVE",
"205 325 CURVE SMOOTH",
"219 339 OFFCURVE",
"233 347 OFFCURVE",
"266 347 CURVE SMOOTH",
"314 347 OFFCURVE",
"342 311 OFFCURVE",
"342 263 CURVE SMOOTH",
"342 135 OFFCURVE",
"211 21 OFFCURVE",
"86 21 CURVE SMOOTH",
"73 21 OFFCURVE",
"73 1 OFFCURVE",
"86 1 CURVE SMOOTH",
"221 1 OFFCURVE",
"362 123 OFFCURVE",
"362 263 CURVE SMOOTH"
);
}
);
width = 396;
}
);
note = p;
unicode = 0070;
},
{
glyphname = thorn;
lastChange = "2021-11-10 00:36:21 +0000";
layers = (
{
layerId = "6B4F01CB-8044-4D82-912B-2C5A8D883AAC";
paths = (
{
closed = 1;
nodes = (
"37 204 OFFCURVE",
"-1 136 OFFCURVE",
"-30 86 CURVE SMOOTH",
"-112 -55 OFFCURVE",
"-184 -167 OFFCURVE",
"-242 -168 CURVE SMOOTH",
"-340 -170 OFFCURVE",
"-296 -259 OFFCURVE",
"-235 -258 CURVE SMOOTH",
"-102 -255 OFFCURVE",
"25 12 OFFCURVE",
"81 118 CURVE SMOOTH",
"120 191 OFFCURVE",
"178 292 OFFCURVE",
"243 292 CURVE SMOOTH",
"261 292 OFFCURVE",
"271 281 OFFCURVE",
"271 262 CURVE SMOOTH",
"271 195 OFFCURVE",
"175 73 OFFCURVE",
"103 73 CURVE SMOOTH",
"90 73 OFFCURVE",
"90 53 OFFCURVE",
"103 53 CURVE SMOOTH",
"190 53 OFFCURVE",
"291 187 OFFCURVE",
"291 262 CURVE SMOOTH",
"291 291 OFFCURVE",
"274 312 OFFCURVE",
"243 312 CURVE SMOOTH",
"163 312 OFFCURVE",
"99 194 OFFCURVE",
"63 128 CURVE SMOOTH",
"11 30 OFFCURVE",
"-116 -236 OFFCURVE",
"-235 -238 CURVE SMOOTH",
"-268 -239 OFFCURVE",
"-313 -190 OFFCURVE",
"-241 -188 CURVE SMOOTH",
"-170 -187 OFFCURVE",
"-91 -58 OFFCURVE",
"-13 76 CURVE SMOOTH",
"16 125 OFFCURVE",
"54 194 OFFCURVE",
"95 260 CURVE",
"105 274 OFFCURVE",
"86 285 OFFCURVE",
"78 269 CURVE"
);
},
{
closed = 1;
nodes = (
"362 319 OFFCURVE",
"328 367 OFFCURVE",
"266 367 CURVE SMOOTH",
"228 367 OFFCURVE",
"209 357 OFFCURVE",
"191 339 CURVE SMOOTH",
"182 330 OFFCURVE",
"196 315 OFFCURVE",
"205 325 CURVE SMOOTH",
"219 339 OFFCURVE",
"233 347 OFFCURVE",
"266 347 CURVE SMOOTH",
"314 347 OFFCURVE",
"342 311 OFFCURVE",
"342 263 CURVE SMOOTH",
"342 135 OFFCURVE",
"211 21 OFFCURVE",
"86 21 CURVE SMOOTH",
"73 21 OFFCURVE",
"73 1 OFFCURVE",
"86 1 CURVE SMOOTH",
"221 1 OFFCURVE",
"362 123 OFFCURVE",
"362 263 CURVE SMOOTH"
);
},
{
closed = 1;
nodes = (
"588 638 OFFCURVE",
"536 652 OFFCURVE",
"513 652 CURVE SMOOTH",
"354 652 OFFCURVE",
"204 434 OFFCURVE",
"104 321 CURVE SMOOTH",
"96 311 OFFCURVE",
"111 298 OFFCURVE",
"120 308 CURVE SMOOTH",
"213 414 OFFCURVE",
"365 632 OFFCURVE",
"513 632 CURVE SMOOTH",
"537 632 OFFCURVE",
"568 618 OFFCURVE",
"568 599 CURVE SMOOTH",
"568 580 OFFCURVE",
"539 582 OFFCURVE",
"527 582 CURVE SMOOTH",
"435 582 OFFCURVE",
"335 479 OFFCURVE",
"287 416 CURVE SMOOTH",
"279 405 OFFCURVE",
"295 393 OFFCURVE",
"303 404 CURVE SMOOTH",
"352 468 OFFCURVE",
"446 562 OFFCURVE",
"527 562 CURVE SMOOTH",
"552 562 OFFCURVE",
"588 563 OFFCURVE",
"588 599 CURVE SMOOTH"
);
}
);
width = 418;
}
);
unicode = 00FE;
},
{
glyphname = q;
lastChange = "2021-11-10 00:36:21 +0000";
layers = (
{
layerId = "6B4F01CB-8044-4D82-912B-2C5A8D883AAC";
paths = (
{
closed = 1;
nodes = (
"171 40 OFFCURVE",
"155 52 OFFCURVE",
"147 41 CURVE SMOOTH",
"128 15 OFFCURVE",
"94 9 OFFCURVE",
"76 9 CURVE SMOOTH",
"34 9 OFFCURVE",
"-2 42 OFFCURVE",
"0 85 CURVE SMOOTH",
"1 98 OFFCURVE",
"-19 99 OFFCURVE",
"-20 86 CURVE SMOOTH",
"-22 32 OFFCURVE",
"23 -11 OFFCURVE",
"76 -11 CURVE SMOOTH",
"97 -11 OFFCURVE",
"138 -5 OFFCURVE",
"163 29 CURVE SMOOTH"
);
},
{
closed = 1;
nodes = (
"410 -160 OFFCURVE",
"392 -153 OFFCURVE",
"387 -165 CURVE SMOOTH",
"337 -292 OFFCURVE",
"121 -368 OFFCURVE",
"165 -132 CURVE SMOOTH",
"188 -11 OFFCURVE",
"245 145 OFFCURVE",
"263 200 CURVE SMOOTH",
"267 213 OFFCURVE",
"247 219 OFFCURVE",
"243 206 CURVE SMOOTH",
"226 150 OFFCURVE",
"168 -6 OFFCURVE",
"145 -128 CURVE SMOOTH",
"96 -387 OFFCURVE",
"345 -325 OFFCURVE",
"405 -173 CURVE SMOOTH"
);
},
{
closed = 1;
nodes = (
"413 64 OFFCURVE",
"401 79 OFFCURVE",
"391 71 CURVE SMOOTH",
"349 39 OFFCURVE",
"314 15 OFFCURVE",
"263 15 CURVE SMOOTH",
"259 15 OFFCURVE",
"254 11 OFFCURVE",
"253 7 CURVE SMOOTH",
"251 -2 OFFCURVE",
"241 -29 OFFCURVE",
"232 -60 CURVE SMOOTH",
"219 -102 OFFCURVE",
"176 -218 OFFCURVE",
"256 -226 CURVE SMOOTH",
"289 -229 OFFCURVE",
"328 -205 OFFCURVE",
"363 -142 CURVE SMOOTH",
"370 -130 OFFCURVE",
"352 -120 OFFCURVE",
"345 -132 CURVE SMOOTH",
"311 -193 OFFCURVE",
"278 -208 OFFCURVE",
"258 -206 CURVE SMOOTH",
"239 -204 OFFCURVE",
"225 -186 OFFCURVE",
"228 -163 CURVE SMOOTH",
"234 -109 OFFCURVE",
"254 -57 OFFCURVE",
"271 -5 CURVE",
"325 -2 OFFCURVE",
"363 25 OFFCURVE",
"403 55 CURVE"
);
},
{
closed = 1;
nodes = (
"252 359 OFFCURVE",
"229 363 OFFCURVE",
"209 363 CURVE SMOOTH",
"115 363 OFFCURVE",
"45 265 OFFCURVE",
"-7 200 CURVE SMOOTH",
"-15 189 OFFCURVE",
"-1 175 OFFCURVE",
"8 186 CURVE SMOOTH",
"62 253 OFFCURVE",
"127 343 OFFCURVE",
"209 343 CURVE SMOOTH",
"227 343 OFFCURVE",
"245 339 OFFCURVE",
"258 329 CURVE SMOOTH",
"268 321 OFFCURVE",
"281 337 OFFCURVE",
"270 345 CURVE SMOOTH"
);
},
{
closed = 1;
nodes = (
"476 198 OFFCURVE",
"459 210 OFFCURVE",
"451 199 CURVE SMOOTH",
"410 145 OFFCURVE",
"344 95 OFFCURVE",
"295 82 CURVE",
"316 143 OFFCURVE",
"336 205 OFFCURVE",
"356 267 CURVE SMOOTH",
"363 290 OFFCURVE",
"379 323 OFFCURVE",
"353 337 CURVE SMOOTH",
"347 340 OFFCURVE",
"340 342 OFFCURVE",
"333 342 CURVE SMOOTH",
"310 342 OFFCURVE",
"285 323 OFFCURVE",
"259 296 CURVE SMOOTH",
"236 270 OFFCURVE",
"211 236 OFFCURVE",
"188 203 CURVE SMOOTH",
"164 168 OFFCURVE",
"141 134 OFFCURVE",
"120 110 CURVE SMOOTH",
"104 91 OFFCURVE",
"89 79 OFFCURVE",
"76 79 CURVE SMOOTH",
"64 79 OFFCURVE",
"57 92 OFFCURVE",
"57 111 CURVE SMOOTH",
"57 171 OFFCURVE",
"159 298 OFFCURVE",
"218 294 CURVE SMOOTH",
"231 293 OFFCURVE",
"233 313 OFFCURVE",
"219 314 CURVE SMOOTH",
"145 319 OFFCURVE",
"37 178 OFFCURVE",
"37 111 CURVE SMOOTH",
"37 93 OFFCURVE",
"44 59 OFFCURVE",
"76 59 CURVE SMOOTH",
"92 59 OFFCURVE",
"110 71 OFFCURVE",
"129 91 CURVE SMOOTH",
"152 115 OFFCURVE",
"177 151 OFFCURVE",
"202 187 CURVE SMOOTH",
"226 221 OFFCURVE",
"249 255 OFFCURVE",
"272 281 CURVE SMOOTH",
"294 306 OFFCURVE",
"314 322 OFFCURVE",
"333 322 CURVE SMOOTH",
"356 322 OFFCURVE",
"342 285 OFFCURVE",
"337 271 CURVE SMOOTH",
"315 205 OFFCURVE",
"294 139 OFFCURVE",
"271 73 CURVE SMOOTH",
"268 65 OFFCURVE",
"272 60 OFFCURVE",
"280 60 CURVE SMOOTH",
"337 60 OFFCURVE",
"424 130 OFFCURVE",
"467 187 CURVE SMOOTH"
);
}
);
width = 459;
}
);
note = q;
unicode = 0071;
},
{
glyphname = r;
lastChange = "2021-11-10 00:36:21 +0000";
layers = (
{
layerId = "6B4F01CB-8044-4D82-912B-2C5A8D883AAC";
paths = (
{
closed = 1;
nodes = (
"150 307 OFFCURVE",
"132 314 OFFCURVE",
"127 302 CURVE SMOOTH",
"116 276 OFFCURVE",
"52 176 OFFCURVE",
"-14 112 CURVE SMOOTH",
"-24 103 OFFCURVE",
"-10 89 OFFCURVE",
"0 98 CURVE SMOOTH",
"68 164 OFFCURVE",
"134 266 OFFCURVE",
"145 294 CURVE SMOOTH"
);
},
{
closed = 1;
nodes = (
"344 75 OFFCURVE",
"329 88 OFFCURVE",
"320 77 CURVE SMOOTH",
"292 42 OFFCURVE",
"237 15 OFFCURVE",
"191 11 CURVE SMOOTH",
"144 6 OFFCURVE",
"113 24 OFFCURVE",
"115 68 CURVE SMOOTH",
"117 126 OFFCURVE",
"181 213 OFFCURVE",
"214 260 CURVE SMOOTH",
"222 271 OFFCURVE",
"206 283 OFFCURVE",
"198 272 CURVE SMOOTH",
"161 221 OFFCURVE",
"98 132 OFFCURVE",
"95 68 CURVE SMOOTH",
"93 6 OFFCURVE",
"142 -13 OFFCURVE",
"193 -9 CURVE SMOOTH",
"244 -4 OFFCURVE",
"303 25 OFFCURVE",
"336 65 CURVE SMOOTH"
);
},
{
closed = 1;
nodes = (
"261 444 OFFCURVE",
"149 504 OFFCURVE",
"99 379 CURVE SMOOTH",
"87 350 OFFCURVE",
"38 259 OFFCURVE",
"-8 199 CURVE SMOOTH",
"-16 188 OFFCURVE",
"0 176 OFFCURVE",
"8 187 CURVE SMOOTH",
"54 249 OFFCURVE",
"105 340 OFFCURVE",
"117 371 CURVE SMOOTH",
"157 469 OFFCURVE",
"231 429 OFFCURVE",
"206 376 CURVE SMOOTH",
"200 364 OFFCURVE",
"218 356 OFFCURVE",
"224 368 CURVE SMOOTH"
);
},
{
closed = 1;
nodes = (
"398 198 OFFCURVE",
"383 210 OFFCURVE",
"375 200 CURVE SMOOTH",
"354 175 OFFCURVE",
"251 64 OFFCURVE",
"218 87 CURVE SMOOTH",
"210 92 OFFCURVE",
"207 105 OFFCURVE",
"212 117 CURVE SMOOTH",
"232 164 OFFCURVE",
"268 200 OFFCURVE",
"292 245 CURVE SMOOTH",
"343 338 OFFCURVE",
"245 350 OFFCURVE",
"170 343 CURVE SMOOTH",
"157 342 OFFCURVE",
"159 322 OFFCURVE",
"172 323 CURVE SMOOTH",
"271 332 OFFCURVE",
"285 306 OFFCURVE",
"285 289 CURVE SMOOTH",
"286 268 OFFCURVE",
"272 251 OFFCURVE",
"261 233 CURVE SMOOTH",
"241 199 OFFCURVE",
"154 106 OFFCURVE",
"207 70 CURVE SMOOTH",
"225 58 OFFCURVE",
"253 63 OFFCURVE",
"287 89 CURVE SMOOTH",
"330 122 OFFCURVE",
"375 168 OFFCURVE",
"390 187 CURVE SMOOTH"
);
}
);
width = 382;
}
);
note = r;
unicode = 0072;
},
{
glyphname = s;
lastChange = "2021-11-10 00:36:21 +0000";
layers = (
{
layerId = "6B4F01CB-8044-4D82-912B-2C5A8D883AAC";
paths = (
{
closed = 1;
nodes = (
"309 78 OFFCURVE",
"295 92 OFFCURVE",
"285 83 CURVE SMOOTH",
"255 55 OFFCURVE",
"182 13 OFFCURVE",
"92 14 CURVE SMOOTH",
"52 15 OFFCURVE",
"-8 33 OFFCURVE",
"1 91 CURVE SMOOTH",
"3 104 OFFCURVE",
"-17 107 OFFCURVE",
"-19 94 CURVE SMOOTH",
"-31 13 OFFCURVE",
"54 -5 OFFCURVE",
"91 -6 CURVE SMOOTH",
"187 -7 OFFCURVE",
"266 38 OFFCURVE",
"299 69 CURVE SMOOTH"
);
},
{
closed = 1;
nodes = (
"223 320 OFFCURVE",
"212 336 OFFCURVE",
"201 329 CURVE SMOOTH",
"138 289 OFFCURVE",
"70 209 OFFCURVE",
"46 156 CURVE SMOOTH",
"20 100 OFFCURVE",
"50 57 OFFCURVE",
"93 55 CURVE SMOOTH",
"190 49 OFFCURVE",
"201 192 OFFCURVE",
"203 260 CURVE SMOOTH",
"203 273 OFFCURVE",
"183 274 OFFCURVE",
"183 260 CURVE SMOOTH",
"182 229 OFFCURVE",
"182 216 OFFCURVE",
"175 171 CURVE SMOOTH",
"154 35 OFFCURVE",
"24 59 OFFCURVE",
"65 148 CURVE SMOOTH",
"88 198 OFFCURVE",
"152 276 OFFCURVE",
"211 313 CURVE SMOOTH"
);
},
{
closed = 1;
nodes = (
"371 197 OFFCURVE",
"357 211 OFFCURVE",
"349 200 CURVE SMOOTH",
"320 159 OFFCURVE",
"282 130 OFFCURVE",
"243 113 CURVE",
"266 153 OFFCURVE",
"270 195 OFFCURVE",
"269 232 CURVE SMOOTH",
"269 252 OFFCURVE",
"263 307 OFFCURVE",
"269 325 CURVE",
"311 337 OFFCURVE",
"330 375 OFFCURVE",
"318 403 CURVE SMOOTH",
"271 509 OFFCURVE",
"41 255 OFFCURVE",
"-6 201 CURVE SMOOTH",
"-15 191 OFFCURVE",
"-1 177 OFFCURVE",
"8 187 CURVE SMOOTH",
"103 290 OFFCURVE",
"166 342 OFFCURVE",
"213 377 CURVE SMOOTH",
"272 421 OFFCURVE",
"295 406 OFFCURVE",
"300 395 CURVE SMOOTH",
"315 360 OFFCURVE",
"260 348 OFFCURVE",
"254 339 CURVE SMOOTH",
"228 297 OFFCURVE",
"281 181 OFFCURVE",
"210 103 CURVE SMOOTH",
"202 94 OFFCURVE",
"207 84 OFFCURVE",
"219 86 CURVE SMOOTH",
"266 93 OFFCURVE",
"328 136 OFFCURVE",
"364 187 CURVE SMOOTH"
);
}
);
width = 356;
}
);
note = s;
unicode = 0073;
},
{
glyphname = germandbls;
lastChange = "2021-11-10 00:36:21 +0000";
layers = (
{
layerId = "6B4F01CB-8044-4D82-912B-2C5A8D883AAC";
paths = (
{
closed = 1;
nodes = (
"-209 -158 OFFCURVE",
"-208 -162 OFFCURVE",
"-207 -165 CURVE SMOOTH",
"-184 -255 OFFCURVE",
"-103 -284 OFFCURVE",
"-23 -284 CURVE SMOOTH",
"155 -283 OFFCURVE",
"236 -185 OFFCURVE",
"359 -16 CURVE SMOOTH",
"453 113 OFFCURVE",
"537 256 OFFCURVE",
"575 326 CURVE SMOOTH",
"619 406 OFFCURVE",
"744 644 OFFCURVE",
"828 677 CURVE SMOOTH",
"860 689 OFFCURVE",
"884 679 OFFCURVE",
"893 658 CURVE SMOOTH",
"904 635 OFFCURVE",
"900 594 OFFCURVE",
"866 539 CURVE SMOOTH",
"839 495 OFFCURVE",
"744 434 OFFCURVE",
"711 432 CURVE SMOOTH",
"698 431 OFFCURVE",
"699 411 OFFCURVE",
"713 412 CURVE SMOOTH",
"754 414 OFFCURVE",
"854 481 OFFCURVE",
"884 529 CURVE SMOOTH",
"919 586 OFFCURVE",
"925 635 OFFCURVE",
"911 666 CURVE SMOOTH",
"895 700 OFFCURVE",
"860 710 OFFCURVE",
"820 695 CURVE SMOOTH",
"728 660 OFFCURVE",
"605 422 OFFCURVE",
"558 336 CURVE SMOOTH",
"519 266 OFFCURVE",
"435 123 OFFCURVE",
"343 -5 CURVE SMOOTH",
"233 -156 OFFCURVE",
"143 -266 OFFCURVE",
"-14 -265 CURVE SMOOTH",
"-94 -266 OFFCURVE",
"-171 -241 OFFCURVE",
"-191 -161 CURVE SMOOTH",
"-192 -156 OFFCURVE",
"-193 -152 OFFCURVE",
"-193 -148 CURVE SMOOTH",
"-193 -133 OFFCURVE",
"-213 -131 OFFCURVE",
"-210 -154 CURVE SMOOTH"
);
},
{
closed = 1;
nodes = (
"875 78 OFFCURVE",
"861 92 OFFCURVE",
"851 83 CURVE SMOOTH",
"821 55 OFFCURVE",
"748 13 OFFCURVE",
"658 14 CURVE SMOOTH",
"618 15 OFFCURVE",
"558 33 OFFCURVE",
"567 91 CURVE SMOOTH",
"569 104 OFFCURVE",
"549 107 OFFCURVE",
"547 94 CURVE SMOOTH",
"535 13 OFFCURVE",
"620 -5 OFFCURVE",
"657 -6 CURVE SMOOTH",
"753 -7 OFFCURVE",
"832 38 OFFCURVE",
"865 69 CURVE SMOOTH"
);
},
{
closed = 1;
nodes = (
"789 320 OFFCURVE",
"778 336 OFFCURVE",
"767 329 CURVE SMOOTH",
"704 289 OFFCURVE",
"636 209 OFFCURVE",
"612 156 CURVE SMOOTH",
"586 100 OFFCURVE",
"616 57 OFFCURVE",
"659 55 CURVE SMOOTH",
"756 49 OFFCURVE",
"767 192 OFFCURVE",
"769 260 CURVE SMOOTH",
"769 273 OFFCURVE",
"749 274 OFFCURVE",
"749 260 CURVE SMOOTH",
"748 229 OFFCURVE",
"748 216 OFFCURVE",
"741 171 CURVE SMOOTH",
"720 35 OFFCURVE",
"590 59 OFFCURVE",
"631 148 CURVE SMOOTH",
"654 198 OFFCURVE",
"718 276 OFFCURVE",
"777 313 CURVE SMOOTH"
);
},
{
closed = 1;
nodes = (
"826 347 OFFCURVE",
"820 339 CURVE SMOOTH",
"794 297 OFFCURVE",
"847 181 OFFCURVE",
"776 103 CURVE SMOOTH",
"768 94 OFFCURVE",
"773 84 OFFCURVE",
"785 86 CURVE SMOOTH",
"832 93 OFFCURVE",
"894 136 OFFCURVE",
"930 187 CURVE SMOOTH",
"937 197 OFFCURVE",
"922 210 OFFCURVE",
"914 199 CURVE SMOOTH",
"885 158 OFFCURVE",
"848 130 OFFCURVE",
"809 113 CURVE",
"832 153 OFFCURVE",
"836 195 OFFCURVE",
"835 232 CURVE SMOOTH",
"835 252 OFFCURVE",
"829 307 OFFCURVE",
"837 332 CURVE SMOOTH",
"840 343 OFFCURVE"
);
},
{
closed = 1;
nodes = (
"747 858 OFFCURVE",
"569 491 OFFCURVE",
"507 367 CURVE SMOOTH",
"477 309 OFFCURVE",
"391 154 OFFCURVE",
"294 20 CURVE SMOOTH",
"199 -111 OFFCURVE",
"116 -211 OFFCURVE",
"-20 -210 CURVE",
"-79 -214 OFFCURVE",
"-138 -196 OFFCURVE",
"-138 -149 CURVE SMOOTH",
"-138 -136 OFFCURVE",
"-154 -133 OFFCURVE",
"-154 -156 CURVE",
"-149 -208 OFFCURVE",
"-92 -231 OFFCURVE",
"-21 -229 CURVE SMOOTH",
"127 -227 OFFCURVE",
"205 -135 OFFCURVE",
"310 8 CURVE SMOOTH",
"409 144 OFFCURVE",
"496 301 OFFCURVE",
"525 358 CURVE SMOOTH",
"582 470 OFFCURVE",
"755 830 OFFCURVE",
"920 730 CURVE SMOOTH",
"1026 666 OFFCURVE",
"937 512 OFFCURVE",
"804 419 CURVE SMOOTH",
"693 341 OFFCURVE",
"587 232 OFFCURVE",
"560 201 CURVE SMOOTH",
"551 191 OFFCURVE",
"565 177 OFFCURVE",
"574 187 CURVE SMOOTH",
"648 267 OFFCURVE",
"730 344 OFFCURVE",
"807 397 CURVE SMOOTH",
"982 516 OFFCURVE",
"1042 680 OFFCURVE",
"930 748 CURVE SMOOTH"
);
}
);
width = 922;
}
);
note = germandbls;
unicode = 00DF;
},
{
glyphname = t;
lastChange = "2021-11-10 00:36:21 +0000";
layers = (
{
layerId = "6B4F01CB-8044-4D82-912B-2C5A8D883AAC";
paths = (
{
closed = 1;
nodes = (
"230 64 OFFCURVE",
"218 79 OFFCURVE",
"207 71 CURVE SMOOTH",
"86 -21 OFFCURVE",
"12 22 OFFCURVE",
"15 85 CURVE SMOOTH",
"16 98 OFFCURVE",
"-4 99 OFFCURVE",
"-5 86 CURVE SMOOTH",
"-11 -12 OFFCURVE",
"102 -34 OFFCURVE",
"219 55 CURVE SMOOTH"
);
},
{
closed = 1;
nodes = (
"146 368 OFFCURVE",
"131 381 OFFCURVE",
"123 370 CURVE SMOOTH",
"78 306 OFFCURVE",
"30 244 OFFCURVE",
"-5 202 CURVE SMOOTH",
"-17 187 OFFCURVE",
"-1 176 OFFCURVE",
"8 187 CURVE SMOOTH",
"46 232 OFFCURVE",
"94 294 OFFCURVE",
"139 358 CURVE SMOOTH"
);
},
{
closed = 1;
nodes = (
"306 343 OFFCURVE",
"306 363 OFFCURVE",
"293 363 CURVE SMOOTH",
"207 363 LINE SMOOTH",
"205 363 OFFCURVE",
"199 360 OFFCURVE",
"199 359 CURVE",
"164 311 OFFCURVE",
"104 242 OFFCURVE",
"82 211 CURVE SMOOTH",
"43 156 OFFCURVE",
"39 115 OFFCURVE",
"56 88 CURVE SMOOTH",
"69 68 OFFCURVE",
"89 58 OFFCURVE",
"114 59 CURVE SMOOTH",
"170 61 OFFCURVE",
"235 119 OFFCURVE",
"284 187 CURVE SMOOTH",
"292 198 OFFCURVE",
"276 210 OFFCURVE",
"268 199 CURVE SMOOTH",
"224 138 OFFCURVE",
"162 79 OFFCURVE",
"111 79 CURVE SMOOTH",
"96 79 OFFCURVE",
"81 86 OFFCURVE",
"73 99 CURVE SMOOTH",
"63 115 OFFCURVE",
"61 147 OFFCURVE",
"98 199 CURVE SMOOTH",
"120 229 OFFCURVE",
"177 295 OFFCURVE",
"212 343 CURVE",
"293 343 LINE SMOOTH"
);
},
{
closed = 1;
nodes = (
"354 507 OFFCURVE",
"289 560 OFFCURVE",
"245 520 CURVE SMOOTH",
"229 505 OFFCURVE",
"193 467 OFFCURVE",
"153 416 CURVE",
"79 416 LINE SMOOTH",
"65 416 OFFCURVE",
"65 396 OFFCURVE",
"79 396 CURVE SMOOTH",
"158 396 LINE SMOOTH",
"159 396 OFFCURVE",
"165 399 OFFCURVE",
"165 400 CURVE",
"207 452 OFFCURVE",
"243 491 OFFCURVE",
"259 505 CURVE SMOOTH",
"284 528 OFFCURVE",
"322 501 OFFCURVE",
"303 478 CURVE SMOOTH",
"298 473 OFFCURVE",
"260 431 OFFCURVE",
"232 401 CURVE SMOOTH",
"223 391 OFFCURVE",
"238 377 OFFCURVE",
"247 387 CURVE SMOOTH",
"275 418 OFFCURVE",
"314 460 OFFCURVE",
"318 466 CURVE"
);
}
);
width = 276;
}
);
note = t;
unicode = 0074;
},
{
glyphname = u;
lastChange = "2021-11-10 00:36:21 +0000";
layers = (
{
layerId = "6B4F01CB-8044-4D82-912B-2C5A8D883AAC";
paths = (
{
closed = 1;
nodes = (
"282 130 OFFCURVE",
"265 141 OFFCURVE",
"258 130 CURVE SMOOTH",
"204 49 OFFCURVE",
"142 15 OFFCURVE",
"100 16 CURVE SMOOTH",
"60 16 OFFCURVE",
"31 47 OFFCURVE",
"42 111 CURVE SMOOTH",
"46 136 OFFCURVE",
"89 227 OFFCURVE",
"137 280 CURVE SMOOTH",
"146 290 OFFCURVE",
"132 303 OFFCURVE",
"123 293 CURVE SMOOTH",
"72 238 OFFCURVE",
"27 144 OFFCURVE",
"22 114 CURVE SMOOTH",
"10 42 OFFCURVE",
"44 -3 OFFCURVE",
"99 -4 CURVE SMOOTH",
"152 -4 OFFCURVE",
"218 35 OFFCURVE",
"274 118 CURVE SMOOTH"
);
},
{
closed = 1;
nodes = (
"280 368 OFFCURVE",
"184 416 OFFCURVE",
"141 378 CURVE SMOOTH",
"120 359 OFFCURVE",
"100 334 OFFCURVE",
"76 304 CURVE SMOOTH",
"53 274 OFFCURVE",
"26 238 OFFCURVE",
"-8 199 CURVE SMOOTH",
"-16 189 OFFCURVE",
"-1 177 OFFCURVE",
"8 187 CURVE SMOOTH",
"42 227 OFFCURVE",
"68 261 OFFCURVE",
"92 292 CURVE SMOOTH",
"115 322 OFFCURVE",
"135 346 OFFCURVE",
"154 363 CURVE SMOOTH",
"180 385 OFFCURVE",
"249 361 OFFCURVE",
"213 313 CURVE SMOOTH",
"210 309 OFFCURVE",
"194 288 OFFCURVE",
"174 263 CURVE SMOOTH",
"151 233 OFFCURVE",
"64 96 OFFCURVE",
"111 56 CURVE SMOOTH",
"121 47 OFFCURVE",
"134 62 OFFCURVE",
"124 71 CURVE SMOOTH",
"119 75 OFFCURVE",
"117 83 OFFCURVE",
"118 98 CURVE SMOOTH",
"125 169 OFFCURVE",
"187 246 OFFCURVE",
"229 301 CURVE SMOOTH"
);
},
{
closed = 1;
nodes = (
"457 55 OFFCURVE",
"444 70 OFFCURVE",
"434 62 CURVE SMOOTH",
"390 29 OFFCURVE",
"345 15 OFFCURVE",
"310 15 CURVE SMOOTH",
"287 15 OFFCURVE",
"262 22 OFFCURVE",
"250 39 CURVE SMOOTH",
"243 50 OFFCURVE",
"226 38 OFFCURVE",
"234 27 CURVE SMOOTH",
"251 2 OFFCURVE",
"285 -5 OFFCURVE",
"310 -5 CURVE SMOOTH",
"350 -5 OFFCURVE",
"399 10 OFFCURVE",
"446 46 CURVE SMOOTH"
);
},
{
closed = 1;
nodes = (
"492 364 OFFCURVE",
"375 412 OFFCURVE",
"347 359 CURVE SMOOTH",
"299 268 OFFCURVE",
"251 145 OFFCURVE",
"155 94 CURVE SMOOTH",
"143 88 OFFCURVE",
"152 70 OFFCURVE",
"164 76 CURVE SMOOTH",
"266 129 OFFCURVE",
"314 254 OFFCURVE",
"365 349 CURVE SMOOTH",
"380 377 OFFCURVE",
"459 354 OFFCURVE",
"424 307 CURVE SMOOTH",
"416 296 OFFCURVE",
"432 284 OFFCURVE",
"440 295 CURVE SMOOTH"
);
},
{
closed = 1;
nodes = (
"501 197 OFFCURVE",
"485 209 OFFCURVE",
"477 199 CURVE SMOOTH",
"443 159 OFFCURVE",
"409 112 OFFCURVE",
"364 83 CURVE SMOOTH",
"325 57 OFFCURVE",
"317 91 OFFCURVE",
"331 122 CURVE SMOOTH",
"351 166 OFFCURVE",
"373 214 OFFCURVE",
"402 253 CURVE SMOOTH",
"410 264 OFFCURVE",
"394 276 OFFCURVE",
"386 265 CURVE SMOOTH",
"372 247 OFFCURVE",
"356 217 OFFCURVE",
"342 189 CURVE SMOOTH",
"327 160 OFFCURVE",
"275 74 OFFCURVE",
"331 54 CURVE SMOOTH",
"377 38 OFFCURVE",
"472 161 OFFCURVE",
"492 186 CURVE SMOOTH"
);
}
);
width = 485;
}
);
note = u;
unicode = 0075;
},
{
glyphname = v;
lastChange = "2021-11-10 00:36:21 +0000";
layers = (
{
layerId = "6B4F01CB-8044-4D82-912B-2C5A8D883AAC";
paths = (
{
closed = 1;
nodes = (
"282 86 OFFCURVE",
"267 99 OFFCURVE",
"258 88 CURVE SMOOTH",
"224 46 OFFCURVE",
"187 16 OFFCURVE",
"137 16 CURVE SMOOTH",
"87 16 OFFCURVE",
"64 56 OFFCURVE",
"66 103 CURVE SMOOTH",
"66 116 OFFCURVE",
"46 117 OFFCURVE",
"46 103 CURVE SMOOTH",
"44 52 OFFCURVE",
"70 -4 OFFCURVE",
"137 -4 CURVE SMOOTH",
"197 -4 OFFCURVE",
"238 32 OFFCURVE",
"274 76 CURVE SMOOTH"
);
},
{
closed = 1;
nodes = (
"115 259 OFFCURVE",
"97 269 OFFCURVE",
"90 257 CURVE SMOOTH",
"57 198 OFFCURVE",
"36 161 OFFCURVE",
"-14 112 CURVE SMOOTH",
"-24 103 OFFCURVE",
"-10 89 OFFCURVE",
"0 98 CURVE SMOOTH",
"52 148 OFFCURVE",
"75 187 OFFCURVE",
"108 247 CURVE SMOOTH"
);
},
{
closed = 1;
nodes = (
"244 119 OFFCURVE",
"227 128 OFFCURVE",
"220 117 CURVE SMOOTH",
"207 95 OFFCURVE",
"173 74 OFFCURVE",
"164 74 CURVE SMOOTH",
"90 74 OFFCURVE",
"186 301 OFFCURVE",
"198 321 CURVE SMOOTH",
"245 396 OFFCURVE",
"144 459 OFFCURVE",
"83 350 CURVE SMOOTH",
"57 304 OFFCURVE",
"31 246 OFFCURVE",
"-8 199 CURVE SMOOTH",
"-17 188 OFFCURVE",
"-1 176 OFFCURVE",
"8 187 CURVE SMOOTH",
"47 234 OFFCURVE",
"75 294 OFFCURVE",
"101 340 CURVE SMOOTH",
"146 421 OFFCURVE",
"215 386 OFFCURVE",
"181 331 CURVE SMOOTH",
"163 301 OFFCURVE",
"57 54 OFFCURVE",
"164 54 CURVE SMOOTH",
"183 54 OFFCURVE",
"224 81 OFFCURVE",
"238 107 CURVE SMOOTH"
);
},
{
closed = 1;
nodes = (
"471 196 OFFCURVE",
"456 209 OFFCURVE",
"447 199 CURVE SMOOTH",
"415 163 OFFCURVE",
"359 119 OFFCURVE",
"323 119 CURVE SMOOTH",
"232 119 OFFCURVE",
"260 244 OFFCURVE",
"283 293 CURVE SMOOTH",
"306 341 OFFCURVE",
"360 351 OFFCURVE",
"339 260 CURVE SMOOTH",
"331 226 OFFCURVE",
"315 190 OFFCURVE",
"303 170 CURVE SMOOTH",
"296 159 OFFCURVE",
"314 148 OFFCURVE",
"321 160 CURVE SMOOTH",
"334 182 OFFCURVE",
"350 220 OFFCURVE",
"358 256 CURVE SMOOTH",
"385 371 OFFCURVE",
"297 371 OFFCURVE",
"265 301 CURVE SMOOTH",
"236 239 OFFCURVE",
"212 99 OFFCURVE",
"323 99 CURVE SMOOTH",
"369 99 OFFCURVE",
"430 151 OFFCURVE",
"462 186 CURVE SMOOTH"
);
}
);
width = 455;
}
);
note = v;
unicode = 0076;
},
{
glyphname = w;
lastChange = "2021-11-10 00:36:21 +0000";
layers = (
{
layerId = "6B4F01CB-8044-4D82-912B-2C5A8D883AAC";
paths = (
{
closed = 1;
nodes = (
"257 84 OFFCURVE",
"243 98 OFFCURVE",
"234 89 CURVE SMOOTH",
"189 46 OFFCURVE",
"145 16 OFFCURVE",
"94 16 CURVE SMOOTH",
"46 16 OFFCURVE",
"32 53 OFFCURVE",
"45 101 CURVE SMOOTH",
"48 113 OFFCURVE",
"29 118 OFFCURVE",
"26 105 CURVE SMOOTH",
"13 55 OFFCURVE",
"25 -4 OFFCURVE",
"94 -4 CURVE SMOOTH",
"153 -4 OFFCURVE",
"202 32 OFFCURVE",
"247 75 CURVE SMOOTH"
);
},
{
closed = 1;
nodes = (
"133 257 OFFCURVE",
"118 269 OFFCURVE",
"110 258 CURVE SMOOTH",
"63 200 OFFCURVE",
"32 161 OFFCURVE",
"-28 113 CURVE SMOOTH",
"-39 105 OFFCURVE",
"-26 89 OFFCURVE",
"-16 97 CURVE SMOOTH",
"46 146 OFFCURVE",
"77 186 OFFCURVE",
"125 246 CURVE SMOOTH"
);
},
{
closed = 1;
nodes = (
"514 84 OFFCURVE",
"500 98 OFFCURVE",
"491 89 CURVE SMOOTH",
"446 46 OFFCURVE",
"402 16 OFFCURVE",
"351 16 CURVE SMOOTH",
"304 16 OFFCURVE",
"261 59 OFFCURVE",
"319 163 CURVE SMOOTH",
"325 175 OFFCURVE",
"308 185 OFFCURVE",
"302 173 CURVE SMOOTH",
"241 63 OFFCURVE",
"280 -4 OFFCURVE",
"351 -4 CURVE SMOOTH",
"410 -4 OFFCURVE",
"459 32 OFFCURVE",
"504 75 CURVE SMOOTH"
);
},
{
closed = 1;
nodes = (
"511 347 OFFCURVE",
"505 377 CURVE SMOOTH",
"502 393 OFFCURVE",
"489 404 OFFCURVE",
"469 405 CURVE SMOOTH",
"443 406 OFFCURVE",
"404 387 OFFCURVE",
"363 335 CURVE SMOOTH",
"324 285 OFFCURVE",
"203 90 OFFCURVE",
"140 90 CURVE SMOOTH",
"87 90 OFFCURVE",
"161 220 OFFCURVE",
"197 276 CURVE SMOOTH",
"213 300 OFFCURVE",
"227 318 OFFCURVE",
"237 333 CURVE SMOOTH",
"262 369 OFFCURVE",
"253 406 OFFCURVE",
"216 406 CURVE SMOOTH",
"194 406 OFFCURVE",
"148 388 OFFCURVE",
"106 335 CURVE SMOOTH",
"83 305 OFFCURVE",
"57 268 OFFCURVE",
"-7 200 CURVE SMOOTH",
"-16 190 OFFCURVE",
"-2 176 OFFCURVE",
"7 186 CURVE SMOOTH",
"72 256 OFFCURVE",
"98 293 OFFCURVE",
"122 323 CURVE SMOOTH",
"160 371 OFFCURVE",
"201 387 OFFCURVE",
"214 387 CURVE SMOOTH",
"231 387 OFFCURVE",
"236 366 OFFCURVE",
"220 343 CURVE SMOOTH",
"212 330 OFFCURVE",
"199 315 OFFCURVE",
"183 292 CURVE SMOOTH",
"165 267 OFFCURVE",
"143 232 OFFCURVE",
"127 198 CURVE SMOOTH",
"113 170 OFFCURVE",
"68 70 OFFCURVE",
"140 70 CURVE SMOOTH",
"217 70 OFFCURVE",
"334 265 OFFCURVE",
"379 323 CURVE SMOOTH",
"416 369 OFFCURVE",
"449 386 OFFCURVE",
"469 385 CURVE SMOOTH",
"482 384 OFFCURVE",
"488 375 OFFCURVE",
"486 362 CURVE SMOOTH",
"484 346 OFFCURVE",
"460 319 OFFCURVE",
"451 306 CURVE SMOOTH",
"421 263 OFFCURVE",
"301 65 OFFCURVE",
"397 65 CURVE SMOOTH",
"414 65 OFFCURVE",
"455 79 OFFCURVE",
"475 106 CURVE SMOOTH",
"483 116 OFFCURVE",
"468 129 OFFCURVE",
"460 118 CURVE SMOOTH",
"443 97 OFFCURVE",
"409 85 OFFCURVE",
"397 85 CURVE SMOOTH",
"341 85 OFFCURVE",
"423 228 OFFCURVE",
"465 292 CURVE SMOOTH",
"491 332 OFFCURVE"
);
},
{
closed = 1;
nodes = (
"706 197 OFFCURVE",
"691 211 OFFCURVE",
"683 201 CURVE SMOOTH",
"646 160 OFFCURVE",
"597 119 OFFCURVE",
"561 119 CURVE SMOOTH",
"467 119 OFFCURVE",
"521 252 OFFCURVE",
"548 291 CURVE SMOOTH",
"567 318 OFFCURVE",
"596 331 OFFCURVE",
"611 328 CURVE SMOOTH",
"659 320 OFFCURVE",
"568 187 OFFCURVE",
"555 171 CURVE SMOOTH",
"546 161 OFFCURVE",
"561 148 OFFCURVE",
"570 159 CURVE SMOOTH",
"587 180 OFFCURVE",
"612 218 OFFCURVE",
"629 254 CURVE SMOOTH",
"682 369 OFFCURVE",
"580 371 OFFCURVE",
"532 303 CURVE SMOOTH",
"495 250 OFFCURVE",
"444 99 OFFCURVE",
"561 99 CURVE SMOOTH",
"607 99 OFFCURVE",
"662 148 OFFCURVE",
"697 187 CURVE SMOOTH"
);
}
);
width = 690;
}
);
note = w;
unicode = 0077;
},
{
glyphname = x;
lastChange = "2021-11-10 00:36:21 +0000";
layers = (
{
layerId = "6B4F01CB-8044-4D82-912B-2C5A8D883AAC";
paths = (
{
closed = 1;
nodes = (
"142 64 OFFCURVE",
"126 77 OFFCURVE",
"118 66 CURVE SMOOTH",
"112 59 OFFCURVE",
"88 29 OFFCURVE",
"63 1 CURVE SMOOTH",
"49 -16 OFFCURVE",
"13 -1 OFFCURVE",
"25 16 CURVE SMOOTH",
"38 34 OFFCURVE",
"70 73 OFFCURVE",
"107 114 CURVE SMOOTH",
"115 124 OFFCURVE",
"100 138 OFFCURVE",
"91 128 CURVE SMOOTH",
"55 85 OFFCURVE",
"22 46 OFFCURVE",
"9 28 CURVE SMOOTH",
"-19 -11 OFFCURVE",
"48 -48 OFFCURVE",
"78 -13 CURVE SMOOTH",
"103 17 OFFCURVE",
"128 47 OFFCURVE",
"133 54 CURVE SMOOTH"
);
},
{
closed = 1;
nodes = (
"133 276 OFFCURVE",
"115 286 OFFCURVE",
"108 274 CURVE SMOOTH",
"93 247 OFFCURVE",
"52 176 OFFCURVE",
"-14 112 CURVE SMOOTH",
"-24 103 OFFCURVE",
"-10 89 OFFCURVE",
"0 98 CURVE SMOOTH",
"68 164 OFFCURVE",
"111 237 OFFCURVE",
"126 264 CURVE SMOOTH"
);
},
{
closed = 1;
nodes = (
"404 53 OFFCURVE",
"387 65 OFFCURVE",
"380 54 CURVE SMOOTH",
"368 36 OFFCURVE",
"326 10 OFFCURVE",
"286 10 CURVE SMOOTH",
"229 10 OFFCURVE",
"159 65 OFFCURVE",
"142 185 CURVE SMOOTH",
"140 198 OFFCURVE",
"120 195 OFFCURVE",
"122 182 CURVE SMOOTH",
"140 56 OFFCURVE",
"215 -10 OFFCURVE",
"286 -10 CURVE SMOOTH",
"332 -10 OFFCURVE",
"380 20 OFFCURVE",
"396 42 CURVE SMOOTH"
);
},
{
closed = 1;
nodes = (
"437 198 OFFCURVE",
"421 210 OFFCURVE",
"413 199 CURVE SMOOTH",
"383 158 OFFCURVE",
"298 37 OFFCURVE",
"250 126 CURVE SMOOTH",
"212 195 OFFCURVE",
"199 309 OFFCURVE",
"198 326 CURVE SMOOTH",
"194 392 OFFCURVE",
"126 428 OFFCURVE",
"74 334 CURVE SMOOTH",
"57 304 OFFCURVE",
"30 256 OFFCURVE",
"-8 199 CURVE SMOOTH",
"-16 188 OFFCURVE",
"1 176 OFFCURVE",
"8 187 CURVE SMOOTH",
"46 247 OFFCURVE",
"75 294 OFFCURVE",
"92 324 CURVE SMOOTH",
"135 401 OFFCURVE",
"175 371 OFFCURVE",
"178 325 CURVE SMOOTH",
"179 307 OFFCURVE",
"192 189 OFFCURVE",
"232 116 CURVE SMOOTH",
"292 6 OFFCURVE",
"390 135 OFFCURVE",
"429 187 CURVE SMOOTH"
);
},
{
closed = 1;
nodes = (
"413 374 OFFCURVE",
"346 411 OFFCURVE",
"316 376 CURVE SMOOTH",
"291 346 OFFCURVE",
"241 287 OFFCURVE",
"235 280 CURVE SMOOTH",
"227 270 OFFCURVE",
"243 257 OFFCURVE",
"251 268 CURVE SMOOTH",
"257 275 OFFCURVE",
"306 334 OFFCURVE",
"331 362 CURVE SMOOTH",
"345 379 OFFCURVE",
"382 364 OFFCURVE",
"369 347 CURVE SMOOTH",
"333 296 OFFCURVE",
"287 250 OFFCURVE",
"246 204 CURVE SMOOTH",
"237 194 OFFCURVE",
"251 180 OFFCURVE",
"260 190 CURVE SMOOTH",
"303 237 OFFCURVE",
"349 284 OFFCURVE",
"386 335 CURVE SMOOTH"
);
}
);
width = 421;
}
);
note = x;
unicode = 0078;
},
